GeezHandwritingBold.ufo
<glyph name="exclam" format="2">
  <advance width="819"/>
  <unicode hex="0021"/>
  <outline>
    <contour>
      <point x="270" y="59" type="curve" smooth="yes"/>
      <point x="270" y="98"/>
      <point x="250" y="119"/>
      <point x="211" y="119" type="curve" smooth="yes"/>
      <point x="172" y="119"/>
      <point x="152" y="98"/>
      <point x="152" y="59" type="curve" smooth="yes"/>
      <point x="152" y="20"/>
      <point x="172" y="0"/>
      <point x="211" y="0" type="curve" smooth="yes"/>
      <point x="250" y="0"/>
      <point x="270" y="20"/>
    </contour>
    <contour>
      <point x="262" y="1280" type="line" smooth="yes"/>
      <point x="262" y="1311" name=".hr01"/>
      <point x="246" y="1329"/>
      <point x="211" y="1331" type="curve"/>
      <point x="176" y="1329"/>
      <point x="160" y="1311"/>
      <point x="160" y="1280" type="curve" smooth="yes"/>
      <point x="160" y="358" type="line" smooth="yes"/>
      <point x="160" y="328"/>
      <point x="176" y="309"/>
      <point x="211" y="307" type="curve"/>
      <point x="246" y="309"/>
      <point x="262" y="328"/>
      <point x="262" y="358" type="curve" smooth="yes"/>
    </contour>
  </outline>
</glyph>
<glyph name="quotedbl" format="2">
  <advance width="512"/>
  <unicode hex="0022"/>
  <outline>
    <contour>
      <point x="205" y="1280" type="line" smooth="yes"/>
      <point x="205" y="1311"/>
      <point x="188" y="1329"/>
      <point x="154" y="1331" type="curve"/>
      <point x="119" y="1329"/>
      <point x="102" y="1311"/>
      <point x="102" y="1280" type="curve" smooth="yes"/>
      <point x="102" y="1040" type="line" smooth="yes"/>
      <point x="102" y="1010"/>
      <point x="119" y="991"/>
      <point x="154" y="989" type="curve"/>
      <point x="188" y="991"/>
      <point x="205" y="1010"/>
      <point x="205" y="1040" type="curve" smooth="yes"/>
    </contour>
    <contour>
      <point x="410" y="1280" type="line" smooth="yes"/>
      <point x="410" y="1311"/>
      <point x="393" y="1329"/>
      <point x="358" y="1331" type="curve"/>
      <point x="324" y="1329"/>
      <point x="307" y="1311"/>
      <point x="307" y="1280" type="curve" smooth="yes"/>
      <point x="307" y="1040" type="line" smooth="yes"/>
      <point x="307" y="1010"/>
      <point x="324" y="991"/>
      <point x="358" y="989" type="curve"/>
      <point x="393" y="991"/>
      <point x="410" y="1010"/>
      <point x="410" y="1040" type="curve" smooth="yes"/>
    </contour>
  </outline>
</glyph>
<glyph name="numbersign" format="2">
  <advance width="1331"/>
  <unicode hex="0023"/>
  <outline>
    <contour>
      <point x="668" y="596" type="line"/>
      <point x="395" y="596" type="line"/>
      <point x="442" y="870" type="line"/>
      <point x="717" y="870" type="line"/>
    </contour>
    <contour>
      <point x="1096" y="915" type="curve"/>
      <point x="1094" y="946"/>
      <point x="1079" y="963"/>
      <point x="1051" y="963" type="curve" smooth="yes"/>
      <point x="825" y="963" type="line"/>
      <point x="881" y="1274" type="line" smooth="yes"/>
      <point x="885.692" y="1300.06"/>
      <point x="872" y="1319"/>
      <point x="844" y="1327" type="curve"/>
      <point x="813" y="1329"/>
      <point x="796.17" y="1316.97"/>
      <point x="791" y="1288" type="curve" smooth="yes"/>
      <point x="733" y="963" type="line"/>
      <point x="459" y="963" type="line"/>
      <point x="514" y="1274" type="line" smooth="yes"/>
      <point x="518.611" y="1300.07"/>
      <point x="506" y="1319"/>
      <point x="475" y="1327" type="curve"/>
      <point x="444" y="1329"/>
      <point x="426.91" y="1317.02"/>
      <point x="422" y="1288" type="curve" smooth="yes"/>
      <point x="367" y="963" type="line"/>
      <point x="131" y="963" type="line" smooth="yes"/>
      <point x="102" y="963"/>
      <point x="86" y="946"/>
      <point x="84" y="915" type="curve"/>
      <point x="86" y="885"/>
      <point x="101.999" y="870"/>
      <point x="131" y="870" type="curve" smooth="yes"/>
      <point x="350" y="870" type="line"/>
      <point x="301" y="596" type="line"/>
      <point x="80" y="596" type="line" smooth="yes"/>
      <point x="51" y="596"/>
      <point x="35.001" y="580"/>
      <point x="33.001" y="549" type="curve"/>
      <point x="35.001" y="518"/>
      <point x="51" y="504"/>
      <point x="80" y="504" type="curve" smooth="yes"/>
      <point x="285" y="504" type="line"/>
      <point x="229" y="180" type="line" smooth="yes"/>
      <point x="224.324" y="152.943"/>
      <point x="236" y="135"/>
      <point x="266" y="127" type="curve"/>
      <point x="297" y="125"/>
      <point x="314.228" y="136.96"/>
      <point x="319" y="164" type="curve" smooth="yes"/>
      <point x="379" y="504" type="line"/>
      <point x="651" y="504" type="line"/>
      <point x="596" y="180" type="line" smooth="yes"/>
      <point x="591.405" y="152.928"/>
      <point x="602" y="135"/>
      <point x="633" y="127" type="curve"/>
      <point x="664" y="125"/>
      <point x="681.306" y="136.946"/>
      <point x="686" y="164" type="curve" smooth="yes"/>
      <point x="745" y="504" type="line"/>
      <point x="999" y="504" type="line" smooth="yes"/>
      <point x="1026" y="504"/>
      <point x="1042" y="518"/>
      <point x="1044" y="549" type="curve"/>
      <point x="1042" y="580"/>
      <point x="1026" y="596"/>
      <point x="999" y="596" type="curve" smooth="yes"/>
      <point x="762" y="596" type="line"/>
      <point x="809" y="870" type="line"/>
      <point x="1051" y="870" type="line" smooth="yes"/>
      <point x="1079" y="870"/>
      <point x="1094" y="885"/>
    </contour>
  </outline>
</glyph>
<glyph name="parenleft" format="2">
  <advance width="717"/>
  <unicode hex="0028"/>
  <outline>
    <contour>
      <point x="498" y="0" type="curve" smooth="yes"/>
      <point x="532" y="0"/>
      <point x="549" y="16"/>
      <point x="549" y="51" type="curve" smooth="yes"/>
      <point x="549" y="66"/>
      <point x="545" y="78"/>
      <point x="535" y="88" type="curve"/>
      <point x="438" y="205"/>
      <point x="376.861" y="288.935"/>
      <point x="350" y="344" type="curve" smooth="yes"/>
      <point x="296.863" y="452.93"/>
      <point x="270" y="565"/>
      <point x="270" y="684" type="curve" smooth="yes"/>
      <point x="270" y="803"/>
      <point x="297.74" y="915.124"/>
      <point x="350" y="1024" type="curve" smooth="yes"/>
      <point x="369.74" y="1065.13"/>
      <point x="394.917" y="1106.06"/>
      <point x="428" y="1149" type="curve" smooth="yes"/>
      <point x="441.918" y="1167.06"/>
      <point x="476.335" y="1212.71"/>
      <point x="535" y="1280" type="curve" smooth="yes"/>
      <point x="544.34" y="1290.71"/>
      <point x="549" y="1303"/>
      <point x="549" y="1317" type="curve" smooth="yes"/>
      <point x="549" y="1352"/>
      <point x="532" y="1368"/>
      <point x="498" y="1368" type="curve" smooth="yes"/>
      <point x="483" y="1368"/>
      <point x="471" y="1364"/>
      <point x="461" y="1354" type="curve"/>
      <point x="430" y="1317"/>
      <point x="400.582" y="1280.35"/>
      <point x="371" y="1245" type="curve" smooth="yes"/>
      <point x="318.577" y="1182.35"/>
      <point x="281.99" y="1120"/>
      <point x="256" y="1065" type="curve" smooth="yes"/>
      <point x="195.991" y="938.003"/>
      <point x="168" y="811"/>
      <point x="168" y="684" type="curve" smooth="yes"/>
      <point x="168" y="557"/>
      <point x="195.99" y="429.997"/>
      <point x="256" y="303" type="curve" smooth="yes"/>
      <point x="281.99" y="247.997"/>
      <point x="318.482" y="186.406"/>
      <point x="371" y="123" type="curve" smooth="yes"/>
      <point x="400.488" y="87.3985"/>
      <point x="430" y="51"/>
      <point x="461" y="14" type="curve"/>
      <point x="471" y="4"/>
      <point x="483" y="0"/>
    </contour>
  </outline>
</glyph>
<glyph name="plus" format="2">
  <advance width="1024"/>
  <unicode hex="002B"/>
  <outline>
    <contour>
      <point x="895" y="688" type="curve"/>
      <point x="893" y="723"/>
      <point x="874" y="739"/>
      <point x="844" y="739" type="curve" smooth="yes"/>
      <point x="563" y="739" type="line"/>
      <point x="563" y="1020" type="line" smooth="yes"/>
      <point x="563" y="1051"/>
      <point x="547" y="1069"/>
      <point x="512" y="1071" type="curve"/>
      <point x="477" y="1069"/>
      <point x="461" y="1051"/>
      <point x="461" y="1020" type="curve" smooth="yes"/>
      <point x="461" y="739" type="line"/>
      <point x="180" y="739" type="line" smooth="yes"/>
      <point x="150" y="739"/>
      <point x="131" y="723"/>
      <point x="129" y="688" type="curve"/>
      <point x="131" y="653"/>
      <point x="150" y="637"/>
      <point x="180" y="637" type="curve" smooth="yes"/>
      <point x="461" y="637" type="line"/>
      <point x="461" y="356" type="line" smooth="yes"/>
      <point x="461" y="326"/>
      <point x="477" y="307"/>
      <point x="512" y="305" type="curve"/>
      <point x="547" y="307"/>
      <point x="563" y="326"/>
      <point x="563" y="356" type="curve" smooth="yes"/>
      <point x="563" y="637" type="line"/>
      <point x="844" y="637" type="line" smooth="yes"/>
      <point x="874" y="637"/>
      <point x="893" y="653"/>
    </contour>
  </outline>
</glyph>
<glyph name="hyphen" format="2">
  <advance width="1024"/>
  <unicode hex="002D"/>
  <outline>
    <contour>
      <point x="905" y="688" type="curve"/>
      <point x="903" y="723"/>
      <point x="885" y="739"/>
      <point x="854" y="739" type="curve" smooth="yes"/>
      <point x="172" y="739" type="line" smooth="yes"/>
      <point x="139" y="739"/>
      <point x="123" y="723"/>
      <point x="121" y="688" type="curve"/>
      <point x="123" y="653"/>
      <point x="139" y="637"/>
      <point x="172" y="637" type="curve" smooth="yes"/>
      <point x="854" y="637" type="line" smooth="yes"/>
      <point x="885" y="637"/>
      <point x="903" y="653"/>
    </contour>
  </outline>
</glyph>
<glyph name="six" format="2">
  <advance width="1024"/>
  <unicode hex="0036"/>
  <outline>
    <contour>
      <point x="821" y="412" type="curve" smooth="yes"/>
      <point x="821" y="326"/>
      <point x="791" y="253"/>
      <point x="731" y="193" type="curve" smooth="yes"/>
      <point x="671" y="133"/>
      <point x="598" y="102"/>
      <point x="512" y="102" type="curve" smooth="yes"/>
      <point x="426" y="102"/>
      <point x="353" y="133"/>
      <point x="293" y="193" type="curve" smooth="yes"/>
      <point x="233" y="253"/>
      <point x="205" y="326"/>
      <point x="205" y="412" type="curve" smooth="yes"/>
      <point x="205" y="496"/>
      <point x="235.75" y="569.247"/>
      <point x="295" y="629" type="curve" smooth="yes"/>
      <point x="353.749" y="688.247"/>
      <point x="428" y="719"/>
      <point x="512" y="719" type="curve" smooth="yes"/>
      <point x="596" y="719"/>
      <point x="669.002" y="688.006"/>
      <point x="729" y="629" type="curve" smooth="yes"/>
      <point x="790.005" y="569.004"/>
      <point x="821" y="496"/>
    </contour>
    <contour>
      <point x="924" y="412" type="curve" smooth="yes"/>
      <point x="924" y="528.004"/>
      <point x="883.992" y="623.995"/>
      <point x="805" y="702" type="curve" smooth="yes"/>
      <point x="723.995" y="781.992"/>
      <point x="629.005" y="821"/>
      <point x="512" y="821" type="curve" smooth="yes"/>
      <point x="439.997" y="821"/>
      <point x="373" y="803"/>
      <point x="311" y="768" type="curve"/>
      <point x="350" y="887"/>
      <point x="467.317" y="1056.73"/>
      <point x="664" y="1278" type="curve" smooth="yes"/>
      <point x="667.322" y="1281.74"/>
      <point x="670" y="1288"/>
      <point x="670" y="1294" type="curve" smooth="yes"/>
      <point x="670" y="1321"/>
      <point x="633" y="1352"/>
      <point x="606" y="1352" type="curve" smooth="yes"/>
      <point x="596" y="1352"/>
      <point x="590" y="1350"/>
      <point x="584" y="1343" type="curve"/>
      <point x="457" y="1219"/>
      <point x="349.188" y="1074.89"/>
      <point x="260" y="915" type="curve" smooth="yes"/>
      <point x="156.193" y="728.9"/>
      <point x="102" y="561"/>
      <point x="102" y="412" type="curve" smooth="yes"/>
      <point x="102" y="295"/>
      <point x="141.245" y="198.241"/>
      <point x="219" y="119" type="curve" smooth="yes"/>
      <point x="298.245" y="38.2408"/>
      <point x="395" y="0"/>
      <point x="512" y="0" type="curve" smooth="yes"/>
      <point x="629" y="0"/>
      <point x="725" y="39"/>
      <point x="805" y="119" type="curve" smooth="yes"/>
      <point x="885" y="199"/>
      <point x="924" y="294.996"/>
    </contour>
  </outline>
</glyph>
<glyph name="nine" format="2">
  <advance width="1024"/>
  <unicode hex="0039"/>
  <outline>
    <contour>
      <point x="729" y="967" type="curve" smooth="yes"/>
      <point x="731.068" y="891"/>
      <point x="704.716" y="827.264"/>
      <point x="653" y="772" type="curve" smooth="yes"/>
      <point x="602.716" y="718.265"/>
      <point x="539" y="692"/>
      <point x="463" y="692" type="curve" smooth="yes"/>
      <point x="387" y="692"/>
      <point x="323.753" y="718.75"/>
      <point x="272" y="770" type="curve" smooth="yes"/>
      <point x="220.75" y="820.752"/>
      <point x="195" y="885"/>
      <point x="195" y="961" type="curve" smooth="yes"/>
      <point x="195" y="1036"/>
      <point x="220.75" y="1098.25"/>
      <point x="272" y="1149" type="curve" smooth="yes"/>
      <point x="323.753" y="1200.25"/>
      <point x="387" y="1227"/>
      <point x="463" y="1227" type="curve" smooth="yes"/>
      <point x="535" y="1227"/>
      <point x="598" y="1202"/>
      <point x="649" y="1151" type="curve" smooth="yes"/>
      <point x="700" y="1100"/>
      <point x="727.068" y="1038"/>
    </contour>
    <contour>
      <point x="831" y="961" type="line" smooth="yes"/>
      <point x="831" y="1065.01"/>
      <point x="795.25" y="1151.25"/>
      <point x="723" y="1223" type="curve" smooth="yes"/>
      <point x="651.25" y="1294.25"/>
      <point x="565.004" y="1331"/>
      <point x="463" y="1331" type="curve" smooth="yes"/>
      <point x="357.996" y="1331"/>
      <point x="270" y="1294"/>
      <point x="199" y="1223" type="curve" smooth="yes"/>
      <point x="127.002" y="1151"/>
      <point x="92" y="1065"/>
      <point x="92" y="961" type="curve" smooth="yes"/>
      <point x="92" y="855.996"/>
      <point x="127.002" y="767.998"/>
      <point x="199" y="696" type="curve" smooth="yes"/>
      <point x="270" y="625"/>
      <point x="357.997" y="590"/>
      <point x="463" y="590" type="curve" smooth="yes"/>
      <point x="567.004" y="590"/>
      <point x="655" y="629"/>
      <point x="729" y="705" type="curve"/>
      <point x="729" y="51" type="line" smooth="yes"/>
      <point x="729" y="20"/>
      <point x="745" y="2"/>
      <point x="780" y="0" type="curve"/>
      <point x="815" y="2"/>
      <point x="831" y="19.9985"/>
      <point x="831" y="51" type="curve" smooth="yes"/>
    </contour>
  </outline>
</glyph>
<glyph name="greater" format="2">
  <advance width="1024"/>
  <unicode hex="003E"/>
  <outline>
    <contour>
      <point x="799" y="690" type="curve" smooth="yes"/>
      <point x="799" y="702"/>
      <point x="787.907" y="720.868"/>
      <point x="760" y="741" type="curve" smooth="yes"/>
      <point x="297" y="1075" type="line" smooth="yes"/>
      <point x="288.889" y="1080.85"/>
      <point x="283" y="1083"/>
      <point x="276" y="1085" type="curve"/>
      <point x="258" y="1087"/>
      <point x="240" y="1081"/>
      <point x="225" y="1063" type="curve"/>
      <point x="209" y="1034"/>
      <point x="213.053" y="1011.07"/>
      <point x="238" y="993" type="curve" smooth="yes"/>
      <point x="659" y="688" type="line"/>
      <point x="238" y="383" type="line" smooth="yes"/>
      <point x="213.053" y="364.927"/>
      <point x="209" y="340"/>
      <point x="225" y="311" type="curve"/>
      <point x="240" y="293"/>
      <point x="258" y="287"/>
      <point x="276" y="289" type="curve"/>
      <point x="283" y="291"/>
      <point x="288.906" y="293.126"/>
      <point x="297" y="299" type="curve" smooth="yes"/>
      <point x="760" y="635" type="line" smooth="yes"/>
      <point x="787.85" y="655.21"/>
      <point x="799" y="676"/>
    </contour>
  </outline>
</glyph>
<glyph name="A" format="2">
  <advance width="1536"/>
  <unicode hex="0041"/>
  <outline>
    <contour>
      <point x="526" y="688" type="line"/>
      <point x="768" y="1167" type="line"/>
      <point x="1008" y="688" type="line"/>
    </contour>
    <contour>
      <point x="819" y="1290" type="line" smooth="yes"/>
      <point x="805.239" y="1317.12"/>
      <point x="788" y="1331"/>
      <point x="766" y="1331" type="curve" smooth="yes"/>
      <point x="745" y="1331"/>
      <point x="730.144" y="1317.93"/>
      <point x="719" y="1296" type="curve" smooth="yes"/>
      <point x="100" y="78" type="line" smooth="yes"/>
      <point x="84.804" y="48.0985"/>
      <point x="91.8045" y="22.5912"/>
      <point x="123" y="8" type="curve" smooth="yes"/>
      <point x="153.812" y="-6.41175"/>
      <point x="174.678" y="1.16275"/>
      <point x="190" y="31" type="curve" smooth="yes"/>
      <point x="475" y="586" type="line"/>
      <point x="1061" y="586" type="line"/>
      <point x="1346" y="29" type="line" smooth="yes"/>
      <point x="1361.89" y="-2.0555" name=".hr01"/>
      <point x="1382.1" y="-9.1985"/>
      <point x="1413" y="6" type="curve" smooth="yes"/>
      <point x="1443.1" y="20.802"/>
      <point x="1451.78" y="42.8902"/>
      <point x="1436" y="74" type="curve" smooth="yes"/>
    </contour>
  </outline>
</glyph>
<glyph name="B" format="2">
  <advance width="1229"/>
  <unicode hex="0042"/>
  <outline>
    <contour>
      <point x="1014" y="369" type="curve" smooth="yes"/>
      <point x="1014" y="309"/>
      <point x="983.265" y="249.722"/>
      <point x="920" y="190" type="curve" smooth="yes"/>
      <point x="858.265" y="131.722"/>
      <point x="797" y="102"/>
      <point x="737" y="102" type="curve" smooth="yes"/>
      <point x="205" y="102" type="line"/>
      <point x="205" y="684" type="line"/>
      <point x="752" y="684" type="line" smooth="yes"/>
      <point x="819.003" y="684"/>
      <point x="881.06" y="647.044"/>
      <point x="936" y="575" type="curve" smooth="yes"/>
      <point x="987.059" y="508.045" name=".hr01"/>
      <point x="1014" y="440" name=".hr02"/>
    </contour>
    <contour>
      <point x="987" y="985" type="curve" smooth="yes"/>
      <point x="987" y="929.998" name=".hr03"/>
      <point x="959.64" y="881.48"/>
      <point x="907" y="842" type="curve" smooth="yes"/>
      <point x="859.64" y="806.48"/>
      <point x="807.002" y="786"/>
      <point x="748" y="786" type="curve" smooth="yes"/>
      <point x="205" y="786" type="line"/>
      <point x="205" y="1229" type="line"/>
      <point x="758" y="1229" type="line" smooth="yes"/>
      <point x="903.002" y="1229"/>
      <point x="987" y="1133.01"/>
    </contour>
    <contour>
      <point x="1116" y="369" type="curve" smooth="yes"/>
      <point x="1116" y="508.005"/>
      <point x="1040" y="655" name=".hr04"/>
      <point x="926" y="729" type="curve"/>
      <point x="1034" y="788"/>
      <point x="1090" y="873.996"/>
      <point x="1090" y="985" type="curve" smooth="yes"/>
      <point x="1090" y="1083"/>
      <point x="1061.19" y="1163.17"/>
      <point x="1006" y="1227" type="curve" smooth="yes"/>
      <point x="946.193" y="1296.17"/>
      <point x="862" y="1331"/>
      <point x="758" y="1331" type="curve" smooth="yes"/>
      <point x="154" y="1331" type="line" smooth="yes"/>
      <point x="119" y="1331"/>
      <point x="102" y="1315"/>
      <point x="102" y="1280" type="curve" smooth="yes"/>
      <point x="102" y="51" type="line" smooth="yes"/>
      <point x="102" y="16"/>
      <point x="118.999" y="0"/>
      <point x="154" y="0" type="curve" smooth="yes"/>
      <point x="737" y="0" type="line" smooth="yes"/>
      <point x="825.004" y="0"/>
      <point x="911.764" y="38.2407"/>
      <point x="993" y="117" type="curve" smooth="yes"/>
      <point x="1075.77" y="197.243"/>
      <point x="1116" y="280.997"/>
    </contour>
  </outline>
</glyph>
<glyph name="V" format="2">
  <advance width="1229"/>
  <unicode hex="0056"/>
  <outline>
    <contour>
      <point x="1098" y="1282" type="curve" smooth="yes"/>
      <point x="1098" y="1303"/>
      <point x="1085" y="1317"/>
      <point x="1063" y="1327" type="curve"/>
      <point x="1030" y="1337"/>
      <point x="1007.59" y="1327.16"/>
      <point x="997" y="1298" type="curve" smooth="yes"/>
      <point x="598" y="199" type="line"/>
      <point x="199" y="1298" type="line" smooth="yes"/>
      <point x="188.415" y="1327.16"/>
      <point x="166" y="1337"/>
      <point x="133" y="1327" type="curve"/>
      <point x="111" y="1317"/>
      <point x="98" y="1303"/>
      <point x="98" y="1282" type="curve" smooth="yes"/>
      <point x="98" y="1276"/>
      <point x="100" y="1270"/>
      <point x="102" y="1262" type="curve"/>
      <point x="549" y="33" type="line" smooth="yes"/>
      <point x="557.323" y="10.1147"/>
      <point x="573" y="-2"/>
      <point x="598" y="0" type="curve"/>
      <point x="623" y="-2"/>
      <point x="638.677" y="10.1147"/>
      <point x="647" y="33" type="curve" smooth="yes"/>
      <point x="1094" y="1262" type="line"/>
      <point x="1096" y="1270"/>
      <point x="1098" y="1276"/>
    </contour>
  </outline>
</glyph>
<glyph name="bracketright" format="2">
  <advance width="717"/>
  <unicode hex="005D"/>
  <outline>
    <contour>
      <point x="520" y="1280" type="line" smooth="yes"/>
      <point x="520" y="1311"/>
      <point x="504" y="1331"/>
      <point x="469" y="1331" type="curve" smooth="yes"/>
      <point x="219" y="1331" type="line" smooth="yes"/>
      <point x="188" y="1331"/>
      <point x="170" y="1315"/>
      <point x="168" y="1280" type="curve"/>
      <point x="170" y="1245"/>
      <point x="187.999" y="1229"/>
      <point x="219" y="1229" type="curve" smooth="yes"/>
      <point x="416" y="1229" type="line"/>
      <point x="416" y="102" type="line"/>
      <point x="221" y="102" type="line" smooth="yes"/>
      <point x="189.999" y="102"/>
      <point x="172" y="86"/>
      <point x="170" y="51" type="curve"/>
      <point x="172" y="16"/>
      <point x="190" y="0"/>
      <point x="221" y="0" type="curve" smooth="yes"/>
      <point x="469" y="0" type="line" smooth="yes"/>
      <point x="504" y="0"/>
      <point x="520" y="16"/>
      <point x="520" y="51" type="curve" smooth="yes"/>
    </contour>
  </outline>
</glyph>
<glyph name="asciicircum" format="2">
  <advance width="1024"/>
  <unicode hex="005E"/>
  <outline>
    <contour>
      <point x="137" y="401" type="curve"/>
      <point x="166" y="383"/>
      <point x="188.077" y="387.943"/>
      <point x="207" y="414" type="curve" smooth="yes"/>
      <point x="512" y="834" type="line"/>
      <point x="817" y="414" type="line" smooth="yes"/>
      <point x="835.923" y="387.943"/>
      <point x="858" y="383"/>
      <point x="887" y="401" type="curve"/>
      <point x="905" y="416"/>
      <point x="913" y="432"/>
      <point x="909" y="451" type="curve"/>
      <point x="909" y="457"/>
      <point x="904.867" y="464.902"/>
      <point x="899" y="473" type="curve" smooth="yes"/>
      <point x="565" y="934" type="line" smooth="yes"/>
      <point x="544.812" y="961.865"/>
      <point x="526" y="973"/>
      <point x="514" y="973" type="curve" smooth="yes"/>
      <point x="500" y="973"/>
      <point x="479.188" y="961.865"/>
      <point x="459" y="934" type="curve" smooth="yes"/>
      <point x="125" y="473" type="line" smooth="yes"/>
      <point x="119.133" y="464.902"/>
      <point x="115" y="457"/>
      <point x="115" y="451" type="curve"/>
      <point x="111" y="432"/>
      <point x="119" y="416"/>
    </contour>
  </outline>
</glyph>
<glyph name="d" format="2">
  <advance width="819"/>
  <unicode hex="0064"/>
  <outline>
    <contour>
      <point x="614" y="342" type="curve" smooth="yes"/>
      <point x="614" y="283"/>
      <point x="594" y="229"/>
      <point x="555" y="178" type="curve" smooth="yes"/>
      <point x="516" y="127"/>
      <point x="467" y="102"/>
      <point x="410" y="102" type="curve" smooth="yes"/>
      <point x="352" y="102"/>
      <point x="303" y="127"/>
      <point x="264" y="178" type="curve" smooth="yes"/>
      <point x="225" y="229"/>
      <point x="205" y="283"/>
      <point x="205" y="342" type="curve" smooth="yes"/>
      <point x="205" y="401"/>
      <point x="225" y="455"/>
      <point x="264" y="506" type="curve" smooth="yes"/>
      <point x="303" y="557"/>
      <point x="352" y="582"/>
      <point x="410" y="582" type="curve" smooth="yes"/>
      <point x="469" y="582"/>
      <point x="518.249" y="555.2"/>
      <point x="559" y="504" type="curve" smooth="yes"/>
      <point x="596.251" y="457.197"/>
      <point x="614" y="401"/>
    </contour>
    <contour>
      <point x="717" y="1280" type="line" smooth="yes"/>
      <point x="717" y="1311"/>
      <point x="700" y="1329"/>
      <point x="666" y="1331" type="curve"/>
      <point x="631" y="1329"/>
      <point x="614" y="1311"/>
      <point x="614" y="1280" type="curve" smooth="yes"/>
      <point x="614" y="594" type="line"/>
      <point x="557" y="653"/>
      <point x="489" y="684"/>
      <point x="410" y="684" type="curve" smooth="yes"/>
      <point x="322" y="684"/>
      <point x="247.451" y="649.613"/>
      <point x="188" y="580" type="curve" smooth="yes"/>
      <point x="130.451" y="512.614"/>
      <point x="102" y="432"/>
      <point x="102" y="342" type="curve" smooth="yes"/>
      <point x="102" y="252"/>
      <point x="130.86" y="173.884"/>
      <point x="188" y="106" type="curve" smooth="yes"/>
      <point x="247.862" y="34.8812"/>
      <point x="322" y="0"/>
      <point x="410" y="0" type="curve" smooth="yes"/>
      <point x="489" y="0"/>
      <point x="557" y="31"/>
      <point x="614" y="90" type="curve"/>
      <point x="614" y="51" type="line" smooth="yes"/>
      <point x="614" y="20"/>
      <point x="631" y="2"/>
      <point x="666" y="0" type="curve"/>
      <point x="700" y="2"/>
      <point x="717" y="20"/>
      <point x="717" y="51" type="curve" smooth="yes"/>
    </contour>
  </outline>
</glyph>
<glyph name="f" format="2">
  <advance width="819"/>
  <unicode hex="0066"/>
  <outline>
    <contour>
      <point x="848" y="1126" type="curve" smooth="yes"/>
      <point x="859" y="1137"/>
      <point x="862" y="1147"/>
      <point x="862" y="1161" type="curve" smooth="yes"/>
      <point x="862" y="1176"/>
      <point x="858" y="1188"/>
      <point x="848" y="1198" type="curve"/>
      <point x="780" y="1286"/>
      <point x="700" y="1331"/>
      <point x="604" y="1331" type="curve" smooth="yes"/>
      <point x="532" y="1331"/>
      <point x="467.372" y="1302.62"/>
      <point x="410" y="1247" type="curve" smooth="yes"/>
      <point x="336.367" y="1175.61"/>
      <point x="299" y="1077"/>
      <point x="299" y="952" type="curve" smooth="yes"/>
      <point x="299" y="727" type="line"/>
      <point x="154" y="727" type="line" smooth="yes"/>
      <point x="123" y="727"/>
      <point x="104" y="711"/>
      <point x="102" y="676" type="curve"/>
      <point x="104" y="641"/>
      <point x="123" y="625"/>
      <point x="154" y="625" type="curve" smooth="yes"/>
      <point x="299" y="625" type="line"/>
      <point x="299" y="51" type="line" smooth="yes"/>
      <point x="299" y="20"/>
      <point x="315" y="2"/>
      <point x="350" y="0" type="curve"/>
      <point x="385" y="2"/>
      <point x="401" y="20"/>
      <point x="401" y="51" type="curve" smooth="yes"/>
      <point x="401" y="625" type="line"/>
      <point x="530" y="625" type="line" smooth="yes"/>
      <point x="561" y="625"/>
      <point x="580" y="641"/>
      <point x="582" y="676" type="curve"/>
      <point x="580" y="711"/>
      <point x="561" y="727"/>
      <point x="530" y="727" type="curve" smooth="yes"/>
      <point x="401" y="727" type="line"/>
      <point x="401" y="952" type="line" smooth="yes"/>
      <point x="401" y="1018"/>
      <point x="417.319" y="1077.8"/>
      <point x="451" y="1133" type="curve" smooth="yes"/>
      <point x="489.323" y="1195.81"/>
      <point x="539" y="1229"/>
      <point x="602" y="1229" type="curve" smooth="yes"/>
      <point x="645" y="1229"/>
      <point x="682.181" y="1221.18"/>
      <point x="707" y="1196" type="curve" smooth="yes"/>
      <point x="776" y="1126" type="line" smooth="yes"/>
      <point x="799.335" y="1102.33"/>
      <point x="823" y="1101"/>
    </contour>
  </outline>
</glyph>
<glyph name="q" format="2">
  <advance width="819"/>
  <unicode hex="0071"/>
  <outline>
    <contour>
      <point x="608" y="340" type="curve" smooth="yes"/>
      <point x="608" y="279"/>
      <point x="590.312" y="224.765"/>
      <point x="555" y="178" type="curve" smooth="yes"/>
      <point x="516.313" y="126.765"/>
      <point x="469" y="102"/>
      <point x="410" y="102" type="curve" smooth="yes"/>
      <point x="352" y="102"/>
      <point x="303" y="127"/>
      <point x="264" y="178" type="curve" smooth="yes"/>
      <point x="225" y="229"/>
      <point x="205" y="283"/>
      <point x="205" y="342" type="curve" smooth="yes"/>
      <point x="205" y="401"/>
      <point x="225" y="455"/>
      <point x="264" y="506" type="curve" smooth="yes"/>
      <point x="303" y="557"/>
      <point x="352" y="582"/>
      <point x="410" y="582" type="curve" smooth="yes"/>
      <point x="469" y="582"/>
      <point x="518.313" y="555.235"/>
      <point x="557" y="504" type="curve" smooth="yes"/>
      <point x="592.312" y="457.235"/>
      <point x="608" y="403"/>
    </contour>
    <contour>
      <point x="1192" y="-494" type="curve" smooth="yes"/>
      <point x="1192" y="-469"/>
      <point x="1163" y="-444"/>
      <point x="1139" y="-444" type="curve" smooth="yes"/>
      <point x="1122" y="-444"/>
      <point x="1106.44" y="-453.403"/>
      <point x="1090" y="-471" type="curve" smooth="yes"/>
      <point x="1049.44" y="-514.411"/>
      <point x="1024.28" y="-541.359"/>
      <point x="1014" y="-549" type="curve" smooth="yes"/>
      <point x="985.268" y="-570.364"/>
      <point x="952" y="-580"/>
      <point x="913" y="-580" type="curve" smooth="yes"/>
      <point x="852" y="-580"/>
      <point x="802.988" y="-553.011"/>
      <point x="764" y="-498" type="curve" smooth="yes"/>
      <point x="729.987" y="-450.008"/>
      <point x="713" y="-393.003"/>
      <point x="713" y="-330" type="curve" smooth="yes"/>
      <point x="713" y="633" type="line" smooth="yes"/>
      <point x="713" y="664.002"/>
      <point x="696" y="682"/>
      <point x="662" y="684" type="curve"/>
      <point x="627" y="682"/>
      <point x="610" y="664"/>
      <point x="610" y="633" type="curve" smooth="yes"/>
      <point x="610" y="598" type="line"/>
      <point x="553" y="655"/>
      <point x="485" y="684"/>
      <point x="410" y="684" type="curve" smooth="yes"/>
      <point x="322" y="684"/>
      <point x="247.451" y="649.613"/>
      <point x="188" y="580" type="curve" smooth="yes"/>
      <point x="130.451" y="512.614"/>
      <point x="102" y="432"/>
      <point x="102" y="342" type="curve" smooth="yes"/>
      <point x="102" y="252"/>
      <point x="130.86" y="173.884"/>
      <point x="188" y="106" type="curve" smooth="yes"/>
      <point x="247.862" y="34.8812"/>
      <point x="322" y="0"/>
      <point x="410" y="0" type="curve" smooth="yes"/>
      <point x="485" y="0"/>
      <point x="553" y="29"/>
      <point x="610" y="86" type="curve"/>
      <point x="610" y="-330" type="line" smooth="yes"/>
      <point x="610" y="-428"/>
      <point x="637.147" y="-509.889"/>
      <point x="688" y="-575" type="curve" smooth="yes"/>
      <point x="744.144" y="-646.886"/>
      <point x="819.006" y="-684.133"/>
      <point x="915" y="-682" type="curve" smooth="yes"/>
      <point x="999.001" y="-680.133"/>
      <point x="1086.01" y="-633.003"/>
      <point x="1169" y="-539" type="curve" smooth="yes"/>
      <point x="1184.01" y="-522.004"/>
      <point x="1192" y="-508"/>
    </contour>
  </outline>
</glyph>
<glyph name="v" format="2">
  <advance width="819"/>
  <unicode hex="0076"/>
  <outline>
    <contour>
      <point x="686" y="610" type="line" smooth="yes"/>
      <point x="699.128" y="640.946"/>
      <point x="689.025" y="664.054"/>
      <point x="657" y="678" type="curve" smooth="yes"/>
      <point x="627.023" y="691.054"/>
      <point x="605.048" y="679.982"/>
      <point x="592" y="649" type="curve" smooth="yes"/>
      <point x="397" y="186" type="line"/>
      <point x="207" y="649" type="line" smooth="yes"/>
      <point x="194.238" y="680.101"/>
      <point x="171.862" y="691.35"/>
      <point x="139" y="678" type="curve" smooth="yes"/>
      <point x="107.856" y="665.348"/>
      <point x="99.496" y="642.215"/>
      <point x="113" y="610" type="curve" smooth="yes"/>
      <point x="362" y="16" type="line"/>
      <point x="373" y="6"/>
      <point x="383" y="0"/>
      <point x="397" y="0" type="curve" smooth="yes"/>
      <point x="412" y="0"/>
      <point x="424" y="6"/>
      <point x="434" y="16" type="curve"/>
    </contour>
  </outline>
</glyph>
<glyph name="braceleft" format="2">
  <advance width="717"/>
  <unicode hex="007B"/>
  <outline>
    <contour>
      <point x="496" y="1329" type="curve"/>
      <point x="469" y="1333"/>
      <point x="446" y="1335"/>
      <point x="424" y="1335" type="curve" smooth="yes"/>
      <point x="336" y="1335"/>
      <point x="285.682" y="1303.05"/>
      <point x="276" y="1239" type="curve" smooth="yes"/>
      <point x="272.681" y="1217.05"/>
      <point x="274" y="1198"/>
      <point x="274" y="1184" type="curve" smooth="yes"/>
      <point x="274" y="889" type="line" smooth="yes"/>
      <point x="274" y="854"/>
      <point x="270" y="834"/>
      <point x="270" y="827" type="curve"/>
      <point x="258" y="764"/>
      <point x="223" y="721"/>
      <point x="168" y="700" type="curve"/>
      <point x="223" y="682"/>
      <point x="261.486" y="639.05"/>
      <point x="268" y="575" type="curve" smooth="yes"/>
      <point x="274" y="516" type="line"/>
      <point x="272" y="156" type="line" smooth="yes"/>
      <point x="271.861" y="131"/>
      <point x="274" y="113"/>
      <point x="274" y="102" type="curve"/>
      <point x="285" y="37"/>
      <point x="334" y="4"/>
      <point x="422" y="4" type="curve" smooth="yes"/>
      <point x="444" y="4"/>
      <point x="469" y="6"/>
      <point x="494" y="12" type="curve"/>
      <point x="428" y="20"/>
      <point x="389.624" y="52.9425"/>
      <point x="381" y="109" type="curve" smooth="yes"/>
      <point x="377.624" y="130.945"/>
      <point x="379" y="150"/>
      <point x="379" y="164" type="curve" smooth="yes"/>
      <point x="379" y="516" type="line" smooth="yes"/>
      <point x="379" y="543"/>
      <point x="377.625" y="564.938"/>
      <point x="375" y="582" type="curve" smooth="yes"/>
      <point x="365.624" y="642.944"/>
      <point x="332" y="684"/>
      <point x="279" y="702" type="curve"/>
      <point x="332" y="721"/>
      <point x="369.181" y="758.984"/>
      <point x="375" y="823" type="curve" smooth="yes"/>
      <point x="381" y="889" type="line"/>
      <point x="381" y="1178" type="line"/>
      <point x="381" y="1233" type="line"/>
      <point x="391" y="1288"/>
      <point x="430" y="1321"/>
    </contour>
  </outline>
</glyph>
<glyph name="exclamdown" format="2">
  <advance width="819"/>
  <unicode hex="00A1"/>
  <outline>
    <contour>
      <point x="461" y="973" type="line" smooth="yes"/>
      <point x="461" y="1004"/>
      <point x="444" y="1022"/>
      <point x="410" y="1024" type="curve"/>
      <point x="375" y="1022"/>
      <point x="358" y="1004"/>
      <point x="358" y="973" type="curve" smooth="yes"/>
      <point x="358" y="51" type="line" smooth="yes"/>
      <point x="358" y="20"/>
      <point x="375" y="2"/>
      <point x="410" y="0" type="curve"/>
      <point x="444" y="2"/>
      <point x="461" y="20"/>
      <point x="461" y="51" type="curve" smooth="yes"/>
    </contour>
    <contour>
      <point x="469" y="1272" type="curve" smooth="yes" name=".hr01"/>
      <point x="469" y="1311"/>
      <point x="449" y="1331"/>
      <point x="410" y="1331" type="curve" smooth="yes"/>
      <point x="371" y="1331"/>
      <point x="350" y="1311"/>
      <point x="350" y="1272" type="curve" smooth="yes"/>
      <point x="350" y="1233"/>
      <point x="371" y="1212"/>
      <point x="410" y="1212" type="curve" smooth="yes"/>
      <point x="449" y="1212"/>
      <point x="469" y="1233"/>
    </contour>
  </outline>
</glyph>
<glyph name="periodcentered" format="2">
  <advance width="819"/>
  <unicode hex="00B7"/>
  <outline>
    <contour>
      <point x="492" y="614" type="curve" smooth="yes"/>
      <point x="492" y="662"/>
      <point x="457" y="698"/>
      <point x="410" y="698" type="curve" smooth="yes"/>
      <point x="362" y="698"/>
      <point x="328" y="662"/>
      <point x="328" y="614" type="curve" smooth="yes"/>
      <point x="328" y="559"/>
      <point x="354" y="530"/>
      <point x="410" y="530" type="curve" smooth="yes"/>
      <point x="457" y="530"/>
      <point x="492" y="567"/>
    </contour>
  </outline>
</glyph>
<glyph name="Atilde" format="2">
  <advance width="1331"/>
  <unicode hex="00C3"/>
  <outline>
    <contour>
      <point x="481" y="567" type="line"/>
      <point x="645" y="881" type="line"/>
      <point x="811" y="567" type="line"/>
    </contour>
    <contour>
      <point x="1192" y="51" type="curve" smooth="yes"/>
      <point x="1192" y="59"/>
      <point x="1190" y="68"/>
      <point x="1184" y="76" type="curve"/>
      <point x="698" y="1001" type="line" smooth="yes"/>
      <point x="681.774" y="1031.88"/>
      <point x="664" y="1049"/>
      <point x="645" y="1049" type="curve" smooth="yes"/>
      <point x="627" y="1049"/>
      <point x="609.156" y="1031.92"/>
      <point x="592" y="999" type="curve" smooth="yes"/>
      <point x="111" y="76" type="line"/>
      <point x="104" y="68"/>
      <point x="102" y="59"/>
      <point x="102" y="51" type="curve" smooth="yes"/>
      <point x="102" y="33"/>
      <point x="113" y="18"/>
      <point x="131" y="6" type="curve"/>
      <point x="141" y="2"/>
      <point x="150" y="0"/>
      <point x="158" y="0" type="curve" smooth="yes"/>
      <point x="176" y="0"/>
      <point x="191.085" y="9.95525"/>
      <point x="201" y="29" type="curve" smooth="yes"/>
      <point x="428" y="465" type="line"/>
      <point x="864" y="465" type="line"/>
      <point x="1094" y="29" type="line" smooth="yes"/>
      <point x="1104.02" y="10.0098"/>
      <point x="1118" y="0"/>
      <point x="1137" y="0" type="curve" smooth="yes"/>
      <point x="1145" y="0"/>
      <point x="1153" y="2"/>
      <point x="1163" y="6" type="curve"/>
      <point x="1182" y="18"/>
      <point x="1192" y="33"/>
    </contour>
    <contour>
      <point x="936" y="1311" type="curve" smooth="yes"/>
      <point x="913" y="1334"/>
      <point x="890.137" y="1331.83"/>
      <point x="864" y="1311" type="curve" smooth="yes"/>
      <point x="826.136" y="1280.83"/>
      <point x="784" y="1268"/>
      <point x="741" y="1268" type="curve" smooth="yes"/>
      <point x="725" y="1268"/>
      <point x="695.816" y="1274.58"/>
      <point x="657" y="1292" type="curve" smooth="yes"/>
      <point x="617.812" y="1309.58"/>
      <point x="584" y="1319"/>
      <point x="553" y="1319" type="curve" smooth="yes"/>
      <point x="492" y="1319"/>
      <point x="426" y="1294"/>
      <point x="358" y="1247" type="curve"/>
      <point x="334" y="1221"/>
      <point x="334" y="1196"/>
      <point x="356" y="1174" type="curve" smooth="yes"/>
      <point x="379" y="1151"/>
      <point x="403" y="1151"/>
      <point x="428" y="1174" type="curve"/>
      <point x="469" y="1202"/>
      <point x="510" y="1217"/>
      <point x="553" y="1217" type="curve" smooth="yes"/>
      <point x="582" y="1217"/>
      <point x="616.03" y="1208.07"/>
      <point x="655" y="1192" type="curve" smooth="yes"/>
      <point x="696.032" y="1175.07"/>
      <point x="725" y="1167"/>
      <point x="741" y="1167" type="curve" smooth="yes" name=".hr01"/>
      <point x="801" y="1167"/>
      <point x="866" y="1192"/>
      <point x="936" y="1239" type="curve"/>
      <point x="958" y="1264"/>
      <point x="959" y="1288"/>
    </contour>
  </outline>
</glyph>
<glyph name="Ecircumflex" format="2">
  <advance width="1024"/>
  <unicode hex="00CA"/>
  <outline>
    <contour>
      <point x="825" y="51" type="curve"/>
      <point x="823" y="86"/>
      <point x="805" y="102"/>
      <point x="774" y="102" type="curve" smooth="yes"/>
      <point x="205" y="102" type="line"/>
      <point x="205" y="506" type="line"/>
      <point x="543" y="506" type="line" smooth="yes"/>
      <point x="573" y="506"/>
      <point x="592" y="522"/>
      <point x="594" y="557" type="curve"/>
      <point x="592" y="592"/>
      <point x="573" y="608"/>
      <point x="543" y="608" type="curve" smooth="yes"/>
      <point x="205" y="608" type="line"/>
      <point x="205" y="983" type="line"/>
      <point x="774" y="983" type="line" smooth="yes"/>
      <point x="805" y="983"/>
      <point x="823" y="999"/>
      <point x="825" y="1034" type="curve"/>
      <point x="823" y="1069"/>
      <point x="805" y="1085"/>
      <point x="774" y="1085" type="curve" smooth="yes"/>
      <point x="154" y="1085" type="line" smooth="yes"/>
      <point x="119" y="1085"/>
      <point x="102" y="1069"/>
      <point x="102" y="1034" type="curve" smooth="yes"/>
      <point x="102" y="51" type="line" smooth="yes"/>
      <point x="102" y="16"/>
      <point x="119" y="0"/>
      <point x="154" y="0" type="curve" smooth="yes"/>
      <point x="774" y="0" type="line" smooth="yes"/>
      <point x="805" y="0"/>
      <point x="823" y="16"/>
    </contour>
    <contour>
      <point x="672" y="1169" type="curve" smooth="yes"/>
      <point x="672" y="1182"/>
      <point x="665.404" y="1193.38"/>
      <point x="655" y="1204" type="curve" smooth="yes"/>
      <point x="510" y="1352" type="line"/>
      <point x="496" y="1362"/>
      <point x="483" y="1366"/>
      <point x="475" y="1368" type="curve"/>
      <point x="438" y="1352" type="line"/>
      <point x="291" y="1204" type="line" smooth="yes"/>
      <point x="281.034" y="1193.97"/>
      <point x="274" y="1182"/>
      <point x="274" y="1169" type="curve" smooth="yes"/>
      <point x="274" y="1145"/>
      <point x="303" y="1116"/>
      <point x="328" y="1116" type="curve" smooth="yes"/>
      <point x="340" y="1116"/>
      <point x="351.535" y="1122.44"/>
      <point x="362" y="1133" type="curve" smooth="yes"/>
      <point x="473" y="1245" type="line"/>
      <point x="584" y="1133" type="line" smooth="yes"/>
      <point x="594.465" y="1122.44"/>
      <point x="606" y="1116"/>
      <point x="618" y="1116" type="curve" smooth="yes"/>
      <point x="643" y="1116"/>
      <point x="672" y="1145"/>
    </contour>
  </outline>
</glyph>
<glyph name="Idieresis" format="2">
  <advance width="717"/>
  <unicode hex="00CF"/>
  <outline>
    <contour>
      <point x="512" y="51" type="curve"/>
      <point x="510" y="86"/>
      <point x="492" y="102"/>
      <point x="461" y="102" type="curve" smooth="yes"/>
      <point x="375" y="102" type="line"/>
      <point x="375" y="1006" type="line"/>
      <point x="451" y="1006" type="line" smooth="yes"/>
      <point x="481" y="1006"/>
      <point x="500" y="1022"/>
      <point x="502" y="1057" type="curve"/>
      <point x="500" y="1092"/>
      <point x="481" y="1108"/>
      <point x="451" y="1108" type="curve" smooth="yes"/>
      <point x="176" y="1108" type="line" smooth="yes"/>
      <point x="145" y="1108"/>
      <point x="127" y="1092"/>
      <point x="125" y="1057" type="curve"/>
      <point x="127" y="1022"/>
      <point x="145" y="1006"/>
      <point x="176" y="1006" type="curve" smooth="yes"/>
      <point x="272" y="1006" type="line"/>
      <point x="272" y="102" type="line"/>
      <point x="186" y="102" type="line" smooth="yes"/>
      <point x="156" y="102"/>
      <point x="137" y="86"/>
      <point x="135" y="51" type="curve"/>
      <point x="137" y="16"/>
      <point x="156" y="0"/>
      <point x="186" y="0" type="curve" smooth="yes"/>
      <point x="461" y="0" type="line" smooth="yes"/>
      <point x="492" y="0"/>
      <point x="510" y="16"/>
    </contour>
    <contour>
      <point x="227" y="1229" type="curve" smooth="yes"/>
      <point x="227" y="1270"/>
      <point x="207" y="1290"/>
      <point x="164" y="1290" type="curve" smooth="yes"/>
      <point x="123" y="1290"/>
      <point x="102" y="1270"/>
      <point x="102" y="1229" type="curve" smooth="yes"/>
      <point x="102" y="1186"/>
      <point x="123" y="1165"/>
      <point x="164" y="1165" type="curve" smooth="yes"/>
      <point x="207" y="1165"/>
      <point x="227" y="1186"/>
    </contour>
    <contour>
      <point x="545" y="1229" type="curve" smooth="yes"/>
      <point x="545" y="1270"/>
      <point x="524" y="1290"/>
      <point x="481" y="1290" type="curve" smooth="yes"/>
      <point x="440" y="1290"/>
      <point x="420" y="1270"/>
      <point x="420" y="1229" type="curve" smooth="yes"/>
      <point x="420" y="1186"/>
      <point x="440" y="1165"/>
      <point x="481" y="1165" type="curve" smooth="yes"/>
      <point x="524" y="1165"/>
      <point x="545" y="1186"/>
    </contour>
  </outline>
</glyph>
<glyph name="Ograve" format="2">
  <advance width="1331"/>
  <unicode hex="00D2"/>
  <outline>
    <contour>
      <point x="1112" y="555" type="curve" smooth="yes"/>
      <point x="1112" y="428"/>
      <point x="1067.25" y="321.749"/>
      <point x="979" y="233" type="curve" smooth="yes"/>
      <point x="891.251" y="144.753"/>
      <point x="784" y="102"/>
      <point x="657" y="102" type="curve" smooth="yes"/>
      <point x="530" y="102"/>
      <point x="423.749" y="144.752"/>
      <point x="336" y="233" type="curve" smooth="yes"/>
      <point x="247.752" y="321.749"/>
      <point x="205" y="428"/>
      <point x="205" y="555" type="curve" smooth="yes"/>
      <point x="205" y="682"/>
      <point x="247.752" y="788.251"/>
      <point x="336" y="877" type="curve" smooth="yes"/>
      <point x="423.749" y="965.247"/>
      <point x="530" y="1010"/>
      <point x="657" y="1010" type="curve" smooth="yes"/>
      <point x="784" y="1010"/>
      <point x="891.251" y="965.248"/>
      <point x="979" y="877" type="curve" smooth="yes"/>
      <point x="1067.25" y="788.251"/>
      <point x="1112" y="682"/>
    </contour>
    <contour>
      <point x="1214" y="557" type="curve" smooth="yes"/>
      <point x="1214" y="713"/>
      <point x="1161" y="843.998"/>
      <point x="1053" y="952" type="curve" smooth="yes"/>
      <point x="943.997" y="1061"/>
      <point x="813.004" y="1114"/>
      <point x="657" y="1114" type="curve" smooth="yes"/>
      <point x="501.996" y="1114"/>
      <point x="370" y="1061.01"/>
      <point x="262" y="952" type="curve" smooth="yes"/>
      <point x="154.996" y="844"/>
      <point x="102" y="713"/>
      <point x="102" y="557" type="curve" smooth="yes"/>
      <point x="102" y="401"/>
      <point x="154.996" y="270"/>
      <point x="262" y="162" type="curve" smooth="yes"/>
      <point x="370" y="52.9942"/>
      <point x="501.995" y="0"/>
      <point x="657" y="0" type="curve" smooth="yes"/>
      <point x="813.004" y="0"/>
      <point x="943.997" y="52.9967"/>
      <point x="1053" y="162" type="curve" smooth="yes"/>
      <point x="1161" y="270.002"/>
      <point x="1214" y="401"/>
    </contour>
    <contour>
      <point x="782" y="1161" type="curve" smooth="yes"/>
      <point x="782" y="1174"/>
      <point x="776" y="1186"/>
      <point x="766" y="1196" type="curve" smooth="yes"/>
      <point x="623" y="1339" type="line" smooth="yes"/>
      <point x="611" y="1351"/>
      <point x="598" y="1356"/>
      <point x="588" y="1356" type="curve" smooth="yes"/>
      <point x="561" y="1356"/>
      <point x="535" y="1329"/>
      <point x="535" y="1303" type="curve" smooth="yes"/>
      <point x="535" y="1290"/>
      <point x="541.035" y="1278.03"/>
      <point x="551" y="1268" type="curve" smooth="yes"/>
      <point x="694" y="1124" type="line" smooth="yes"/>
      <point x="704.475" y="1113.45"/>
      <point x="717" y="1108"/>
      <point x="729" y="1108" type="curve" smooth="yes"/>
      <point x="754" y="1108"/>
      <point x="782" y="1137"/>
    </contour>
  </outline>
</glyph>
<glyph name="Odieresis" format="2">
  <advance width="1331"/>
  <unicode hex="00D6"/>
  <outline>
    <contour>
      <point x="1112" y="555" type="curve" smooth="yes"/>
      <point x="1112" y="428"/>
      <point x="1067.25" y="321.749"/>
      <point x="979" y="233" type="curve" smooth="yes"/>
      <point x="891.251" y="144.753"/>
      <point x="784" y="102"/>
      <point x="657" y="102" type="curve" smooth="yes"/>
      <point x="530" y="102"/>
      <point x="423.749" y="144.752"/>
      <point x="336" y="233" type="curve" smooth="yes"/>
      <point x="247.752" y="321.749"/>
      <point x="205" y="428"/>
      <point x="205" y="555" type="curve" smooth="yes"/>
      <point x="205" y="682"/>
      <point x="247.752" y="788.251"/>
      <point x="336" y="877" type="curve" smooth="yes"/>
      <point x="423.749" y="965.247"/>
      <point x="530" y="1010"/>
      <point x="657" y="1010" type="curve" smooth="yes"/>
      <point x="784" y="1010"/>
      <point x="891.251" y="965.248"/>
      <point x="979" y="877" type="curve" smooth="yes"/>
      <point x="1067.25" y="788.251"/>
      <point x="1112" y="682"/>
    </contour>
    <contour>
      <point x="1214" y="557" type="curve" smooth="yes"/>
      <point x="1214" y="713"/>
      <point x="1161" y="843.998"/>
      <point x="1053" y="952" type="curve" smooth="yes"/>
      <point x="943.997" y="1061"/>
      <point x="813.004" y="1114"/>
      <point x="657" y="1114" type="curve" smooth="yes"/>
      <point x="501.996" y="1114"/>
      <point x="370" y="1061.01"/>
      <point x="262" y="952" type="curve" smooth="yes"/>
      <point x="154.996" y="844"/>
      <point x="102" y="713"/>
      <point x="102" y="557" type="curve" smooth="yes"/>
      <point x="102" y="401"/>
      <point x="154.996" y="270"/>
      <point x="262" y="162" type="curve" smooth="yes"/>
      <point x="370" y="52.9942"/>
      <point x="501.995" y="0"/>
      <point x="657" y="0" type="curve" smooth="yes"/>
      <point x="813.004" y="0"/>
      <point x="943.997" y="52.9967"/>
      <point x="1053" y="162" type="curve" smooth="yes"/>
      <point x="1161" y="270.002"/>
      <point x="1214" y="401"/>
    </contour>
    <contour>
      <point x="561" y="1210" type="curve" smooth="yes"/>
      <point x="561" y="1253"/>
      <point x="541" y="1274"/>
      <point x="500" y="1274" type="curve" smooth="yes"/>
      <point x="457" y="1274"/>
      <point x="436" y="1253"/>
      <point x="436" y="1210" type="curve" smooth="yes"/>
      <point x="436" y="1169"/>
      <point x="457" y="1149"/>
      <point x="500" y="1149" type="curve" smooth="yes"/>
      <point x="541" y="1149"/>
      <point x="561" y="1169"/>
    </contour>
    <contour>
      <point x="879" y="1210" type="curve" smooth="yes"/>
      <point x="879" y="1253"/>
      <point x="858" y="1274"/>
      <point x="817" y="1274" type="curve" smooth="yes"/>
      <point x="774" y="1274"/>
      <point x="754" y="1253"/>
      <point x="754" y="1210" type="curve" smooth="yes"/>
      <point x="754" y="1169"/>
      <point x="774" y="1149"/>
      <point x="817" y="1149" type="curve" smooth="yes"/>
      <point x="858" y="1149"/>
      <point x="879" y="1169"/>
    </contour>
  </outline>
</glyph>
<glyph name="Uacute" format="2">
  <advance width="1229"/>
  <unicode hex="00DA"/>
  <outline>
    <contour>
      <point x="1065" y="1044" type="line" smooth="yes"/>
      <point x="1065" y="1075"/>
      <point x="1049" y="1094"/>
      <point x="1014" y="1096" type="curve"/>
      <point x="979" y="1094"/>
      <point x="963" y="1075"/>
      <point x="963" y="1044" type="curve" smooth="yes"/>
      <point x="963" y="479" type="line" smooth="yes"/>
      <point x="963" y="374.999"/>
      <point x="925.998" y="284.998"/>
      <point x="852" y="211" type="curve" smooth="yes"/>
      <point x="780.002" y="139.002"/>
      <point x="690.004" y="102"/>
      <point x="584" y="102" type="curve" smooth="yes"/>
      <point x="476.996" y="102"/>
      <point x="385.748" y="137.75"/>
      <point x="313" y="211" type="curve" smooth="yes"/>
      <point x="240.748" y="283.75"/>
      <point x="205" y="374.997"/>
      <point x="205" y="481" type="curve" smooth="yes"/>
      <point x="205" y="1047" type="line" smooth="yes"/>
      <point x="205" y="1077"/>
      <point x="188" y="1096"/>
      <point x="154" y="1098" type="curve"/>
      <point x="119" y="1096"/>
      <point x="102" y="1077"/>
      <point x="102" y="1047" type="curve" smooth="yes"/>
      <point x="102" y="481" type="line" smooth="yes"/>
      <point x="102" y="345.996"/>
      <point x="150" y="231"/>
      <point x="242" y="139" type="curve" smooth="yes"/>
      <point x="334" y="47"/>
      <point x="449" y="0"/>
      <point x="584" y="0" type="curve" smooth="yes"/>
      <point x="717" y="0"/>
      <point x="831.506" y="47.501"/>
      <point x="924" y="139" type="curve" smooth="yes"/>
      <point x="1017.51" y="231.501"/>
      <point x="1065" y="345.998"/>
      <point x="1065" y="479" type="curve" smooth="yes"/>
    </contour>
    <contour>
      <point x="709" y="1313" type="curve" smooth="yes"/>
      <point x="709" y="1339"/>
      <point x="682" y="1366"/>
      <point x="655" y="1366" type="curve" smooth="yes"/>
      <point x="643" y="1366"/>
      <point x="631.068" y="1359.93"/>
      <point x="621" y="1350" type="curve" smooth="yes"/>
      <point x="475" y="1206" type="line" smooth="yes"/>
      <point x="464.932" y="1196.07"/>
      <point x="459" y="1184"/>
      <point x="459" y="1171" type="curve" smooth="yes"/>
      <point x="459" y="1147"/>
      <point x="487" y="1118"/>
      <point x="512" y="1118" type="curve" smooth="yes"/>
      <point x="524" y="1118"/>
      <point x="536.415" y="1124.56"/>
      <point x="547" y="1135" type="curve" smooth="yes"/>
      <point x="692" y="1278" type="line" smooth="yes"/>
      <point x="702.585" y="1288.44"/>
      <point x="709" y="1300"/>
    </contour>
  </outline>
</glyph>
<glyph name="adieresis" format="2">
  <advance width="819"/>
  <unicode hex="00E4"/>
  <outline>
    <contour>
      <point x="614" y="342" type="curve" smooth="yes"/>
      <point x="614" y="283"/>
      <point x="594" y="229"/>
      <point x="555" y="178" type="curve" smooth="yes"/>
      <point x="516" y="127"/>
      <point x="467" y="102"/>
      <point x="410" y="102" type="curve" smooth="yes"/>
      <point x="352" y="102"/>
      <point x="303" y="127"/>
      <point x="264" y="178" type="curve" smooth="yes"/>
      <point x="225" y="229"/>
      <point x="205" y="283"/>
      <point x="205" y="342" type="curve" smooth="yes"/>
      <point x="205" y="401"/>
      <point x="225" y="455"/>
      <point x="264" y="506" type="curve" smooth="yes"/>
      <point x="303" y="557"/>
      <point x="352" y="582"/>
      <point x="410" y="582" type="curve" smooth="yes"/>
      <point x="469" y="582"/>
      <point x="518.249" y="555.2"/>
      <point x="559" y="504" type="curve" smooth="yes"/>
      <point x="596.251" y="457.197"/>
      <point x="614" y="401"/>
    </contour>
    <contour>
      <point x="719" y="633" type="line" smooth="yes"/>
      <point x="719" y="664"/>
      <point x="702" y="682"/>
      <point x="668" y="684" type="curve"/>
      <point x="633" y="682"/>
      <point x="616" y="664"/>
      <point x="616" y="633" type="curve" smooth="yes"/>
      <point x="616" y="592" type="line"/>
      <point x="557" y="653"/>
      <point x="489" y="684"/>
      <point x="410" y="684" type="curve" smooth="yes"/>
      <point x="322" y="684"/>
      <point x="247.451" y="649.613"/>
      <point x="188" y="580" type="curve" smooth="yes"/>
      <point x="130.451" y="512.614"/>
      <point x="102" y="432"/>
      <point x="102" y="342" type="curve" smooth="yes" name=".hr01"/>
      <point x="102" y="252"/>
      <point x="130.86" y="173.884"/>
      <point x="188" y="106" type="curve" smooth="yes"/>
      <point x="247.862" y="34.8812"/>
      <point x="322" y="0"/>
      <point x="410" y="0" type="curve" smooth="yes"/>
      <point x="489" y="0"/>
      <point x="557" y="31"/>
      <point x="616" y="92" type="curve"/>
      <point x="616" y="51" type="line" smooth="yes"/>
      <point x="616" y="20"/>
      <point x="633" y="2"/>
      <point x="668" y="0" type="curve"/>
      <point x="702" y="2"/>
      <point x="719" y="20"/>
      <point x="719" y="51" type="curve" smooth="yes"/>
    </contour>
    <contour>
      <point x="303" y="856" type="curve" smooth="yes"/>
      <point x="303" y="897" name=".hr02"/>
      <point x="283" y="918"/>
      <point x="242" y="918" type="curve" smooth="yes"/>
      <point x="199" y="918"/>
      <point x="178" y="897"/>
      <point x="178" y="856" type="curve" smooth="yes"/>
      <point x="178" y="813"/>
      <point x="199" y="793"/>
      <point x="242" y="793" type="curve" smooth="yes"/>
      <point x="283" y="793"/>
      <point x="303" y="813"/>
    </contour>
    <contour>
      <point x="621" y="856" type="curve" smooth="yes"/>
      <point x="621" y="897"/>
      <point x="600" y="918"/>
      <point x="559" y="918" type="curve" smooth="yes"/>
      <point x="516" y="918"/>
      <point x="496" y="897"/>
      <point x="496" y="856" type="curve" smooth="yes"/>
      <point x="496" y="813"/>
      <point x="516" y="793"/>
      <point x="559" y="793" type="curve" smooth="yes"/>
      <point x="600" y="793"/>
      <point x="621" y="813"/>
    </contour>
  </outline>
</glyph>
<glyph name="ccedilla" format="2">
  <advance width="819"/>
  <unicode hex="00E7"/>
  <outline>
    <contour>
      <point x="680" y="182" type="curve" smooth="yes"/>
      <point x="695.134" y="212.936"/>
      <point x="685.914" y="235.81"/>
      <point x="655" y="250" type="curve" smooth="yes"/>
      <point x="624.913" y="263.811"/>
      <point x="601.993" y="256.004"/>
      <point x="588" y="225" type="curve" smooth="yes"/>
      <point x="550.991" y="143"/>
      <point x="492" y="102"/>
      <point x="410" y="102" type="curve" smooth="yes"/>
      <point x="352" y="102"/>
      <point x="303" y="127"/>
      <point x="264" y="178" type="curve" smooth="yes"/>
      <point x="225" y="229"/>
      <point x="205" y="283"/>
      <point x="205" y="342" type="curve" smooth="yes"/>
      <point x="205" y="401"/>
      <point x="225" y="455"/>
      <point x="264" y="506" type="curve" smooth="yes"/>
      <point x="303" y="557"/>
      <point x="352" y="582"/>
      <point x="410" y="582" type="curve" smooth="yes"/>
      <point x="467" y="582"/>
      <point x="521.595" y="548.685"/>
      <point x="573" y="483" type="curve" smooth="yes"/>
      <point x="593.597" y="456.681"/>
      <point x="618.953" y="454.06"/>
      <point x="645" y="475" type="curve" smooth="yes"/>
      <point x="669.951" y="495.059"/>
      <point x="671.733" y="519.815"/>
      <point x="653" y="547" type="curve" smooth="yes"/>
      <point x="589.732" y="638.816"/>
      <point x="508" y="684"/>
      <point x="410" y="684" type="curve" smooth="yes"/>
      <point x="322" y="684"/>
      <point x="247.451" y="649.613"/>
      <point x="188" y="580" type="curve" smooth="yes"/>
      <point x="130.451" y="512.614"/>
      <point x="102" y="432"/>
      <point x="102" y="342" type="curve" smooth="yes"/>
      <point x="102" y="262"/>
      <point x="126.082" y="188.062"/>
      <point x="176" y="121" type="curve" smooth="yes"/>
      <point x="225.082" y="55.0618"/>
      <point x="289" y="16"/>
      <point x="365" y="4" type="curve"/>
      <point x="338" y="-125" type="line"/>
      <point x="410" y="-123" type="line" smooth="yes"/>
      <point x="460.991" y="-121.584"/>
      <point x="488.868" y="-143.011"/>
      <point x="492" y="-190" type="curve" smooth="yes"/>
      <point x="494.867" y="-233.01"/>
      <point x="465.062" y="-268.464"/>
      <point x="422" y="-274" type="curve" smooth="yes"/>
      <point x="395.056" y="-277.464"/>
      <point x="373" y="-266"/>
      <point x="354" y="-246" type="curve"/>
      <point x="307" y="-307" type="line"/>
      <point x="346" y="-340"/>
      <point x="386.995" y="-353.939"/>
      <point x="430" y="-350" type="curve" smooth="yes"/>
      <point x="517.994" y="-341.939"/>
      <point x="573.606" y="-268.032"/>
      <point x="567" y="-186" type="curve" smooth="yes"/>
      <point x="561.607" y="-119.032"/>
      <point x="510" y="-55"/>
      <point x="438" y="-49" type="curve"/>
      <point x="449" y="2" type="line" name=".hr01"/>
      <point x="549" y="14"/>
      <point x="627.135" y="73.9378"/>
    </contour>
  </outline>
</glyph>
<glyph name="iacute" format="2">
  <advance width="614"/>
  <unicode hex="00ED"/>
  <outline>
    <contour>
      <point x="211" y="633" type="line" smooth="yes"/>
      <point x="211" y="664"/>
      <point x="195" y="682"/>
      <point x="160" y="684" type="curve"/>
      <point x="125" y="682"/>
      <point x="109" y="664"/>
      <point x="109" y="633" type="curve" smooth="yes"/>
      <point x="109" y="51" type="line" smooth="yes"/>
      <point x="109" y="20"/>
      <point x="125" y="2"/>
      <point x="160" y="0" type="curve"/>
      <point x="195" y="2"/>
      <point x="211" y="20"/>
      <point x="211" y="51" type="curve" smooth="yes"/>
    </contour>
    <contour>
      <point x="440" y="1004" type="curve" smooth="yes"/>
      <point x="440" y="1030"/>
      <point x="414" y="1057"/>
      <point x="387" y="1057" type="curve" smooth="yes"/>
      <point x="375" y="1057"/>
      <point x="363" y="1051"/>
      <point x="352" y="1040" type="curve" smooth="yes"/>
      <point x="119" y="807" type="line" smooth="yes"/>
      <point x="109" y="797"/>
      <point x="102" y="784"/>
      <point x="102" y="772" type="curve" smooth="yes"/>
      <point x="102" y="748"/>
      <point x="131" y="719"/>
      <point x="156" y="719" type="curve" smooth="yes"/>
      <point x="168" y="719"/>
      <point x="180" y="725"/>
      <point x="190" y="735" type="curve" smooth="yes"/>
      <point x="424" y="969" type="line" smooth="yes"/>
      <point x="434" y="979"/>
      <point x="440" y="991"/>
    </contour>
  </outline>
</glyph>
<glyph name="odieresis" format="2">
  <advance width="819"/>
  <unicode hex="00F6"/>
  <outline>
    <contour>
      <point x="614" y="342" type="curve" smooth="yes"/>
      <point x="614" y="283"/>
      <point x="594" y="229"/>
      <point x="555" y="178" type="curve" smooth="yes"/>
      <point x="516" y="127"/>
      <point x="467" y="102"/>
      <point x="410" y="102" type="curve" smooth="yes"/>
      <point x="352" y="102"/>
      <point x="303" y="127"/>
      <point x="264" y="178" type="curve" smooth="yes"/>
      <point x="225" y="229"/>
      <point x="205" y="283"/>
      <point x="205" y="342" type="curve" smooth="yes"/>
      <point x="205" y="401"/>
      <point x="225" y="455"/>
      <point x="264" y="506" type="curve" smooth="yes"/>
      <point x="303" y="557"/>
      <point x="352" y="582"/>
      <point x="410" y="582" type="curve" smooth="yes"/>
      <point x="469" y="582"/>
      <point x="518.249" y="555.2"/>
      <point x="559" y="504" type="curve" smooth="yes"/>
      <point x="596.251" y="457.197"/>
      <point x="614" y="401"/>
    </contour>
    <contour>
      <point x="717" y="342" type="curve" smooth="yes"/>
      <point x="717" y="434"/>
      <point x="688.236" y="512.196"/>
      <point x="633" y="578" type="curve" smooth="yes"/>
      <point x="573.235" y="649.199"/>
      <point x="500" y="684"/>
      <point x="410" y="684" type="curve" smooth="yes"/>
      <point x="322" y="684"/>
      <point x="247.451" y="649.613"/>
      <point x="188" y="580" type="curve" smooth="yes"/>
      <point x="130.451" y="512.614"/>
      <point x="102" y="432"/>
      <point x="102" y="342" type="curve" smooth="yes" name=".hr01"/>
      <point x="102" y="252"/>
      <point x="130.86" y="173.884"/>
      <point x="188" y="106" type="curve" smooth="yes"/>
      <point x="247.862" y="34.8812" name=".hr02"/>
      <point x="322" y="0"/>
      <point x="410" y="0" type="curve" smooth="yes"/>
      <point x="498" y="0"/>
      <point x="571.137" y="34.8812"/>
      <point x="631" y="106" type="curve" smooth="yes"/>
      <point x="688.14" y="173.884"/>
      <point x="717" y="252"/>
    </contour>
    <contour>
      <point x="313" y="856" type="curve" smooth="yes"/>
      <point x="313" y="897"/>
      <point x="293" y="918"/>
      <point x="252" y="918" type="curve" smooth="yes"/>
      <point x="209" y="918"/>
      <point x="188" y="897"/>
      <point x="188" y="856" type="curve" smooth="yes"/>
      <point x="188" y="813"/>
      <point x="209" y="793"/>
      <point x="252" y="793" type="curve" smooth="yes"/>
      <point x="293" y="793"/>
      <point x="313" y="813"/>
    </contour>
    <contour>
      <point x="631" y="856" type="curve" smooth="yes"/>
      <point x="631" y="897"/>
      <point x="610" y="918"/>
      <point x="567" y="918" type="curve" smooth="yes"/>
      <point x="526" y="918"/>
      <point x="506" y="897"/>
      <point x="506" y="856" type="curve" smooth="yes"/>
      <point x="506" y="813"/>
      <point x="526" y="793"/>
      <point x="567" y="793" type="curve" smooth="yes"/>
      <point x="610" y="793"/>
      <point x="631" y="813"/>
    </contour>
  </outline>
</glyph>
<glyph name="udieresis" format="2">
  <advance width="819"/>
  <unicode hex="00FC"/>
  <outline>
    <contour>
      <point x="645" y="633" type="line" smooth="yes"/>
      <point x="645" y="664"/>
      <point x="629" y="682"/>
      <point x="594" y="684" type="curve" name=".hr01"/>
      <point x="559" y="682"/>
      <point x="543" y="664" name=".hr02"/>
      <point x="543" y="633" type="curve" smooth="yes"/>
      <point x="543" y="223" type="line"/>
      <point x="520" y="143"/>
      <point x="465.004" y="102"/>
      <point x="373" y="102" type="curve" smooth="yes"/>
      <point x="275.996" y="102"/>
      <point x="219" y="143"/>
      <point x="205" y="223" type="curve"/>
      <point x="205" y="631" type="line" smooth="yes"/>
      <point x="205" y="662"/>
      <point x="188" y="680"/>
      <point x="154" y="682" type="curve"/>
      <point x="119" y="680"/>
      <point x="102" y="662.002" name=".hr03"/>
      <point x="102" y="631" type="curve" smooth="yes"/>
      <point x="102" y="252" type="line" smooth="yes"/>
      <point x="102" y="89.9897"/>
      <point x="209" y="0"/>
      <point x="373" y="0" type="curve" smooth="yes"/>
      <point x="449" y="0"/>
      <point x="506" y="18"/>
      <point x="543" y="53" type="curve"/>
      <point x="543" y="51" type="line" smooth="yes"/>
      <point x="543" y="16"/>
      <point x="559" y="0"/>
      <point x="594" y="0" type="curve" smooth="yes" name=".hr04"/>
      <point x="629" y="0"/>
      <point x="645" y="16" name=".hr05"/>
      <point x="645" y="51" type="curve" smooth="yes"/>
    </contour>
    <contour>
      <point x="276" y="856" type="curve" smooth="yes"/>
      <point x="276" y="897"/>
      <point x="256" y="918"/>
      <point x="215" y="918" type="curve" smooth="yes"/>
      <point x="174" y="918"/>
      <point x="154" y="897"/>
      <point x="154" y="856" type="curve" smooth="yes"/>
      <point x="154" y="813"/>
      <point x="174" y="793"/>
      <point x="215" y="793" type="curve" smooth="yes"/>
      <point x="256" y="793"/>
      <point x="276" y="813"/>
    </contour>
    <contour>
      <point x="594" y="856" type="curve" smooth="yes"/>
      <point x="594" y="897" name=".hr06"/>
      <point x="573" y="918"/>
      <point x="532" y="918" type="curve" smooth="yes"/>
      <point x="492" y="918"/>
      <point x="471" y="897"/>
      <point x="471" y="856" type="curve" smooth="yes"/>
      <point x="471" y="813"/>
      <point x="492" y="793"/>
      <point x="532" y="793" type="curve" smooth="yes"/>
      <point x="573" y="793"/>
      <point x="594" y="813"/>
    </contour>
  </outline>
</glyph>
<glyph name="OE" format="2">
  <advance width="2253"/>
  <unicode hex="0152"/>
  <outline>
    <contour>
      <point x="1192" y="266" type="line"/>
      <point x="1079" y="158"/>
      <point x="944.004" y="102"/>
      <point x="784" y="102" type="curve" smooth="yes"/>
      <point x="622.996" y="102"/>
      <point x="485.002" y="157.998"/>
      <point x="373" y="270" type="curve" smooth="yes"/>
      <point x="259.997" y="383.003"/>
      <point x="205" y="520"/>
      <point x="205" y="682" type="curve" smooth="yes"/>
      <point x="205" y="844"/>
      <point x="259.997" y="980.997"/>
      <point x="373" y="1094" type="curve" smooth="yes"/>
      <point x="485.002" y="1206"/>
      <point x="622.996" y="1262"/>
      <point x="784" y="1262" type="curve" smooth="yes"/>
      <point x="944.004" y="1262"/>
      <point x="1079" y="1206"/>
      <point x="1192" y="1098" type="curve"/>
    </contour>
    <contour>
      <point x="2071" y="51" type="curve"/>
      <point x="2068" y="86"/>
      <point x="2050" y="102"/>
      <point x="2019" y="102" type="curve" smooth="yes"/>
      <point x="1294" y="102" type="line"/>
      <point x="1294" y="633" type="line"/>
      <point x="1729" y="633" type="line" smooth="yes"/>
      <point x="1759" y="633"/>
      <point x="1778" y="649"/>
      <point x="1780" y="684" type="curve"/>
      <point x="1778" y="719"/>
      <point x="1759" y="735"/>
      <point x="1729" y="735" type="curve" smooth="yes"/>
      <point x="1294" y="735" type="line"/>
      <point x="1294" y="1229" type="line" name=".hr01"/>
      <point x="2019" y="1229" type="line" smooth="yes"/>
      <point x="2050" y="1229"/>
      <point x="2068" y="1245"/>
      <point x="2071" y="1280" type="curve"/>
      <point x="2068" y="1315"/>
      <point x="2050" y="1331"/>
      <point x="2019" y="1331" type="curve" smooth="yes"/>
      <point x="1243" y="1331" type="line" smooth="yes"/>
      <point x="1208" y="1331"/>
      <point x="1192" y="1315"/>
      <point x="1192" y="1280" type="curve" smooth="yes"/>
      <point x="1192" y="1235" type="line"/>
      <point x="1071" y="1323"/>
      <point x="936" y="1366" name=".hr02"/>
      <point x="784" y="1366" type="curve" smooth="yes"/>
      <point x="594" y="1366"/>
      <point x="432.001" y="1300"/>
      <point x="299" y="1167" type="curve" smooth="yes"/>
      <point x="168.001" y="1036"/>
      <point x="102" y="874"/>
      <point x="102" y="684" type="curve" smooth="yes"/>
      <point x="102" y="494"/>
      <point x="167.245" y="331.252"/>
      <point x="299" y="199" type="curve" smooth="yes"/>
      <point x="432.251" y="65.2462"/>
      <point x="594" y="0"/>
      <point x="784" y="0" type="curve" smooth="yes"/>
      <point x="936" y="0"/>
      <point x="1071" y="43"/>
      <point x="1192" y="131" type="curve"/>
      <point x="1192" y="51" type="line" smooth="yes"/>
      <point x="1192" y="16"/>
      <point x="1208" y="0"/>
      <point x="1243" y="0" type="curve" smooth="yes"/>
      <point x="2019" y="0" type="line" smooth="yes"/>
      <point x="2050" y="0"/>
      <point x="2068" y="16"/>
    </contour>
  </outline>
</glyph>
<glyph name="uni1200" format="2">
  <advance width="900"/>
  <unicode hex="1200"/>
  <outline>
    <contour>
      <point x="771.277" y="1146.47" type="curve" smooth="yes"/>
      <point x="878.555" y="957.437"/>
      <point x="785.79" y="581.22"/>
      <point x="715.161" y="419.43" type="curve" smooth="yes"/>
      <point x="621.598" y="205.104"/>
      <point x="462.666" y="2.04796"/>
      <point x="310.886" y="2.04796" type="curve" smooth="yes"/>
      <point x="128.962" y="2.04796"/>
      <point x="2.90846" y="166.642"/>
      <point x="34.816" y="330.957" type="curve" smooth="yes"/>
      <point x="179.814" y="1077.66" type="line" smooth="yes"/>
      <point x="186.558" y="1112.38"/>
      <point x="218.09" y="1124.91"/>
      <point x="243.917" y="1120.26" type="curve" smooth="yes"/>
      <point x="269.735" y="1115.61"/>
      <point x="294.686" y="1092.91"/>
      <point x="287.949" y="1058.2" type="curve" smooth="yes"/>
      <point x="142.95" y="311.296" type="line" smooth="yes"/>
      <point x="123.164" y="209.372"/>
      <point x="200.206" y="108.339"/>
      <point x="310.886" y="108.339" type="curve" smooth="yes"/>
      <point x="381.69" y="108.339"/>
      <point x="515.963" y="236.718"/>
      <point x="613.785" y="460.8" type="curve" smooth="yes"/>
      <point x="683.778" y="621.132"/>
      <point x="734.448" y="859.739"/>
      <point x="699.187" y="1033.22" type="curve" smooth="yes"/>
      <point x="695.472" y="1051.5"/>
      <point x="688.835" y="1070.57"/>
      <point x="674.816" y="1095.27" type="curve" smooth="yes"/>
      <point x="657.242" y="1126.24"/>
      <point x="673.5" y="1155.14"/>
      <point x="696.525" y="1167.36" type="curve" smooth="yes"/>
      <point x="719.553" y="1179.58"/>
      <point x="753.701" y="1177.44"/>
    </contour>
  </outline>
</glyph>
<glyph name="uni1201" format="2">
  <advance width="1291"/>
  <unicode hex="1201"/>
  <outline>
    <contour>
      <point x="1210.98" y="732.979" type="curve" smooth="yes"/>
      <point x="1210.98" y="703.925"/>
      <point x="1186.14" y="678.912"/>
      <point x="1156.1" y="678.912" type="curve" smooth="yes"/>
      <point x="794.01" y="678.912" type="line"/>
      <point x="773.204" y="576.994"/>
      <point x="742.935" y="483.051"/>
      <point x="715.162" y="419.43" type="curve" smooth="yes"/>
      <point x="621.61" y="205.131"/>
      <point x="462.666" y="2.04799"/>
      <point x="310.887" y="2.04799" type="curve" smooth="yes"/>
      <point x="128.962" y="2.04799"/>
      <point x="2.91182" y="166.658"/>
      <point x="34.8161" y="330.957" type="curve" smooth="yes"/>
      <point x="179.815" y="1077.66" type="line" smooth="yes"/>
      <point x="186.558" y="1112.38"/>
      <point x="218.09" y="1124.91"/>
      <point x="243.917" y="1120.26" type="curve" smooth="yes"/>
      <point x="269.736" y="1115.61"/>
      <point x="294.687" y="1092.91"/>
      <point x="287.949" y="1058.2" type="curve" smooth="yes"/>
      <point x="142.951" y="311.296" type="line" smooth="yes"/>
      <point x="123.169" y="209.395"/>
      <point x="200.188" y="108.339"/>
      <point x="310.887" y="108.339" type="curve" smooth="yes"/>
      <point x="381.704" y="108.339"/>
      <point x="515.954" y="236.696"/>
      <point x="613.786" y="460.8" type="curve" smooth="yes"/>
      <point x="683.793" y="621.167"/>
      <point x="734.444" y="859.755"/>
      <point x="699.187" y="1033.22" type="curve" smooth="yes"/>
      <point x="695.472" y="1051.49"/>
      <point x="688.834" y="1070.57"/>
      <point x="674.816" y="1095.27" type="curve" smooth="yes"/>
      <point x="657.246" y="1126.23"/>
      <point x="673.499" y="1155.14"/>
      <point x="696.525" y="1167.36" type="curve" smooth="yes"/>
      <point x="719.555" y="1179.58"/>
      <point x="753.701" y="1177.44"/>
      <point x="771.277" y="1146.47" type="curve" smooth="yes"/>
      <point x="823.942" y="1053.67"/>
      <point x="828.035" y="916.926"/>
      <point x="811.623" y="785.203" type="curve"/>
      <point x="1156.1" y="785.203" type="line" smooth="yes"/>
      <point x="1185.38" y="785.203"/>
      <point x="1210.98" y="762.755"/>
    </contour>
  </outline>
</glyph>
<glyph name="uni1202" format="2">
  <advance width="900"/>
  <unicode hex="1202"/>
  <outline>
    <contour>
      <point x="820.019" y="53.4528" type="curve" smooth="yes"/>
      <point x="820.019" y="23.6683"/>
      <point x="795.414" y="-1.096"/>
      <point x="764.928" y="-1.024" type="curve" smooth="yes"/>
      <point x="331.776" y="0" type="line" smooth="yes"/>
      <point x="302.924" y="0.068"/>
      <point x="275.865" y="22.2537"/>
      <point x="275.865" y="55.9105" type="curve"/>
      <point x="464.077" y="790.937" type="line"/>
      <point x="412.04" y="762.342"/>
      <point x="350.511" y="746.701"/>
      <point x="279.961" y="746.701" type="curve" smooth="yes"/>
      <point x="93.5242" y="746.701"/>
      <point x="27.977" y="906.063"/>
      <point x="30.1055" y="1065.57" type="curve" smooth="yes"/>
      <point x="33.3825" y="1311.13" type="line" smooth="yes"/>
      <point x="33.8558" y="1346.6"/>
      <point x="62.844" y="1364.42"/>
      <point x="89.088" y="1364.17" type="curve" smooth="yes"/>
      <point x="115.364" y="1363.93"/>
      <point x="143.834" y="1345.65"/>
      <point x="143.36" y="1310.11" type="curve" smooth="yes"/>
      <point x="140.083" y="1064.35" type="line" smooth="yes"/>
      <point x="138.544" y="948.873"/>
      <point x="175.391" y="853.606"/>
      <point x="279.962" y="853.606" type="curve" smooth="yes"/>
      <point x="408.133" y="853.606"/>
      <point x="475.024" y="898.058"/>
      <point x="522.24" y="1017.86" type="curve"/>
      <point x="609.485" y="1359.05" type="line" smooth="yes"/>
      <point x="616.554" y="1386.7"/>
      <point x="645.488" y="1404.9"/>
      <point x="675.226" y="1398.58" type="curve" smooth="yes"/>
      <point x="698.266" y="1393.68"/>
      <point x="721.625" y="1370.27"/>
      <point x="716.391" y="1349.63" type="curve" smooth="yes"/>
      <point x="401.408" y="107.725" type="line"/>
      <point x="764.928" y="106.906" type="line" smooth="yes"/>
      <point x="794.886" y="106.838"/>
      <point x="820.019" y="82.7093"/>
    </contour>
  </outline>
</glyph>
<glyph name="uni1203" format="2">
  <advance width="799"/>
  <unicode hex="1203"/>
  <outline>
    <contour>
      <point x="717.209" y="1337.14" type="curve" smooth="yes"/>
      <point x="384.205" y="36.2495" type="line" smooth="yes"/>
      <point x="375.538" y="2.39401"/>
      <point x="343.816" y="-9.74649"/>
      <point x="318.259" y="-5.11999" type="curve" smooth="yes"/>
      <point x="292.187" y="-0.400238"/>
      <point x="267.496" y="22.8568"/>
      <point x="276.48" y="57.9585" type="curve" smooth="yes"/>
      <point x="464.077" y="790.938" type="line"/>
      <point x="412.04" y="762.339"/>
      <point x="350.511" y="746.701"/>
      <point x="279.961" y="746.701" type="curve" smooth="yes"/>
      <point x="93.5242" y="746.701"/>
      <point x="27.9785" y="906.049"/>
      <point x="30.1055" y="1065.57" type="curve" smooth="yes"/>
      <point x="33.3825" y="1311.33" type="line" smooth="yes"/>
      <point x="33.8555" y="1346.81"/>
      <point x="62.844" y="1364.42"/>
      <point x="89.088" y="1364.17" type="curve" smooth="yes"/>
      <point x="115.364" y="1363.93"/>
      <point x="143.834" y="1345.66"/>
      <point x="143.36" y="1310.11" type="curve" smooth="yes"/>
      <point x="140.083" y="1064.35" type="line" smooth="yes"/>
      <point x="138.544" y="948.865"/>
      <point x="175.392" y="853.607"/>
      <point x="279.961" y="853.607" type="curve" smooth="yes"/>
      <point x="408.131" y="853.607"/>
      <point x="475.024" y="898.044"/>
      <point x="522.24" y="1017.86" type="curve"/>
      <point x="609.485" y="1359.05" type="line" smooth="yes"/>
      <point x="618.142" y="1392.91"/>
      <point x="649.874" y="1404.84"/>
      <point x="675.43" y="1400.22" type="curve" smooth="yes"/>
      <point x="701.503" y="1395.5"/>
      <point x="726.194" y="1372.24"/>
    </contour>
  </outline>
</glyph>
<glyph name="uni1204" format="2">
  <advance width="799"/>
  <unicode hex="1204"/>
  <outline>
    <contour>
      <point x="717.209" y="1337.14" type="curve" smooth="yes"/>
      <point x="469.811" y="366.592" type="line"/>
      <point x="486.121" y="371.014"/>
      <point x="503.265" y="373.35"/>
      <point x="521.011" y="373.35" type="curve" smooth="yes"/>
      <point x="627.053" y="373.35"/>
      <point x="712.909" y="289.675"/>
      <point x="712.909" y="186.573" type="curve" smooth="yes"/>
      <point x="712.909" y="83.4705"/>
      <point x="627.051" y="0"/>
      <point x="521.011" y="0" type="curve" smooth="yes"/>
      <point x="455.779" y="0"/>
      <point x="397.022" y="31.982"/>
      <point x="362.291" y="81.1008" type="curve"/>
      <point x="317.044" y="128.023"/>
      <point x="324.946" y="228.383"/>
      <point x="328.909" y="258.253" type="curve" smooth="yes"/>
      <point x="329.323" y="261.378"/>
      <point x="329.665" y="264.628"/>
      <point x="330.547" y="268.083" type="curve" smooth="yes"/>
      <point x="464.077" y="791.142" type="line"/>
      <point x="412.035" y="762.538"/>
      <point x="350.52" y="746.701"/>
      <point x="279.961" y="746.701" type="curve" smooth="yes"/>
      <point x="93.5222" y="746.701"/>
      <point x="27.9787" y="906.065"/>
      <point x="30.1054" y="1065.57" type="curve" smooth="yes"/>
      <point x="33.3824" y="1311.33" type="line" smooth="yes"/>
      <point x="33.8551" y="1346.8"/>
      <point x="62.8439" y="1364.42"/>
      <point x="89.0879" y="1364.17" type="curve" smooth="yes"/>
      <point x="115.364" y="1363.93"/>
      <point x="143.834" y="1345.65"/>
      <point x="143.36" y="1310.11" type="curve" smooth="yes"/>
      <point x="140.083" y="1064.35" type="line" smooth="yes"/>
      <point x="138.544" y="948.881"/>
      <point x="175.389" y="853.606"/>
      <point x="279.961" y="853.606" type="curve" smooth="yes"/>
      <point x="408.126" y="853.606"/>
      <point x="475.024" y="898.058"/>
      <point x="522.24" y="1017.86" type="curve"/>
      <point x="609.485" y="1359.05" type="line" smooth="yes"/>
      <point x="618.138" y="1392.9"/>
      <point x="649.868" y="1404.84"/>
      <point x="675.43" y="1400.22" type="curve" smooth="yes"/>
      <point x="701.513" y="1395.5"/>
      <point x="726.155" y="1372.23"/>
    </contour>
    <contour>
      <point x="602.931" y="186.573" type="curve" smooth="yes"/>
      <point x="602.931" y="231.127"/>
      <point x="566.094" y="266.445"/>
      <point x="521.011" y="266.445" type="curve" smooth="yes"/>
      <point x="475.929" y="266.445"/>
      <point x="438.887" y="231.127"/>
      <point x="438.887" y="186.573" type="curve" smooth="yes"/>
      <point x="438.887" y="143.115"/>
      <point x="475.8" y="107.93"/>
      <point x="521.011" y="107.93" type="curve" smooth="yes"/>
      <point x="566.223" y="107.93"/>
      <point x="602.931" y="143.115"/>
    </contour>
  </outline>
</glyph>
<glyph name="uni1205" format="2">
  <advance width="1028"/>
  <unicode hex="1205"/>
  <outline>
    <contour>
      <point x="898.867" y="1144.42" type="curve" smooth="yes"/>
      <point x="1006.14" y="955.394"/>
      <point x="913.394" y="579.208"/>
      <point x="842.752" y="417.382" type="curve" smooth="yes"/>
      <point x="749.201" y="203.077"/>
      <point x="590.458" y="0"/>
      <point x="438.682" y="0" type="curve" smooth="yes"/>
      <point x="256.961" y="0"/>
      <point x="129.091" y="164.725"/>
      <point x="162.611" y="329.114" type="curve" smooth="yes"/>
      <point x="216.064" y="591.258" type="line"/>
      <point x="84.992" y="591.258" type="line" smooth="yes"/>
      <point x="54.622" y="591.258"/>
      <point x="30.1055" y="615.13"/>
      <point x="30.1055" y="644.506" type="curve" smooth="yes"/>
      <point x="30.1055" y="648.192" type="line" smooth="yes"/>
      <point x="30.1055" y="650.338"/>
      <point x="30.1905" y="652.451"/>
      <point x="30.5153" y="654.541" type="curve" smooth="yes"/>
      <point x="74.3425" y="936.551" type="line" smooth="yes"/>
      <point x="79.7683" y="971.464"/>
      <point x="110.846" y="985.147"/>
      <point x="136.807" y="981.402" type="curve" smooth="yes"/>
      <point x="162.784" y="977.654"/>
      <point x="188.509" y="955.926"/>
      <point x="183.091" y="920.986" type="curve" smooth="yes"/>
      <point x="148.48" y="697.754" type="line"/>
      <point x="272.999" y="697.754" type="line" smooth="yes"/>
      <point x="309.104" y="697.754"/>
      <point x="345.23" y="676.823"/>
      <point x="335.667" y="629.76" type="curve" smooth="yes"/>
      <point x="270.541" y="309.248" type="line" smooth="yes"/>
      <point x="249.948" y="207.901"/>
      <point x="327.799" y="106.291"/>
      <point x="438.682" y="106.291" type="curve" smooth="yes"/>
      <point x="509.507" y="106.291"/>
      <point x="643.765" y="234.676"/>
      <point x="741.581" y="458.752" type="curve" smooth="yes"/>
      <point x="811.589" y="619.125"/>
      <point x="862.039" y="857.657"/>
      <point x="826.778" y="1031.17" type="curve" smooth="yes"/>
      <point x="823.062" y="1049.45"/>
      <point x="816.422" y="1068.52"/>
      <point x="802.407" y="1093.22" type="curve" smooth="yes"/>
      <point x="784.837" y="1124.19"/>
      <point x="801.085" y="1153.29"/>
      <point x="824.115" y="1165.52" type="curve" smooth="yes"/>
      <point x="847.15" y="1177.75"/>
      <point x="881.291" y="1175.4"/>
    </contour>
  </outline>
</glyph>
<glyph name="uni1206" format="2">
  <advance width="1184"/>
  <unicode hex="1206"/>
  <outline>
    <contour>
      <point x="1103.87" y="1103.87" type="curve" smooth="yes"/>
      <point x="1103.87" y="1001.02"/>
      <point x="1018.02" y="917.504"/>
      <point x="911.974" y="917.504" type="curve" smooth="yes"/>
      <point x="878.572" y="917.504"/>
      <point x="846.653" y="928.567"/>
      <point x="819.609" y="943.718" type="curve"/>
      <point x="825.708" y="758.115"/>
      <point x="765.865" y="537.153"/>
      <point x="715.161" y="420.659" type="curve" smooth="yes"/>
      <point x="621.608" y="205.716"/>
      <point x="462.665" y="2.04794"/>
      <point x="310.886" y="2.04794" type="curve" smooth="yes"/>
      <point x="128.947" y="2.04794"/>
      <point x="2.9282" y="167.022"/>
      <point x="34.816" y="331.776" type="curve" smooth="yes"/>
      <point x="179.814" y="1080.93" type="line" smooth="yes"/>
      <point x="186.556" y="1115.77"/>
      <point x="218.09" y="1128.2"/>
      <point x="243.917" y="1123.53" type="curve" smooth="yes"/>
      <point x="269.735" y="1118.87"/>
      <point x="294.688" y="1096.08"/>
      <point x="287.949" y="1061.27" type="curve" smooth="yes"/>
      <point x="142.95" y="312.32" type="line" smooth="yes"/>
      <point x="123.177" y="210.186"/>
      <point x="200.205" y="108.749"/>
      <point x="310.886" y="108.749" type="curve" smooth="yes"/>
      <point x="381.711" y="108.749"/>
      <point x="516.005" y="237.374"/>
      <point x="613.785" y="462.029" type="curve" smooth="yes"/>
      <point x="669.965" y="591.103"/>
      <point x="709.639" y="781.703"/>
      <point x="709.837" y="939.827" type="curve" smooth="yes"/>
      <point x="710.041" y="1103.87" type="line" smooth="yes"/>
      <point x="710.171" y="1208.07"/>
      <point x="807.388" y="1290.04"/>
      <point x="911.974" y="1290.04" type="curve" smooth="yes"/>
      <point x="1018.02" y="1290.04"/>
      <point x="1103.87" y="1206.72"/>
    </contour>
    <contour>
      <point x="993.894" y="1103.87" type="curve" smooth="yes"/>
      <point x="993.894" y="1147.47"/>
      <point x="956.929" y="1183.33"/>
      <point x="911.974" y="1183.33" type="curve" smooth="yes"/>
      <point x="867.02" y="1183.33"/>
      <point x="830.054" y="1147.47"/>
      <point x="830.054" y="1103.87" type="curve" smooth="yes"/>
      <point x="830.054" y="1060.27"/>
      <point x="867.02" y="1024.2"/>
      <point x="911.974" y="1024.2" type="curve" smooth="yes"/>
      <point x="956.929" y="1024.2"/>
      <point x="993.894" y="1060.27"/>
    </contour>
  </outline>
</glyph>
<glyph name="uni1207" format="2">
  <advance width="1502"/>
  <unicode hex="1207"/>
  <outline>
    <contour>
      <point x="1421.52" y="1103.87" type="curve" smooth="yes"/>
      <point x="1421.52" y="1001.02"/>
      <point x="1335.66" y="917.504"/>
      <point x="1229.62" y="917.504" type="curve" smooth="yes"/>
      <point x="1196.21" y="917.504"/>
      <point x="1164.27" y="928.747"/>
      <point x="1137.25" y="943.923" type="curve"/>
      <point x="1143.33" y="758.322"/>
      <point x="1083.5" y="537.129"/>
      <point x="1032.81" y="420.659" type="curve" smooth="yes"/>
      <point x="939.263" y="205.736"/>
      <point x="780.308" y="2.04794"/>
      <point x="628.531" y="2.04794" type="curve" smooth="yes"/>
      <point x="446.634" y="2.04794"/>
      <point x="320.572" y="167.149"/>
      <point x="352.461" y="331.981" type="curve" smooth="yes"/>
      <point x="411.853" y="638.976" type="line"/>
      <point x="83.968" y="558.08" type="line" smooth="yes"/>
      <point x="38.6405" y="546.897"/>
      <point x="27.6532" y="601.522"/>
      <point x="30.9247" y="619.52" type="curve" smooth="yes"/>
      <point x="33.8924" y="635.846"/>
      <point x="44.3719" y="645.854"/>
      <point x="55.5007" y="651.878" type="curve" smooth="yes" name=".hr01"/>
      <point x="64.9704" y="657.005"/>
      <point x="75.4317" y="659.772"/>
      <point x="85.8112" y="662.528" type="curve" smooth="yes"/>
      <point x="434.381" y="755.098" type="line"/>
      <point x="497.459" y="1080.93" type="line" smooth="yes"/>
      <point x="504.2" y="1115.75"/>
      <point x="535.747" y="1128.23"/>
      <point x="561.561" y="1123.53" type="curve" smooth="yes"/>
      <point x="587.38" y="1118.84"/>
      <point x="612.336" y="1096.1"/>
      <point x="605.593" y="1061.27" type="curve" smooth="yes"/>
      <point x="460.595" y="312.32" type="line" smooth="yes"/>
      <point x="440.839" y="210.273"/>
      <point x="517.784" y="108.749"/>
      <point x="628.531" y="108.749" type="curve" smooth="yes"/>
      <point x="699.361" y="108.749"/>
      <point x="833.654" y="237.382"/>
      <point x="931.43" y="462.029" type="curve" smooth="yes"/>
      <point x="987.617" y="591.122"/>
      <point x="1027.08" y="781.904"/>
      <point x="1027.28" y="940.032" type="curve" smooth="yes"/>
      <point x="1027.48" y="1103.87" type="line" smooth="yes"/>
      <point x="1027.61" y="1208.07"/>
      <point x="1125.04" y="1290.04"/>
      <point x="1229.62" y="1290.04" type="curve" smooth="yes"/>
      <point x="1335.66" y="1290.04"/>
      <point x="1421.52" y="1206.72"/>
    </contour>
    <contour>
      <point x="1311.54" y="1103.87" type="curve" smooth="yes"/>
      <point x="1311.54" y="1147.47"/>
      <point x="1274.57" y="1183.33"/>
      <point x="1229.62" y="1183.33" type="curve" smooth="yes"/>
      <point x="1184.67" y="1183.33"/>
      <point x="1147.49" y="1147.47"/>
      <point x="1147.49" y="1103.87" type="curve" smooth="yes"/>
      <point x="1147.49" y="1060.27"/>
      <point x="1184.67" y="1024.2"/>
      <point x="1229.62" y="1024.2" type="curve" smooth="yes"/>
      <point x="1274.57" y="1024.2"/>
      <point x="1311.54" y="1060.27"/>
    </contour>
  </outline>
</glyph>
<glyph name="uni1208" format="2">
  <advance width="822"/>
  <unicode hex="1208"/>
  <outline>
    <contour>
      <point x="741.99" y="53.4528" type="line" smooth="yes"/>
      <point x="741.99" y="24.2525"/>
      <point x="716.944" y="0"/>
      <point x="686.899" y="0" type="curve" smooth="yes"/>
      <point x="655.482" y="0"/>
      <point x="632.013" y="24.6187"/>
      <point x="632.013" y="53.4527" type="curve" smooth="yes"/>
      <point x="632.013" y="796.877" type="line" smooth="yes"/>
      <point x="632.013" y="935.797"/>
      <point x="534.856" y="1073.35"/>
      <point x="502.784" y="1114.93" type="curve"/>
      <point x="312.845" y="1011.15"/>
      <point x="225.33" y="911.421"/>
      <point x="182.886" y="760.832" type="curve" smooth="yes"/>
      <point x="160.791" y="682.438"/>
      <point x="150.877" y="589.487"/>
      <point x="146.022" y="473.703" type="curve" smooth="yes"/>
      <point x="141.156" y="357.638"/>
      <point x="141.583" y="219.961"/>
      <point x="140.083" y="53.248" type="curve" smooth="yes"/>
      <point x="139.823" y="24.3328"/>
      <point x="115.195" y="0"/>
      <point x="84.9919" y="0" type="curve" smooth="yes"/>
      <point x="55.1014" y="0"/>
      <point x="29.6449" y="24.1793"/>
      <point x="29.9007" y="53.6575" type="curve" smooth="yes"/>
      <point x="31.2722" y="211.678"/>
      <point x="30.2575" y="348.141"/>
      <point x="34.816" y="467.559" type="curve" smooth="yes"/>
      <point x="39.3862" y="587.289"/>
      <point x="49.7427" y="691.135"/>
      <point x="74.3425" y="782.336" type="curve" smooth="yes"/>
      <point x="122.706" y="961.642"/>
      <point x="225.776" y="1089.98"/>
      <point x="441.139" y="1198.49" type="curve"/>
      <point x="428.723" y="1218.64"/>
      <point x="405.297" y="1254.6"/>
      <point x="372.326" y="1295.16" type="curve" smooth="yes"/>
      <point x="353.34" y="1318.51"/>
      <point x="358.286" y="1351.83"/>
      <point x="381.542" y="1369.91" type="curve" smooth="yes"/>
      <point x="405.26" y="1388.35"/>
      <point x="438.794" y="1384.94"/>
      <point x="458.547" y="1361.1" type="curve" smooth="yes"/>
      <point x="627.485" y="1157.22"/>
      <point x="741.99" y="945.307"/>
      <point x="741.99" y="830.874" type="curve" smooth="yes"/>
    </contour>
  </outline>
</glyph>
<glyph name="uni1209" format="2">
  <advance width="1254"/>
  <unicode hex="1209"/>
  <outline>
    <contour>
      <point x="1173.91" y="712.089" type="curve" smooth="yes"/>
      <point x="1176.66" y="681.625"/>
      <point x="1153.61" y="655.691"/>
      <point x="1124.15" y="653.107" type="curve" smooth="yes"/>
      <point x="745.881" y="619.93" type="line"/>
      <point x="741.99" y="53.248" type="line" smooth="yes"/>
      <point x="741.791" y="24.2608"/>
      <point x="717.062" y="0"/>
      <point x="686.899" y="0" type="curve" smooth="yes"/>
      <point x="655.483" y="0"/>
      <point x="632.013" y="24.6187"/>
      <point x="632.013" y="53.4527" type="curve" smooth="yes"/>
      <point x="632.013" y="796.877" type="line" smooth="yes"/>
      <point x="632.013" y="935.797"/>
      <point x="534.856" y="1073.35"/>
      <point x="502.784" y="1114.93" type="curve"/>
      <point x="312.845" y="1011.15"/>
      <point x="225.333" y="911.435"/>
      <point x="182.886" y="760.832" type="curve" smooth="yes"/>
      <point x="160.79" y="682.435"/>
      <point x="150.878" y="589.487"/>
      <point x="146.022" y="473.703" type="curve" smooth="yes"/>
      <point x="141.155" y="357.639"/>
      <point x="141.583" y="219.959"/>
      <point x="140.083" y="53.248" type="curve" smooth="yes"/>
      <point x="139.823" y="24.333"/>
      <point x="115.196" y="0"/>
      <point x="84.992" y="0" type="curve" smooth="yes"/>
      <point x="55.0982" y="0"/>
      <point x="29.645" y="24.1795"/>
      <point x="29.9008" y="53.6575" type="curve" smooth="yes"/>
      <point x="31.2723" y="211.676"/>
      <point x="30.2576" y="348.141"/>
      <point x="34.8161" y="467.558" type="curve" smooth="yes"/>
      <point x="39.3866" y="587.288"/>
      <point x="49.7431" y="691.134"/>
      <point x="74.3426" y="782.336" type="curve" smooth="yes"/>
      <point x="122.706" y="961.643"/>
      <point x="225.776" y="1089.98"/>
      <point x="441.139" y="1198.49" type="curve"/>
      <point x="428.724" y="1218.64"/>
      <point x="405.297" y="1254.6"/>
      <point x="372.327" y="1295.16" type="curve" smooth="yes"/>
      <point x="353.342" y="1318.51"/>
      <point x="358.286" y="1351.83"/>
      <point x="381.543" y="1369.91" type="curve" smooth="yes"/>
      <point x="405.262" y="1388.35"/>
      <point x="438.795" y="1384.94"/>
      <point x="458.547" y="1361.1" type="curve" smooth="yes"/>
      <point x="627.274" y="1157.48"/>
      <point x="744.048" y="945.42"/>
      <point x="741.991" y="830.669" type="curve" smooth="yes"/>
      <point x="740.147" y="727.859" type="line"/>
      <point x="1114.52" y="759.603" type="line" smooth="yes"/>
      <point x="1144.08" y="762.11"/>
      <point x="1171.35" y="740.567"/>
    </contour>
  </outline>
</glyph>
<glyph name="uni120A" format="2">
  <advance width="1254"/>
  <unicode hex="120A"/>
  <outline>
    <contour>
      <point x="1173.91" y="53.4528" type="curve" smooth="yes"/>
      <point x="1173.91" y="24.6183"/>
      <point x="1150.45" y="0"/>
      <point x="1119.03" y="0" type="curve" smooth="yes"/>
      <point x="685.056" y="0" type="line" smooth="yes"/>
      <point x="654.263" y="0"/>
      <point x="630.989" y="24.9947"/>
      <point x="630.989" y="53.4527" type="curve" smooth="yes"/>
      <point x="630.989" y="796.877" type="line" smooth="yes"/>
      <point x="630.989" y="935.741"/>
      <point x="534.493" y="1073.25"/>
      <point x="502.579" y="1114.93" type="curve"/>
      <point x="312.677" y="1011.16"/>
      <point x="225.324" y="911.404"/>
      <point x="182.886" y="760.832" type="curve" smooth="yes"/>
      <point x="160.793" y="682.443"/>
      <point x="150.878" y="589.491"/>
      <point x="146.022" y="473.703" type="curve" smooth="yes"/>
      <point x="141.156" y="357.643"/>
      <point x="141.583" y="219.956"/>
      <point x="140.083" y="53.248" type="curve" smooth="yes"/>
      <point x="139.823" y="24.3333"/>
      <point x="115.194" y="0"/>
      <point x="84.9919" y="0" type="curve" smooth="yes"/>
      <point x="55.1014" y="0"/>
      <point x="29.6449" y="24.1798"/>
      <point x="29.9007" y="53.6575" type="curve" smooth="yes"/>
      <point x="31.2722" y="211.676"/>
      <point x="30.2575" y="348.14"/>
      <point x="34.816" y="467.559" type="curve" smooth="yes"/>
      <point x="39.3865" y="587.289"/>
      <point x="49.7428" y="691.135"/>
      <point x="74.3425" y="782.336" type="curve" smooth="yes"/>
      <point x="122.69" y="961.579"/>
      <point x="225.721" y="1090"/>
      <point x="440.934" y="1198.49" type="curve"/>
      <point x="428.19" y="1218.7"/>
      <point x="404.29" y="1254.58"/>
      <point x="371.303" y="1295.16" type="curve" smooth="yes"/>
      <point x="352.318" y="1318.51"/>
      <point x="357.261" y="1351.83"/>
      <point x="380.518" y="1369.91" type="curve" smooth="yes"/>
      <point x="404.238" y="1388.35"/>
      <point x="437.77" y="1384.94"/>
      <point x="457.523" y="1361.1" type="curve" smooth="yes"/>
      <point x="626.45" y="1157.24"/>
      <point x="740.967" y="945.305"/>
      <point x="740.967" y="830.873" type="curve" smooth="yes"/>
      <point x="740.967" y="106.905" type="line"/>
      <point x="1119.03" y="106.905" type="line" smooth="yes"/>
      <point x="1149.07" y="106.905"/>
      <point x="1173.91" y="82.6532"/>
    </contour>
  </outline>
</glyph>
<glyph name="uni120B" format="2">
  <advance width="819"/>
  <unicode hex="120B"/>
  <outline>
    <contour>
      <point x="739.328" y="53.4528" type="line" smooth="yes"/>
      <point x="739.328" y="24.2525"/>
      <point x="714.282" y="0"/>
      <point x="684.237" y="0" type="curve" smooth="yes"/>
      <point x="652.82" y="0"/>
      <point x="629.351" y="24.6187"/>
      <point x="629.351" y="53.4527" type="curve" smooth="yes"/>
      <point x="629.351" y="796.877" type="line" smooth="yes"/>
      <point x="629.351" y="935.797"/>
      <point x="531.988" y="1073.35"/>
      <point x="499.917" y="1114.93" type="curve"/>
      <point x="194.172" y="947.915"/>
      <point x="149.408" y="789.737"/>
      <point x="140.698" y="391.168" type="curve" smooth="yes"/>
      <point x="140.068" y="362.368"/>
      <point x="115.721" y="338.329"/>
      <point x="85.6066" y="338.329" type="curve" smooth="yes"/>
      <point x="54.1161" y="338.329"/>
      <point x="29.5451" y="366.986"/>
      <point x="30.1056" y="394.854" type="curve" smooth="yes"/>
      <point x="38.1248" y="793.433"/>
      <point x="87.5761" y="1021.67"/>
      <point x="438.477" y="1198.49" type="curve"/>
      <point x="426.061" y="1218.64"/>
      <point x="402.633" y="1254.6"/>
      <point x="369.664" y="1295.16" type="curve" smooth="yes"/>
      <point x="350.68" y="1318.51"/>
      <point x="355.624" y="1351.83"/>
      <point x="378.88" y="1369.91" type="curve" smooth="yes"/>
      <point x="402.597" y="1388.35"/>
      <point x="436.133" y="1384.94"/>
      <point x="455.885" y="1361.1" type="curve" smooth="yes"/>
      <point x="624.811" y="1157.24"/>
      <point x="739.328" y="945.307"/>
      <point x="739.328" y="830.874" type="curve" smooth="yes"/>
    </contour>
  </outline>
</glyph>
<glyph name="uni120C" format="2">
  <advance width="1106"/>
  <unicode hex="120C"/>
  <outline>
    <contour>
      <point x="1026.05" y="186.573" type="curve" smooth="yes"/>
      <point x="1026.05" y="83.511"/>
      <point x="939.989" y="0"/>
      <point x="833.945" y="0" type="curve" smooth="yes"/>
      <point x="729.381" y="0"/>
      <point x="632.013" y="82.1247"/>
      <point x="632.013" y="186.573" type="curve" smooth="yes"/>
      <point x="632.013" y="796.877" type="line" smooth="yes"/>
      <point x="632.013" y="935.789"/>
      <point x="534.856" y="1073.35"/>
      <point x="502.784" y="1114.93" type="curve"/>
      <point x="312.845" y="1011.15"/>
      <point x="225.33" y="911.421"/>
      <point x="182.886" y="760.832" type="curve" smooth="yes"/>
      <point x="160.791" y="682.439"/>
      <point x="150.877" y="589.488"/>
      <point x="146.022" y="473.703" type="curve" smooth="yes"/>
      <point x="141.156" y="357.638"/>
      <point x="141.583" y="219.97"/>
      <point x="140.083" y="53.248" type="curve" smooth="yes"/>
      <point x="139.823" y="24.3323"/>
      <point x="115.193" y="0"/>
      <point x="84.992" y="0" type="curve" smooth="yes"/>
      <point x="55.1005" y="0"/>
      <point x="29.645" y="24.1782"/>
      <point x="29.9008" y="53.6575" type="curve" smooth="yes"/>
      <point x="31.2721" y="211.682"/>
      <point x="30.2576" y="348.14"/>
      <point x="34.8161" y="467.559" type="curve" smooth="yes"/>
      <point x="39.3863" y="587.289"/>
      <point x="49.7428" y="691.135"/>
      <point x="74.3426" y="782.336" type="curve" smooth="yes"/>
      <point x="122.707" y="961.641"/>
      <point x="225.776" y="1089.98"/>
      <point x="441.139" y="1198.49" type="curve"/>
      <point x="428.723" y="1218.64"/>
      <point x="405.296" y="1254.6"/>
      <point x="372.327" y="1295.16" type="curve" smooth="yes"/>
      <point x="353.342" y="1318.51"/>
      <point x="358.286" y="1351.83"/>
      <point x="381.543" y="1369.91" type="curve" smooth="yes"/>
      <point x="405.26" y="1388.35"/>
      <point x="438.796" y="1384.94"/>
      <point x="458.547" y="1361.1" type="curve" smooth="yes"/>
      <point x="627.473" y="1157.24"/>
      <point x="741.991" y="945.309"/>
      <point x="741.991" y="830.874" type="curve" smooth="yes"/>
      <point x="741.991" y="350.413" type="line"/>
      <point x="769.156" y="364.695"/>
      <point x="800.407" y="373.146"/>
      <point x="833.946" y="373.146" type="curve" smooth="yes"/>
      <point x="939.987" y="373.146"/>
      <point x="1026.05" y="289.635"/>
    </contour>
    <contour>
      <point x="916.07" y="186.573" type="curve" smooth="yes"/>
      <point x="916.07" y="230.262"/>
      <point x="878.9" y="266.24"/>
      <point x="833.945" y="266.24" type="curve" smooth="yes"/>
      <point x="788.991" y="266.24"/>
      <point x="752.025" y="230.262"/>
      <point x="752.025" y="186.573" type="curve" smooth="yes"/>
      <point x="752.025" y="142.884"/>
      <point x="788.991" y="106.906"/>
      <point x="833.945" y="106.906" type="curve" smooth="yes"/>
      <point x="878.9" y="106.906"/>
      <point x="916.07" y="142.884"/>
    </contour>
  </outline>
</glyph>
<glyph name="uni120D" format="2">
  <advance width="822"/>
  <unicode hex="120D"/>
  <outline>
    <contour>
      <point x="741.786" y="53.4528" type="line" smooth="yes"/>
      <point x="741.786" y="24.2525"/>
      <point x="716.74" y="0"/>
      <point x="686.695" y="0" type="curve" smooth="yes"/>
      <point x="655.277" y="0"/>
      <point x="631.808" y="24.6187"/>
      <point x="631.808" y="53.4527" type="curve" smooth="yes"/>
      <point x="631.808" y="796.877" type="line" smooth="yes"/>
      <point x="631.808" y="935.797"/>
      <point x="534.653" y="1073.35"/>
      <point x="502.579" y="1114.93" type="curve"/>
      <point x="188.459" y="943.211"/>
      <point x="147.852" y="775.907"/>
      <point x="140.493" y="350.823" type="curve"/>
      <point x="167.53" y="364.929"/>
      <point x="198.728" y="373.146"/>
      <point x="232.039" y="373.146" type="curve" smooth="yes"/>
      <point x="338.08" y="373.146"/>
      <point x="423.936" y="289.635"/>
      <point x="423.936" y="186.573" type="curve" smooth="yes"/>
      <point x="423.936" y="83.511"/>
      <point x="338.083" y="0"/>
      <point x="232.039" y="0" type="curve" smooth="yes"/>
      <point x="127.442" y="0"/>
      <point x="29.5625" y="82.1807"/>
      <point x="29.9008" y="186.573" type="curve" smooth="yes"/>
      <point x="31.6588" y="728.846"/>
      <point x="36.7256" y="994.998"/>
      <point x="440.935" y="1198.49" type="curve"/>
      <point x="428.518" y="1218.64"/>
      <point x="405.087" y="1254.61"/>
      <point x="372.122" y="1295.16" type="curve" smooth="yes"/>
      <point x="353.138" y="1318.51"/>
      <point x="358.081" y="1351.83"/>
      <point x="381.338" y="1369.91" type="curve" smooth="yes"/>
      <point x="405.055" y="1388.35"/>
      <point x="438.591" y="1384.94"/>
      <point x="458.343" y="1361.1" type="curve" smooth="yes"/>
      <point x="627.269" y="1157.24"/>
      <point x="741.786" y="945.307"/>
      <point x="741.786" y="830.874" type="curve" smooth="yes"/>
    </contour>
    <contour>
      <point x="313.958" y="186.573" type="curve" smooth="yes"/>
      <point x="313.958" y="230.262"/>
      <point x="276.993" y="266.24"/>
      <point x="232.038" y="266.24" type="curve" smooth="yes"/>
      <point x="187.084" y="266.24"/>
      <point x="149.913" y="230.262"/>
      <point x="149.913" y="186.573" type="curve" smooth="yes"/>
      <point x="149.913" y="142.884"/>
      <point x="187.084" y="106.906"/>
      <point x="232.038" y="106.906" type="curve" smooth="yes"/>
      <point x="276.993" y="106.906"/>
      <point x="313.958" y="142.884"/>
    </contour>
  </outline>
</glyph>
<glyph name="uni120E" format="2">
  <advance width="1426"/>
  <unicode hex="120E"/>
  <outline>
    <contour>
      <point x="1345.33" y="905.011" type="curve" smooth="yes"/>
      <point x="1354.57" y="802.347"/>
      <point x="1276.48" y="711.856"/>
      <point x="1170.84" y="702.873" type="curve" smooth="yes"/>
      <point x="1065.2" y="693.891"/>
      <point x="972.006" y="769.788"/>
      <point x="962.765" y="872.448" type="curve" smooth="yes"/>
      <point x="960.959" y="892.505"/>
      <point x="964.664" y="934.284"/>
      <point x="978.535" y="967.065" type="curve"/>
      <point x="721.92" y="947.814" type="line"/>
      <point x="730.754" y="927.783"/>
      <point x="735.672" y="910.149"/>
      <point x="738.304" y="893.542" type="curve" smooth="yes"/>
      <point x="741.819" y="871.365"/>
      <point x="740.966" y="851.721"/>
      <point x="740.966" y="830.873" type="curve" smooth="yes"/>
      <point x="740.966" y="53.4527" type="line" smooth="yes"/>
      <point x="740.966" y="24.2525"/>
      <point x="716.125" y="0"/>
      <point x="686.08" y="0" type="curve" smooth="yes"/>
      <point x="654.663" y="0"/>
      <point x="630.989" y="24.6187"/>
      <point x="630.989" y="53.4527" type="curve" smooth="yes"/>
      <point x="630.989" y="796.877" type="line" smooth="yes"/>
      <point x="630.989" y="895.413"/>
      <point x="558.428" y="1042.64"/>
      <point x="502.784" y="1114.93" type="curve"/>
      <point x="312.789" y="1011.13"/>
      <point x="225.334" y="911.435"/>
      <point x="182.886" y="760.832" type="curve" smooth="yes"/>
      <point x="160.793" y="682.443"/>
      <point x="150.877" y="589.488"/>
      <point x="146.022" y="473.703" type="curve" smooth="yes"/>
      <point x="141.156" y="357.638"/>
      <point x="141.583" y="219.97"/>
      <point x="140.083" y="53.248" type="curve" smooth="yes"/>
      <point x="139.823" y="24.3323"/>
      <point x="115.193" y="0"/>
      <point x="84.992" y="0" type="curve" smooth="yes"/>
      <point x="55.1005" y="0"/>
      <point x="29.645" y="24.1782"/>
      <point x="29.9008" y="53.6575" type="curve" smooth="yes"/>
      <point x="31.2721" y="211.682"/>
      <point x="30.2576" y="348.14"/>
      <point x="34.8161" y="467.559" type="curve" smooth="yes"/>
      <point x="39.3863" y="587.289"/>
      <point x="49.7428" y="691.135"/>
      <point x="74.3426" y="782.336" type="curve" smooth="yes"/>
      <point x="122.69" y="961.58"/>
      <point x="225.721" y="1090"/>
      <point x="440.935" y="1198.49" type="curve"/>
      <point x="428.19" y="1218.7"/>
      <point x="404.287" y="1254.58"/>
      <point x="371.303" y="1295.16" type="curve" smooth="yes"/>
      <point x="352.319" y="1318.51"/>
      <point x="357.26" y="1351.82"/>
      <point x="380.519" y="1369.91" type="curve" smooth="yes"/>
      <point x="404.237" y="1388.35"/>
      <point x="437.769" y="1384.94"/>
      <point x="457.523" y="1361.1" type="curve" smooth="yes"/>
      <point x="500.838" y="1308.83"/>
      <point x="539.715" y="1249.88"/>
      <point x="574.669" y="1193.57" type="curve" smooth="yes"/>
      <point x="606.804" y="1141.81"/>
      <point x="635.988" y="1091.77"/>
      <point x="662.528" y="1050.42" type="curve"/>
      <point x="1136.64" y="1084.42" type="line" smooth="yes"/>
      <point x="1243.36" y="1092.07"/>
      <point x="1336.19" y="1006.51"/>
    </contour>
    <contour>
      <point x="1234.74" y="895.591" type="curve" smooth="yes"/>
      <point x="1230.72" y="940.207"/>
      <point x="1191.53" y="972.091"/>
      <point x="1146.88" y="968.295" type="curve" smooth="yes"/>
      <point x="1101.1" y="964.402"/>
      <point x="1068.33" y="926.36"/>
      <point x="1072.33" y="881.869" type="curve" smooth="yes"/>
      <point x="1076.24" y="838.47"/>
      <point x="1115.1" y="806.49"/>
      <point x="1161.01" y="810.394" type="curve" smooth="yes"/>
      <point x="1205.79" y="814.201"/>
      <point x="1238.66" y="852.066"/>
    </contour>
  </outline>
</glyph>
<glyph name="uni120F" format="2">
  <advance width="1243"/>
  <unicode hex="120F"/>
  <outline>
    <contour>
      <point x="1163.06" y="232.448" type="curve" smooth="yes"/>
      <point x="1163.06" y="203.399"/>
      <point x="1138.08" y="178.13"/>
      <point x="1107.97" y="178.176" type="curve" smooth="yes"/>
      <point x="307.405" y="179.405" type="line" smooth="yes"/>
      <point x="277.399" y="179.451"/>
      <point x="252.518" y="203.55"/>
      <point x="252.518" y="232.653" type="curve" smooth="yes"/>
      <point x="252.518" y="262.428"/>
      <point x="278.052" y="285.975"/>
      <point x="307.405" y="285.901" type="curve" smooth="yes"/>
      <point x="629.145" y="285.081" type="line"/>
      <point x="629.35" y="799.334" type="line" smooth="yes"/>
      <point x="629.405" y="937.674"/>
      <point x="531.984" y="1074.53"/>
      <point x="499.917" y="1115.96" type="curve"/>
      <point x="194.166" y="949.626"/>
      <point x="149.403" y="792.072"/>
      <point x="140.697" y="395.264" type="curve" smooth="yes"/>
      <point x="140.075" y="366.882"/>
      <point x="116.027" y="342.425"/>
      <point x="85.6065" y="342.425" type="curve" smooth="yes"/>
      <point x="54.2275" y="342.425"/>
      <point x="29.5315" y="371.106"/>
      <point x="30.1055" y="399.155" type="curve" smooth="yes"/>
      <point x="38.229" y="796.078"/>
      <point x="87.5915" y="1023.23"/>
      <point x="438.477" y="1199.31" type="curve"/>
      <point x="426.028" y="1219.38"/>
      <point x="402.64" y="1255.17"/>
      <point x="369.664" y="1295.56" type="curve" smooth="yes"/>
      <point x="350.582" y="1318.94"/>
      <point x="355.746" y="1352.2"/>
      <point x="378.88" y="1370.11" type="curve" smooth="yes"/>
      <point x="402.552" y="1388.44"/>
      <point x="436.093" y="1385.09"/>
      <point x="455.885" y="1361.31" type="curve" smooth="yes"/>
      <point x="624.819" y="1158.27"/>
      <point x="739.328" y="947.092"/>
      <point x="739.328" y="833.126" type="curve" smooth="yes"/>
      <point x="739.328" y="284.877" type="line"/>
      <point x="1107.97" y="284.672" type="line" smooth="yes"/>
      <point x="1137.22" y="284.656"/>
      <point x="1163.06" y="262.275"/>
    </contour>
  </outline>
</glyph>
<glyph name="uni1210" format="2">
  <advance width="1118"/>
  <unicode hex="1210"/>
  <outline>
    <contour>
      <point x="1038.13" y="53.4528" type="line" smooth="yes"/>
      <point x="1038.13" y="24.2398"/>
      <point x="1013.29" y="0"/>
      <point x="983.245" y="0" type="curve" smooth="yes"/>
      <point x="951.828" y="0"/>
      <point x="928.153" y="24.6035"/>
      <point x="928.153" y="53.4528" type="curve" smooth="yes"/>
      <point x="928.153" y="585.318" type="line" smooth="yes"/>
      <point x="928.153" y="728.341"/>
      <point x="875.411" y="756.829"/>
      <point x="696.729" y="752.435" type="curve" smooth="yes"/>
      <point x="621.773" y="750.592" type="line"/>
      <point x="558.899" y="51.1999" type="line" smooth="yes"/>
      <point x="556.283" y="22.0931"/>
      <point x="529.2" y="0.124644"/>
      <point x="499.302" y="2.66244" type="curve" smooth="yes"/>
      <point x="469.392" y="5.20124"/>
      <point x="445.693" y="31.5195"/>
      <point x="448.307" y="60.6207" type="curve" smooth="yes"/>
      <point x="510.771" y="755.917" type="line"/>
      <point x="258.704" y="746.657"/>
      <point x="134.066" y="572.366"/>
      <point x="140.083" y="53.6575" type="curve" smooth="yes"/>
      <point x="140.495" y="18.1485"/>
      <point x="112.065" y="-0.121487"/>
      <point x="85.8113" y="-0.409487" type="curve" smooth="yes"/>
      <point x="59.5578" y="-0.697487"/>
      <point x="30.5173" y="16.918"/>
      <point x="30.1055" y="52.4288" type="curve" smooth="yes"/>
      <point x="23.9163" y="585.948"/>
      <point x="174.223" y="853.57"/>
      <point x="520.397" y="862.617" type="curve"/>
      <point x="564.429" y="1352.7" type="line" smooth="yes"/>
      <point x="567.044" y="1381.82"/>
      <point x="594.128" y="1403.78"/>
      <point x="624.026" y="1401.24" type="curve" smooth="yes"/>
      <point x="653.935" y="1398.7"/>
      <point x="677.636" y="1372.39"/>
      <point x="675.021" y="1343.28" type="curve" smooth="yes"/>
      <point x="631.399" y="857.907" type="line"/>
      <point x="693.248" y="860.365" type="line" smooth="yes"/>
      <point x="872.865" y="867.501"/>
      <point x="1038.13" y="834.903"/>
      <point x="1038.13" y="615.424" type="curve" smooth="yes"/>
    </contour>
  </outline>
</glyph>
<glyph name="uni1211" format="2">
  <advance width="1551"/>
  <unicode hex="1211"/>
  <outline>
    <contour>
      <point x="1471.08" y="509.543" type="curve" smooth="yes"/>
      <point x="1471.08" y="478.954"/>
      <point x="1445.78" y="455.146"/>
      <point x="1416.19" y="455.066" type="curve" smooth="yes"/>
      <point x="1038.13" y="454.042" type="line"/>
      <point x="1038.13" y="53.4528" type="line" smooth="yes"/>
      <point x="1038.13" y="24.24"/>
      <point x="1013.29" y="0"/>
      <point x="983.245" y="0" type="curve" smooth="yes"/>
      <point x="951.827" y="0"/>
      <point x="928.153" y="24.6035"/>
      <point x="928.153" y="53.4528" type="curve" smooth="yes"/>
      <point x="928.153" y="585.318" type="line" smooth="yes"/>
      <point x="928.153" y="728.333"/>
      <point x="875.227" y="756.824"/>
      <point x="696.729" y="752.435" type="curve" smooth="yes"/>
      <point x="621.773" y="750.592" type="line"/>
      <point x="558.899" y="51.1999" type="line" smooth="yes"/>
      <point x="556.283" y="22.0971"/>
      <point x="529.217" y="0.123148"/>
      <point x="499.302" y="2.66245" type="curve" smooth="yes"/>
      <point x="469.376" y="5.20275"/>
      <point x="445.693" y="31.5235"/>
      <point x="448.307" y="60.6207" type="curve" smooth="yes"/>
      <point x="510.771" y="755.917" type="line"/>
      <point x="258.697" y="746.658"/>
      <point x="134.066" y="572.375"/>
      <point x="140.083" y="53.6575" type="curve" smooth="yes"/>
      <point x="140.91" y="-17.594"/>
      <point x="30.9319" y="-18.822"/>
      <point x="30.1054" y="52.4288" type="curve" smooth="yes"/>
      <point x="23.9162" y="585.955"/>
      <point x="174.23" y="853.569"/>
      <point x="520.397" y="862.618" type="curve"/>
      <point x="564.429" y="1352.7" type="line" smooth="yes"/>
      <point x="567.044" y="1381.81"/>
      <point x="594.111" y="1403.78"/>
      <point x="624.025" y="1401.24" type="curve" smooth="yes"/>
      <point x="653.951" y="1398.7"/>
      <point x="677.636" y="1372.38"/>
      <point x="675.021" y="1343.28" type="curve" smooth="yes"/>
      <point x="631.398" y="857.907" type="line"/>
      <point x="693.248" y="860.365" type="line" smooth="yes"/>
      <point x="872.865" y="867.502"/>
      <point x="1038.13" y="834.883"/>
      <point x="1038.13" y="615.424" type="curve" smooth="yes"/>
      <point x="1038.13" y="561.971" type="line"/>
      <point x="1416.19" y="561.971" type="line" smooth="yes"/>
      <point x="1445.48" y="561.971"/>
      <point x="1471.08" y="539.479"/>
    </contour>
  </outline>
</glyph>
<glyph name="uni1212" format="2">
  <advance width="1551"/>
  <unicode hex="1212"/>
  <outline>
    <contour>
      <point x="1471.08" y="53.4528" type="curve" smooth="yes"/>
      <point x="1471.08" y="24.2403"/>
      <point x="1446.24" y="0"/>
      <point x="1416.19" y="0" type="curve" smooth="yes"/>
      <point x="982.221" y="0" type="line" smooth="yes"/>
      <point x="950.049" y="0"/>
      <point x="928.153" y="25.3675"/>
      <point x="928.153" y="53.4528" type="curve" smooth="yes"/>
      <point x="928.153" y="585.318" type="line" smooth="yes"/>
      <point x="928.153" y="728.333"/>
      <point x="875.211" y="756.824"/>
      <point x="696.729" y="752.435" type="curve" smooth="yes"/>
      <point x="621.773" y="750.592" type="line"/>
      <point x="558.899" y="51.1999" type="line" smooth="yes"/>
      <point x="556.283" y="22.0971"/>
      <point x="529.219" y="0.122648"/>
      <point x="499.302" y="2.66245" type="curve" smooth="yes"/>
      <point x="469.378" y="5.20275"/>
      <point x="445.693" y="31.5235"/>
      <point x="448.307" y="60.6207" type="curve" smooth="yes"/>
      <point x="510.771" y="755.917" type="line"/>
      <point x="258.697" y="746.658"/>
      <point x="134.066" y="572.375"/>
      <point x="140.083" y="53.6575" type="curve" smooth="yes"/>
      <point x="140.91" y="-17.594"/>
      <point x="30.9319" y="-18.822"/>
      <point x="30.1054" y="52.4288" type="curve" smooth="yes"/>
      <point x="23.9162" y="585.955"/>
      <point x="174.23" y="853.569"/>
      <point x="520.397" y="862.618" type="curve"/>
      <point x="564.429" y="1352.7" type="line" smooth="yes"/>
      <point x="567.044" y="1381.81"/>
      <point x="594.109" y="1403.78"/>
      <point x="624.025" y="1401.24" type="curve" smooth="yes"/>
      <point x="653.952" y="1398.7"/>
      <point x="677.636" y="1372.38"/>
      <point x="675.021" y="1343.28" type="curve" smooth="yes"/>
      <point x="631.398" y="857.907" type="line"/>
      <point x="693.248" y="860.365" type="line" smooth="yes"/>
      <point x="872.865" y="867.502"/>
      <point x="1038.13" y="834.899"/>
      <point x="1038.13" y="615.424" type="curve" smooth="yes"/>
      <point x="1038.13" y="106.906" type="line"/>
      <point x="1416.19" y="106.906" type="line" smooth="yes"/>
      <point x="1445.86" y="106.906"/>
      <point x="1471.08" y="83.9973"/>
    </contour>
  </outline>
</glyph>
<glyph name="uni1213" format="2">
  <advance width="1100"/>
  <unicode hex="1213"/>
  <outline>
    <contour>
      <point x="1019.9" y="53.4528" type="line" smooth="yes"/>
      <point x="1019.9" y="24.2398"/>
      <point x="994.858" y="0"/>
      <point x="964.813" y="0" type="curve" smooth="yes"/>
      <point x="933.396" y="0"/>
      <point x="909.926" y="24.6035"/>
      <point x="909.926" y="53.4528" type="curve" smooth="yes"/>
      <point x="909.926" y="585.318" type="line" smooth="yes"/>
      <point x="909.926" y="728.173"/>
      <point x="857.131" y="754.868"/>
      <point x="678.297" y="752.435" type="curve" smooth="yes"/>
      <point x="587.981" y="751.207" type="line"/>
      <point x="556.032" y="395.674" type="line" smooth="yes"/>
      <point x="553.413" y="366.529"/>
      <point x="526.322" y="344.599"/>
      <point x="496.435" y="347.136" type="curve" smooth="yes"/>
      <point x="466.537" y="349.674"/>
      <point x="442.826" y="375.96"/>
      <point x="445.44" y="405.095" type="curve" smooth="yes"/>
      <point x="476.979" y="756.531" type="line"/>
      <point x="296.216" y="749.95"/>
      <point x="182.5" y="659.721"/>
      <point x="134.759" y="425.984" type="curve" smooth="yes"/>
      <point x="127.973" y="392.761"/>
      <point x="97.5798" y="376.753"/>
      <point x="70.8608" y="382.157" type="curve" smooth="yes"/>
      <point x="39.6268" y="388.474"/>
      <point x="23.4178" y="418.475"/>
      <point x="33.1775" y="458.547" type="curve" smooth="yes"/>
      <point x="97.784" y="723.815"/>
      <point x="245.604" y="857.081"/>
      <point x="486.605" y="863.437" type="curve"/>
      <point x="530.842" y="1353.32" type="line" smooth="yes"/>
      <point x="533.47" y="1382.43"/>
      <point x="560.544" y="1404.6"/>
      <point x="590.439" y="1402.06" type="curve" smooth="yes"/>
      <point x="620.345" y="1399.52"/>
      <point x="644.059" y="1373"/>
      <point x="641.433" y="1343.9" type="curve" smooth="yes"/>
      <point x="597.606" y="858.112" type="line"/>
      <point x="675.225" y="860.365" type="line" smooth="yes"/>
      <point x="854.582" y="865.57"/>
      <point x="1019.9" y="835"/>
      <point x="1019.9" y="615.424" type="curve" smooth="yes"/>
    </contour>
  </outline>
</glyph>
<glyph name="uni1214" format="2">
  <advance width="1401"/>
  <unicode hex="1214"/>
  <outline>
    <contour>
      <point x="1321.16" y="185.753" type="curve" smooth="yes"/>
      <point x="1321.16" y="82.5"/>
      <point x="1235.16" y="0"/>
      <point x="1129.27" y="0" type="curve" smooth="yes"/>
      <point x="1024.91" y="0"/>
      <point x="926.839" y="81.0328"/>
      <point x="927.13" y="185.754" type="curve" smooth="yes"/>
      <point x="928.154" y="554.189" type="line" smooth="yes"/>
      <point x="928.582" y="708.406"/>
      <point x="897.337" y="754.285"/>
      <point x="766.567" y="752.435" type="curve" smooth="yes"/>
      <point x="621.773" y="750.387" type="line"/>
      <point x="558.899" y="51.2" type="line" smooth="yes"/>
      <point x="556.282" y="22.0965"/>
      <point x="529.219" y="0.122743"/>
      <point x="499.303" y="2.66254" type="curve" smooth="yes"/>
      <point x="469.378" y="5.20284"/>
      <point x="445.693" y="31.5236"/>
      <point x="448.307" y="60.6208" type="curve" smooth="yes"/>
      <point x="510.771" y="755.917" type="line"/>
      <point x="258.698" y="746.658"/>
      <point x="134.066" y="572.375"/>
      <point x="140.083" y="53.6576" type="curve" smooth="yes"/>
      <point x="140.91" y="-17.5939"/>
      <point x="30.9321" y="-18.8219"/>
      <point x="30.1056" y="52.4289" type="curve" smooth="yes"/>
      <point x="23.9163" y="585.955"/>
      <point x="174.23" y="853.569"/>
      <point x="520.397" y="862.618" type="curve"/>
      <point x="564.429" y="1352.7" type="line" smooth="yes"/>
      <point x="567.044" y="1381.81"/>
      <point x="594.109" y="1403.78"/>
      <point x="624.026" y="1401.24" type="curve" smooth="yes"/>
      <point x="653.952" y="1398.7"/>
      <point x="677.634" y="1372.39"/>
      <point x="675.021" y="1343.28" type="curve" smooth="yes"/>
      <point x="631.399" y="857.498" type="line"/>
      <point x="764.723" y="860.365" type="line" smooth="yes"/>
      <point x="954.136" y="864.438"/>
      <point x="1038.6" y="766.247"/>
      <point x="1038.13" y="615.424" type="curve" smooth="yes"/>
      <point x="1037.31" y="350.003" type="line"/>
      <point x="1064.62" y="364.385"/>
      <point x="1095.99" y="372.327"/>
      <point x="1129.27" y="372.327" type="curve" smooth="yes"/>
      <point x="1235.31" y="372.327"/>
      <point x="1321.16" y="288.855"/>
    </contour>
    <contour>
      <point x="1211.19" y="185.753" type="curve" smooth="yes"/>
      <point x="1211.19" y="230.308"/>
      <point x="1174.35" y="265.421"/>
      <point x="1129.27" y="265.421" type="curve" smooth="yes"/>
      <point x="1084.19" y="265.421"/>
      <point x="1047.14" y="230.308"/>
      <point x="1047.14" y="185.753" type="curve" smooth="yes"/>
      <point x="1047.14" y="142.295"/>
      <point x="1084.06" y="106.905"/>
      <point x="1129.27" y="106.905" type="curve" smooth="yes"/>
      <point x="1174.48" y="106.905"/>
      <point x="1211.19" y="142.295"/>
    </contour>
  </outline>
</glyph>
<glyph name="uni1215" format="2">
  <advance width="1118"/>
  <unicode hex="1215"/>
  <outline>
    <contour>
      <point x="1038.13" y="53.4528" type="line" smooth="yes"/>
      <point x="1038.13" y="24.2378"/>
      <point x="1013.29" y="0"/>
      <point x="983.245" y="0" type="curve" smooth="yes"/>
      <point x="951.828" y="0"/>
      <point x="928.153" y="24.6035"/>
      <point x="928.153" y="53.4528" type="curve" smooth="yes"/>
      <point x="928.153" y="585.318" type="line" smooth="yes"/>
      <point x="928.153" y="728.341"/>
      <point x="875.227" y="757.029"/>
      <point x="696.729" y="752.64" type="curve" smooth="yes"/>
      <point x="621.773" y="750.797" type="line"/>
      <point x="558.899" y="51.1999" type="line" smooth="yes"/>
      <point x="556.284" y="22.0947"/>
      <point x="529.217" y="0.123184"/>
      <point x="499.302" y="2.66248" type="curve" smooth="yes"/>
      <point x="469.376" y="5.20278"/>
      <point x="445.693" y="31.5235"/>
      <point x="448.307" y="60.6208" type="curve" smooth="yes"/>
      <point x="510.771" y="755.917" type="line"/>
      <point x="258.697" y="746.658"/>
      <point x="134.066" y="572.406"/>
      <point x="140.083" y="53.6575" type="curve" smooth="yes"/>
      <point x="140.91" y="-17.598"/>
      <point x="30.932" y="-18.826"/>
      <point x="30.1055" y="52.4288" type="curve" smooth="yes"/>
      <point x="23.9162" y="585.988"/>
      <point x="174.23" y="853.569"/>
      <point x="520.397" y="862.618" type="curve"/>
      <point x="559.513" y="1297.61" type="line"/>
      <point x="223.641" y="1297" type="line" smooth="yes"/>
      <point x="193.531" y="1296.94"/>
      <point x="168.55" y="1321.27"/>
      <point x="168.55" y="1350.45" type="curve" smooth="yes"/>
      <point x="168.55" y="1380.88"/>
      <point x="193.749" y="1404.09"/>
      <point x="223.641" y="1403.9" type="curve" smooth="yes"/>
      <point x="623.206" y="1401.45" type="line" smooth="yes"/>
      <point x="653.239" y="1401.26"/>
      <point x="677.636" y="1372.38"/>
      <point x="675.021" y="1343.28" type="curve" smooth="yes"/>
      <point x="631.398" y="857.907" type="line"/>
      <point x="693.248" y="860.365" type="line" smooth="yes"/>
      <point x="872.865" y="867.501"/>
      <point x="1038.13" y="834.903"/>
      <point x="1038.13" y="615.424" type="curve" smooth="yes"/>
    </contour>
  </outline>
</glyph>
<glyph name="uni1216" format="2">
  <advance width="1133"/>
  <unicode hex="1216"/>
  <outline>
    <contour>
      <point x="1053.49" y="393.831" type="line" smooth="yes"/>
      <point x="1053.49" y="364.617"/>
      <point x="1028.44" y="340.378"/>
      <point x="998.4" y="340.378" type="curve" smooth="yes"/>
      <point x="966.983" y="340.378"/>
      <point x="943.513" y="364.981"/>
      <point x="943.513" y="393.831" type="curve" smooth="yes"/>
      <point x="943.513" y="585.319" type="line" smooth="yes"/>
      <point x="943.513" y="728.175"/>
      <point x="890.51" y="754.879"/>
      <point x="711.68" y="752.435" type="curve" smooth="yes"/>
      <point x="621.773" y="751.207" type="line"/>
      <point x="589.414" y="390.963" type="line" smooth="yes"/>
      <point x="586.8" y="361.856"/>
      <point x="559.734" y="339.681"/>
      <point x="529.817" y="342.221" type="curve" smooth="yes"/>
      <point x="499.891" y="344.761"/>
      <point x="476.212" y="371.284"/>
      <point x="478.823" y="400.384" type="curve" smooth="yes"/>
      <point x="510.771" y="756.531" type="line"/>
      <point x="258.698" y="747.273"/>
      <point x="134.066" y="572.989"/>
      <point x="140.083" y="54.2721" type="curve" smooth="yes"/>
      <point x="140.91" y="-16.9794"/>
      <point x="30.932" y="-18.2074"/>
      <point x="30.1055" y="53.0434" type="curve" smooth="yes"/>
      <point x="23.9163" y="586.57"/>
      <point x="174.23" y="854.388"/>
      <point x="520.397" y="863.437" type="curve"/>
      <point x="564.429" y="1353.32" type="line" smooth="yes"/>
      <point x="567.045" y="1382.43"/>
      <point x="594.109" y="1404.6"/>
      <point x="624.025" y="1402.06" type="curve" smooth="yes"/>
      <point x="653.952" y="1399.52"/>
      <point x="677.634" y="1373"/>
      <point x="675.021" y="1343.9" type="curve" smooth="yes"/>
      <point x="631.399" y="858.112" type="line"/>
      <point x="708.813" y="860.365" type="line" smooth="yes"/>
      <point x="889.023" y="865.609"/>
      <point x="1053.49" y="834.985"/>
      <point x="1053.49" y="615.424" type="curve" smooth="yes"/>
    </contour>
  </outline>
</glyph>
<glyph name="uni1217" format="2">
  <advance width="1523"/>
  <unicode hex="1217"/>
  <outline>
    <contour>
      <point x="1443.02" y="232.448" type="curve" smooth="yes"/>
      <point x="1443.02" y="203.387"/>
      <point x="1418.05" y="178.13"/>
      <point x="1387.93" y="178.176" type="curve" smooth="yes"/>
      <point x="587.367" y="179.405" type="line" smooth="yes"/>
      <point x="557.349" y="179.451"/>
      <point x="532.275" y="203.538"/>
      <point x="532.275" y="232.653" type="curve" smooth="yes"/>
      <point x="532.275" y="262.447"/>
      <point x="558.02" y="285.957"/>
      <point x="587.367" y="285.901" type="curve" smooth="yes"/>
      <point x="909.107" y="285.286" type="line"/>
      <point x="909.517" y="588.595" type="line" smooth="yes"/>
      <point x="909.709" y="730.801"/>
      <point x="856.626" y="757.543"/>
      <point x="677.683" y="755.097" type="curve" smooth="yes"/>
      <point x="587.776" y="753.869" type="line"/>
      <point x="555.623" y="399.769" type="line" smooth="yes"/>
      <point x="552.856" y="369.304"/>
      <point x="524.872" y="351.232"/>
      <point x="497.869" y="351.232" type="curve" smooth="yes"/>
      <point x="465.053" y="351.232"/>
      <point x="442.549" y="381.448"/>
      <point x="445.03" y="408.985" type="curve" smooth="yes"/>
      <point x="476.569" y="758.989" type="line"/>
      <point x="295.328" y="752.461"/>
      <point x="181.3" y="662.485"/>
      <point x="134.349" y="429.465" type="curve" smooth="yes"/>
      <point x="127.909" y="397.505"/>
      <point x="97.4095" y="380.791"/>
      <point x="70.2465" y="386.253" type="curve" smooth="yes"/>
      <point x="38.8497" y="392.566"/>
      <point x="23.2752" y="423.274"/>
      <point x="32.9727" y="462.438" type="curve" smooth="yes"/>
      <point x="98.2997" y="726.271"/>
      <point x="245.172" y="859.127"/>
      <point x="486.195" y="865.485" type="curve"/>
      <point x="530.432" y="1353.73" type="line" smooth="yes"/>
      <point x="533.188" y="1384.15"/>
      <point x="561.171" y="1402.06"/>
      <point x="588.185" y="1402.06" type="curve" smooth="yes"/>
      <point x="621.304" y="1402.06"/>
      <point x="643.27" y="1371.28"/>
      <point x="640.819" y="1344.1" type="curve" smooth="yes"/>
      <point x="597.197" y="860.365" type="line"/>
      <point x="674.816" y="862.617" type="line" smooth="yes"/>
      <point x="854.173" y="867.823"/>
      <point x="1019.63" y="837.202"/>
      <point x="1019.49" y="618.496" type="curve" smooth="yes"/>
      <point x="1019.29" y="284.877" type="line"/>
      <point x="1387.93" y="284.672" type="line" smooth="yes"/>
      <point x="1417.18" y="284.656"/>
      <point x="1443.02" y="262.291"/>
    </contour>
  </outline>
</glyph>
<glyph name="uni1218" format="2">
  <advance width="1321"/>
  <unicode hex="1218"/>
  <outline>
    <contour>
      <point x="1240.88" y="852.992" type="curve" smooth="yes"/>
      <point x="1240.88" y="654.876"/>
      <point x="1166.42" y="447.267"/>
      <point x="973.824" y="436.224" type="curve" smooth="yes"/>
      <point x="890.192" y="431.429"/>
      <point x="735.574" y="433.108"/>
      <point x="732.979" y="564.429" type="curve" smooth="yes"/>
      <point x="724.378" y="999.834" type="line"/>
      <point x="670.311" y="995.738" type="line"/>
      <point x="550.503" y="484.557" type="line" smooth="yes"/>
      <point x="535.588" y="420.92"/>
      <point x="413.531" y="390.643"/>
      <point x="321.741" y="391.987" type="curve" smooth="yes"/>
      <point x="190.872" y="393.903"/>
      <point x="29.9009" y="451.64"/>
      <point x="29.9009" y="611.942" type="curve" smooth="yes"/>
      <point x="29.9009" y="1085.59"/>
      <point x="513.162" y="1098.36"/>
      <point x="829.031" y="1105.92" type="curve" smooth="yes"/>
      <point x="870.648" y="1106.92"/>
      <point x="916.179" y="1109.54"/>
      <point x="960.922" y="1108.79" type="curve" smooth="yes"/>
      <point x="1006.2" y="1108.03"/>
      <point x="1052.32" y="1103.81"/>
      <point x="1093.84" y="1090.15" type="curve" smooth="yes"/>
      <point x="1180.41" y="1061.66"/>
      <point x="1240.88" y="994.123"/>
    </contour>
    <contour>
      <point x="1130.91" y="852.992" type="curve" smooth="yes"/>
      <point x="1130.91" y="951.107"/>
      <point x="1090.51" y="982.709"/>
      <point x="1035.67" y="995.533" type="curve" smooth="yes"/>
      <point x="1005.84" y="1002.51"/>
      <point x="970.869" y="1003.95"/>
      <point x="932.455" y="1004.13" type="curve" smooth="yes"/>
      <point x="900.844" y="1004.28"/>
      <point x="868.211" y="1003.77"/>
      <point x="836.608" y="1005.16" type="curve"/>
      <point x="841.933" y="553.779" type="line" smooth="yes"/>
      <point x="842.107" y="538.972"/>
      <point x="867.221" y="541.269"/>
      <point x="890.266" y="539.443" type="curve" smooth="yes"/>
      <point x="923.285" y="536.828"/>
      <point x="958.281" y="539.759"/>
      <point x="967.066" y="540.263" type="curve" smooth="yes"/>
      <point x="1086.03" y="547.081"/>
      <point x="1130.91" y="687.996"/>
    </contour>
    <contour>
      <point x="554.393" y="990.003" type="line"/>
      <point x="303.926" y="969.178"/>
      <point x="139.878" y="859.55"/>
      <point x="139.878" y="610.509" type="curve" smooth="yes"/>
      <point x="139.878" y="546.356"/>
      <point x="208.336" y="493.16"/>
      <point x="327.065" y="496.64" type="curve" smooth="yes"/>
      <point x="368.539" y="497.855"/>
      <point x="440.393" y="495.852"/>
      <point x="448.512" y="531.047" type="curve" smooth="yes"/>
    </contour>
  </outline>
</glyph>
<glyph name="uni1219" format="2">
  <advance width="1754"/>
  <unicode hex="1219"/>
  <outline>
    <contour>
      <point x="1673.83" y="800.154" type="curve" smooth="yes"/>
      <point x="1673.83" y="771.721"/>
      <point x="1648.89" y="748.135"/>
      <point x="1618.74" y="748.135" type="curve" smooth="yes"/>
      <point x="1233.92" y="748.135" type="line"/>
      <point x="1211.45" y="589.2"/>
      <point x="1132.81" y="445.339"/>
      <point x="973.824" y="436.224" type="curve" smooth="yes"/>
      <point x="890.152" y="431.427"/>
      <point x="735.572" y="433.164"/>
      <point x="732.979" y="564.429" type="curve" smooth="yes"/>
      <point x="724.377" y="999.834" type="line"/>
      <point x="670.31" y="995.943" type="line"/>
      <point x="550.502" y="484.557" type="line" smooth="yes"/>
      <point x="535.592" y="420.914"/>
      <point x="413.523" y="390.644"/>
      <point x="321.741" y="391.987" type="curve" smooth="yes"/>
      <point x="190.885" y="393.902"/>
      <point x="29.9007" y="451.636"/>
      <point x="29.9007" y="611.943" type="curve" smooth="yes"/>
      <point x="29.9007" y="1085.61"/>
      <point x="513.152" y="1097.67"/>
      <point x="829.03" y="1105.92" type="curve" smooth="yes"/>
      <point x="870.644" y="1107.01"/>
      <point x="916.007" y="1110.83"/>
      <point x="960.717" y="1110.22" type="curve" smooth="yes"/>
      <point x="1006.08" y="1109.6"/>
      <point x="1052.27" y="1105.26"/>
      <point x="1093.84" y="1091.38" type="curve" smooth="yes"/>
      <point x="1180.39" y="1062.47"/>
      <point x="1240.88" y="994.082"/>
      <point x="1240.88" y="852.992" type="curve"/>
      <point x="1618.74" y="852.378" type="line" smooth="yes"/>
      <point x="1648.41" y="852.329"/>
      <point x="1673.83" y="829.913"/>
    </contour>
    <contour>
      <point x="1130.91" y="852.992" type="curve" smooth="yes"/>
      <point x="1130.91" y="951.116"/>
      <point x="1090.51" y="982.913"/>
      <point x="1035.67" y="995.738" type="curve" smooth="yes"/>
      <point x="1005.84" y="1002.71"/>
      <point x="970.869" y="1003.95"/>
      <point x="932.455" y="1004.13" type="curve" smooth="yes"/>
      <point x="900.844" y="1004.28"/>
      <point x="868.211" y="1003.77"/>
      <point x="836.608" y="1005.16" type="curve"/>
      <point x="841.933" y="553.779" type="line" smooth="yes"/>
      <point x="842.107" y="538.971"/>
      <point x="867.219" y="541.269"/>
      <point x="890.266" y="539.443" type="curve" smooth="yes"/>
      <point x="923.286" y="536.828"/>
      <point x="958.282" y="539.759"/>
      <point x="967.066" y="540.263" type="curve" smooth="yes"/>
      <point x="1085.96" y="547.076"/>
      <point x="1130.91" y="687.994"/>
    </contour>
    <contour>
      <point x="554.393" y="990.208" type="line"/>
      <point x="303.926" y="969.382"/>
      <point x="139.878" y="859.592"/>
      <point x="139.878" y="610.509" type="curve" smooth="yes"/>
      <point x="139.878" y="546.354"/>
      <point x="208.361" y="493.163"/>
      <point x="327.065" y="496.64" type="curve" smooth="yes"/>
      <point x="368.509" y="497.854"/>
      <point x="440.396" y="495.849"/>
      <point x="448.512" y="531.047" type="curve" smooth="yes"/>
    </contour>
  </outline>
</glyph>
<glyph name="uni121A" format="2">
  <advance width="1662"/>
  <unicode hex="121A"/>
  <outline>
    <contour>
      <point x="1581.67" y="54.4767" type="curve" smooth="yes"/>
      <point x="1581.67" y="25.3165"/>
      <point x="1556.73" y="1.024"/>
      <point x="1526.58" y="1.024" type="curve" smooth="yes"/>
      <point x="1092.61" y="1.024" type="line" smooth="yes"/>
      <point x="1062.86" y="1.024"/>
      <point x="1034.65" y="24.3363"/>
      <point x="1037.72" y="56.1152" type="curve" smooth="yes"/>
      <point x="1101.82" y="719.258" type="line"/>
      <point x="1066.48" y="692.085"/>
      <point x="1023.94" y="675.1"/>
      <point x="973.824" y="672.154" type="curve" smooth="yes"/>
      <point x="890.168" y="667.235"/>
      <point x="735.572" y="669.26"/>
      <point x="732.979" y="803.84" type="curve" smooth="yes"/>
      <point x="724.378" y="1250.3" type="line"/>
      <point x="670.311" y="1246.21" type="line"/>
      <point x="550.503" y="721.715" type="line" smooth="yes"/>
      <point x="535.595" y="656.454"/>
      <point x="413.523" y="625.515"/>
      <point x="321.741" y="626.893" type="curve" smooth="yes"/>
      <point x="190.886" y="628.857"/>
      <point x="29.9008" y="687.966"/>
      <point x="29.9008" y="852.377" type="curve" smooth="yes"/>
      <point x="29.9008" y="1338.15"/>
      <point x="513.151" y="1350.6"/>
      <point x="829.031" y="1359.05" type="curve" smooth="yes"/>
      <point x="870.538" y="1360.16"/>
      <point x="915.866" y="1363.96"/>
      <point x="960.512" y="1363.35" type="curve" smooth="yes"/>
      <point x="1005.81" y="1362.74"/>
      <point x="1051.87" y="1358.41"/>
      <point x="1093.43" y="1344.31" type="curve" smooth="yes"/>
      <point x="1179.94" y="1314.96"/>
      <point x="1240.91" y="1244.47"/>
      <point x="1241.5" y="1100.8" type="curve"/>
      <point x="1241.5" y="1100.8"/>
      <point x="1182.07" y="451.443"/>
      <point x="1150.57" y="107.725" type="curve"/>
      <point x="1526.58" y="107.725" type="line" smooth="yes"/>
      <point x="1556.25" y="107.725"/>
      <point x="1581.67" y="84.9972"/>
    </contour>
    <contour>
      <point x="1130.91" y="1099.57" type="curve" smooth="yes"/>
      <point x="1130.91" y="1200.2"/>
      <point x="1090.51" y="1232.85"/>
      <point x="1035.67" y="1246" type="curve" smooth="yes"/>
      <point x="1005.84" y="1253.16"/>
      <point x="970.869" y="1254.42"/>
      <point x="932.455" y="1254.6" type="curve" smooth="yes"/>
      <point x="900.844" y="1254.76"/>
      <point x="868.211" y="1254.2"/>
      <point x="836.608" y="1255.63" type="curve"/>
      <point x="841.933" y="792.781" type="line" smooth="yes"/>
      <point x="842.107" y="777.596"/>
      <point x="867.224" y="779.907"/>
      <point x="890.266" y="778.035" type="curve" smooth="yes"/>
      <point x="923.283" y="775.353"/>
      <point x="958.281" y="778.338"/>
      <point x="967.066" y="778.855" type="curve" smooth="yes"/>
      <point x="1112.73" y="787.417"/>
      <point x="1130.91" y="986.619"/>
    </contour>
    <contour>
      <point x="554.393" y="1240.27" type="line"/>
      <point x="303.926" y="1218.91"/>
      <point x="139.878" y="1106.39"/>
      <point x="139.878" y="850.944" type="curve" smooth="yes"/>
      <point x="139.878" y="785.147"/>
      <point x="208.363" y="730.642"/>
      <point x="327.065" y="734.208" type="curve" smooth="yes"/>
      <point x="368.514" y="735.453"/>
      <point x="440.391" y="733.541"/>
      <point x="448.512" y="769.639" type="curve" smooth="yes"/>
    </contour>
  </outline>
</glyph>
<glyph name="uni121B" format="2">
  <advance width="1321"/>
  <unicode hex="121B"/>
  <outline>
    <contour>
      <point x="1240.88" y="1099.57" type="curve"/>
      <point x="1240.88" y="1099.57"/>
      <point x="1233.54" y="1010.28"/>
      <point x="1229.82" y="967.271" type="curve" smooth="yes"/>
      <point x="1150.57" y="50.5855" type="line" smooth="yes"/>
      <point x="1148.04" y="21.4173"/>
      <point x="1120.85" y="-0.491209"/>
      <point x="1090.97" y="2.04809" type="curve" smooth="yes"/>
      <point x="1061.11" y="4.58589"/>
      <point x="1038.28" y="30.7824"/>
      <point x="1041" y="60.0066" type="curve" smooth="yes"/>
      <point x="1102.44" y="719.667" type="line"/>
      <point x="1066.99" y="692.256"/>
      <point x="1024.18" y="675.114"/>
      <point x="973.824" y="672.154" type="curve" smooth="yes"/>
      <point x="890.187" y="667.237"/>
      <point x="735.572" y="669.276"/>
      <point x="732.979" y="803.84" type="curve" smooth="yes"/>
      <point x="724.377" y="1250.3" type="line"/>
      <point x="670.31" y="1246.21" type="line"/>
      <point x="550.502" y="721.715" type="line" smooth="yes"/>
      <point x="535.595" y="656.454"/>
      <point x="413.523" y="625.515"/>
      <point x="321.741" y="626.893" type="curve" smooth="yes"/>
      <point x="190.885" y="628.857"/>
      <point x="29.9007" y="687.969"/>
      <point x="29.9007" y="852.378" type="curve" smooth="yes"/>
      <point x="29.9007" y="1338.14"/>
      <point x="513.138" y="1350.59"/>
      <point x="829.03" y="1359.05" type="curve" smooth="yes"/>
      <point x="870.612" y="1360.17"/>
      <point x="916.028" y="1363.97"/>
      <point x="960.717" y="1363.35" type="curve" smooth="yes"/>
      <point x="1006.06" y="1362.72"/>
      <point x="1052.28" y="1358.3"/>
      <point x="1093.84" y="1344.1" type="curve" smooth="yes"/>
      <point x="1180.36" y="1314.55"/>
      <point x="1252.91" y="1243.44"/>
    </contour>
    <contour>
      <point x="1130.91" y="1099.57" type="curve" smooth="yes"/>
      <point x="1130.91" y="1200.21"/>
      <point x="1090.51" y="1232.85"/>
      <point x="1035.67" y="1246" type="curve" smooth="yes"/>
      <point x="1005.84" y="1253.16"/>
      <point x="970.869" y="1254.42"/>
      <point x="932.455" y="1254.6" type="curve" smooth="yes"/>
      <point x="900.844" y="1254.76"/>
      <point x="868.211" y="1254.2"/>
      <point x="836.608" y="1255.63" type="curve"/>
      <point x="841.933" y="792.781" type="line" smooth="yes"/>
      <point x="842.107" y="777.596"/>
      <point x="867.224" y="779.907"/>
      <point x="890.266" y="778.035" type="curve" smooth="yes"/>
      <point x="923.281" y="775.353"/>
      <point x="958.281" y="778.338"/>
      <point x="967.066" y="778.854" type="curve" smooth="yes"/>
      <point x="1085.97" y="785.843"/>
      <point x="1130.91" y="930.357"/>
    </contour>
    <contour>
      <point x="554.393" y="1240.27" type="line"/>
      <point x="303.925" y="1218.91"/>
      <point x="139.878" y="1106.39"/>
      <point x="139.878" y="850.944" type="curve" smooth="yes"/>
      <point x="139.878" y="785.152"/>
      <point x="208.363" y="730.642"/>
      <point x="327.065" y="734.208" type="curve" smooth="yes"/>
      <point x="368.514" y="735.453"/>
      <point x="440.391" y="733.543"/>
      <point x="448.512" y="769.639" type="curve" smooth="yes"/>
    </contour>
  </outline>
</glyph>
<glyph name="uni121C" format="2">
  <advance width="1524"/>
  <unicode hex="121C"/>
  <outline>
    <contour>
      <point x="1443.23" y="171.213" type="curve" smooth="yes"/>
      <point x="1433.99" y="68.6653"/>
      <point x="1341.06" y="-7.47825"/>
      <point x="1236.17" y="1.4335" type="curve" smooth="yes"/>
      <point x="1132.23" y="10.2655"/>
      <point x="1040.62" y="100.149"/>
      <point x="1051.65" y="203.571" type="curve" smooth="yes"/>
      <point x="1107.56" y="728.064" type="line"/>
      <point x="1069.96" y="698.893"/>
      <point x="1022.44" y="675.012"/>
      <point x="973.824" y="672.153" type="curve" smooth="yes"/>
      <point x="890.198" y="667.236"/>
      <point x="735.573" y="669.253"/>
      <point x="732.979" y="803.84" type="curve" smooth="yes"/>
      <point x="724.377" y="1250.1" type="line"/>
      <point x="670.31" y="1246.21" type="line"/>
      <point x="550.502" y="721.715" type="line" smooth="yes"/>
      <point x="535.595" y="656.454"/>
      <point x="413.523" y="625.515"/>
      <point x="321.741" y="626.893" type="curve" smooth="yes"/>
      <point x="190.885" y="628.857"/>
      <point x="29.9007" y="687.966"/>
      <point x="29.9007" y="852.377" type="curve" smooth="yes"/>
      <point x="29.9007" y="1338.15"/>
      <point x="513.148" y="1350.6"/>
      <point x="829.03" y="1359.05" type="curve" smooth="yes"/>
      <point x="870.605" y="1360.17"/>
      <point x="915.934" y="1363.97"/>
      <point x="960.717" y="1363.35" type="curve" smooth="yes"/>
      <point x="1006.15" y="1362.73"/>
      <point x="1052.62" y="1358.28"/>
      <point x="1094.25" y="1344.1" type="curve" smooth="yes"/>
      <point x="1180.95" y="1314.57"/>
      <point x="1241.43" y="1244.57"/>
      <point x="1240.88" y="1100.19" type="curve" smooth="yes"/>
      <point x="1240.17" y="910.404"/>
      <point x="1191.22" y="485.038"/>
      <point x="1176.58" y="357.376" type="curve"/>
      <point x="1206.1" y="370.437"/>
      <point x="1237.24" y="375.908"/>
      <point x="1269.76" y="373.145" type="curve" smooth="yes"/>
      <point x="1374.35" y="364.259"/>
      <point x="1452.46" y="273.776"/>
    </contour>
    <contour>
      <point x="1130.91" y="1099.57" type="curve" smooth="yes"/>
      <point x="1130.91" y="1200.21"/>
      <point x="1090.51" y="1232.85"/>
      <point x="1035.67" y="1246" type="curve" smooth="yes"/>
      <point x="1005.84" y="1253.16"/>
      <point x="970.869" y="1254.42"/>
      <point x="932.455" y="1254.6" type="curve" smooth="yes"/>
      <point x="900.844" y="1254.76"/>
      <point x="868.211" y="1254.2"/>
      <point x="836.608" y="1255.63" type="curve"/>
      <point x="841.933" y="792.781" type="line" smooth="yes"/>
      <point x="842.107" y="777.596"/>
      <point x="867.224" y="779.907"/>
      <point x="890.266" y="778.035" type="curve" smooth="yes"/>
      <point x="923.281" y="775.353"/>
      <point x="958.282" y="778.338"/>
      <point x="967.066" y="778.854" type="curve" smooth="yes"/>
      <point x="1085.98" y="785.844"/>
      <point x="1130.91" y="930.343"/>
    </contour>
    <contour>
      <point x="1333.66" y="180.429" type="curve" smooth="yes"/>
      <point x="1337.6" y="224.189"/>
      <point x="1304.69" y="262.865"/>
      <point x="1260.13" y="266.65" type="curve" smooth="yes"/>
      <point x="1214.46" y="270.53"/>
      <point x="1175.18" y="237.988"/>
      <point x="1171.25" y="194.355" type="curve" smooth="yes"/>
      <point x="1167.32" y="150.721"/>
      <point x="1200.12" y="111.81"/>
      <point x="1245.8" y="107.93" type="curve" smooth="yes"/>
      <point x="1290.35" y="104.144"/>
      <point x="1329.72" y="136.671"/>
    </contour>
    <contour>
      <point x="554.393" y="1240.27" type="line"/>
      <point x="303.926" y="1218.91"/>
      <point x="139.878" y="1106.39"/>
      <point x="139.878" y="850.944" type="curve" smooth="yes"/>
      <point x="139.878" y="785.147"/>
      <point x="208.355" y="730.641"/>
      <point x="327.065" y="734.208" type="curve" smooth="yes"/>
      <point x="368.518" y="735.454"/>
      <point x="440.394" y="733.335"/>
      <point x="448.512" y="769.434" type="curve" smooth="yes"/>
    </contour>
  </outline>
</glyph>
<glyph name="uni121D" format="2">
  <advance width="1423"/>
  <unicode hex="121D"/>
  <outline>
    <contour>
      <point x="1343.49" y="1099.57" type="curve" smooth="yes"/>
      <point x="1343.49" y="896.338"/>
      <point x="1268.82" y="683.275"/>
      <point x="1076.22" y="671.949" type="curve" smooth="yes"/>
      <point x="992.592" y="667.031"/>
      <point x="838.179" y="668.919"/>
      <point x="835.584" y="803.635" type="curve" smooth="yes"/>
      <point x="826.983" y="1250.1" type="line"/>
      <point x="772.711" y="1246.21" type="line"/>
      <point x="652.903" y="721.715" type="line" smooth="yes"/>
      <point x="649.785" y="708.067"/>
      <point x="637.71" y="690.445"/>
      <point x="622.592" y="678.298" type="curve"/>
      <point x="129.024" y="15.9746" type="line" smooth="yes"/>
      <point x="111.075" y="-8.11165"/>
      <point x="77.1791" y="-12.8074"/>
      <point x="53.2481" y="3.6866" type="curve" smooth="yes"/>
      <point x="28.4969" y="20.7458"/>
      <point x="22.2731" y="54.0216"/>
      <point x="40.7554" y="78.6433" type="curve" smooth="yes"/>
      <point x="452.608" y="627.303" type="line"/>
      <point x="313.948" y="620.202"/>
      <point x="132.506" y="678.396"/>
      <point x="132.506" y="852.378" type="curve" smooth="yes"/>
      <point x="132.506" y="1338.22"/>
      <point x="615.565" y="1350.59"/>
      <point x="931.431" y="1359.05" type="curve" smooth="yes"/>
      <point x="973.043" y="1360.17"/>
      <point x="1018.41" y="1363.98"/>
      <point x="1063.12" y="1363.35" type="curve" smooth="yes"/>
      <point x="1108.48" y="1362.72"/>
      <point x="1154.88" y="1358.34"/>
      <point x="1196.44" y="1344.1" type="curve" smooth="yes"/>
      <point x="1283" y="1314.45"/>
      <point x="1343.49" y="1244.29"/>
    </contour>
    <contour>
      <point x="1233.51" y="1099.57" type="curve" smooth="yes"/>
      <point x="1233.51" y="1200.22"/>
      <point x="1192.91" y="1232.85"/>
      <point x="1138.07" y="1246" type="curve" smooth="yes"/>
      <point x="1108.24" y="1253.16"/>
      <point x="1073.27" y="1254.42"/>
      <point x="1034.85" y="1254.6" type="curve" smooth="yes"/>
      <point x="1003.24" y="1254.76"/>
      <point x="970.815" y="1254.2"/>
      <point x="939.213" y="1255.63" type="curve"/>
      <point x="944.537" y="792.781" type="line" smooth="yes"/>
      <point x="944.712" y="777.594"/>
      <point x="969.624" y="779.907"/>
      <point x="992.666" y="778.035" type="curve" smooth="yes"/>
      <point x="1025.68" y="775.353"/>
      <point x="1060.89" y="778.133"/>
      <point x="1069.67" y="778.65" type="curve" smooth="yes"/>
      <point x="1188.58" y="785.64"/>
      <point x="1233.51" y="930.329"/>
    </contour>
    <contour>
      <point x="656.998" y="1240.27" type="line"/>
      <point x="406.531" y="1218.91"/>
      <point x="242.483" y="1106.24"/>
      <point x="242.483" y="850.739" type="curve" smooth="yes"/>
      <point x="242.483" y="784.933"/>
      <point x="310.755" y="730.641"/>
      <point x="429.465" y="734.208" type="curve" smooth="yes"/>
      <point x="470.918" y="735.454"/>
      <point x="542.778" y="733.333"/>
      <point x="550.912" y="769.434" type="curve" smooth="yes"/>
    </contour>
  </outline>
</glyph>
<glyph name="uni121E" format="2">
  <advance width="1321"/>
  <unicode hex="121E"/>
  <outline>
    <contour>
      <point x="1240.88" y="1099.57" type="curve" smooth="yes"/>
      <point x="1240.88" y="896.364"/>
      <point x="1166.42" y="683.48"/>
      <point x="973.824" y="672.154" type="curve" smooth="yes"/>
      <point x="890.191" y="667.235"/>
      <point x="735.575" y="669.174"/>
      <point x="732.979" y="803.84" type="curve" smooth="yes"/>
      <point x="724.378" y="1250.1" type="line"/>
      <point x="670.515" y="1246.21" type="line"/>
      <point x="411.648" y="42.1887" type="line" smooth="yes"/>
      <point x="405.66" y="14.3387"/>
      <point x="378.154" y="-5.52476"/>
      <point x="347.136" y="0.409491" type="curve" smooth="yes"/>
      <point x="317.763" y="6.02924"/>
      <point x="297.899" y="34.5047"/>
      <point x="303.923" y="63.2832" type="curve" smooth="yes"/>
      <point x="424.141" y="637.543" type="line"/>
      <point x="391.714" y="630.162"/>
      <point x="356.245" y="626.17"/>
      <point x="321.741" y="626.688" type="curve" smooth="yes"/>
      <point x="190.917" y="628.652"/>
      <point x="29.9008" y="687.948"/>
      <point x="29.9008" y="852.378" type="curve" smooth="yes"/>
      <point x="29.9008" y="1068.13"/>
      <point x="169.12" y="1330.62"/>
      <point x="534.119" y="1346.36" type="curve" smooth="yes"/>
      <point x="828.621" y="1359.05" type="line" smooth="yes"/>
      <point x="870.313" y="1360.85"/>
      <point x="915.871" y="1363.98"/>
      <point x="960.717" y="1363.35" type="curve" smooth="yes"/>
      <point x="1006.08" y="1362.72"/>
      <point x="1052.27" y="1358.34"/>
      <point x="1093.84" y="1344.1" type="curve" smooth="yes"/>
      <point x="1180.39" y="1314.46"/>
      <point x="1240.88" y="1244.28"/>
    </contour>
    <contour>
      <point x="1130.91" y="1099.57" type="curve" smooth="yes"/>
      <point x="1130.91" y="1200.21"/>
      <point x="1090.51" y="1232.85"/>
      <point x="1035.67" y="1246" type="curve" smooth="yes"/>
      <point x="1005.84" y="1253.16"/>
      <point x="970.869" y="1254.42"/>
      <point x="932.455" y="1254.6" type="curve" smooth="yes"/>
      <point x="900.844" y="1254.76"/>
      <point x="868.211" y="1254.2"/>
      <point x="836.608" y="1255.63" type="curve"/>
      <point x="841.933" y="792.781" type="line" smooth="yes"/>
      <point x="842.107" y="777.595"/>
      <point x="867.224" y="779.907"/>
      <point x="890.266" y="778.035" type="curve" smooth="yes"/>
      <point x="923.283" y="775.353"/>
      <point x="958.281" y="778.338"/>
      <point x="967.066" y="778.855" type="curve" smooth="yes"/>
      <point x="1086" y="785.846"/>
      <point x="1130.91" y="930.341"/>
    </contour>
    <contour>
      <point x="554.599" y="1240.68" type="line"/>
      <point x="544.973" y="1240.06" type="line" smooth="yes"/>
      <point x="189.939" y="1217.4"/>
      <point x="139.879" y="973.544"/>
      <point x="139.879" y="850.944" type="curve" smooth="yes"/>
      <point x="139.879" y="785.144"/>
      <point x="208.354" y="730.64"/>
      <point x="327.066" y="734.208" type="curve" smooth="yes"/>
      <point x="368.531" y="735.454"/>
      <point x="440.386" y="733.337"/>
      <point x="448.512" y="769.433" type="curve" smooth="yes"/>
    </contour>
  </outline>
</glyph>
<glyph name="uni121F" format="2">
  <advance width="1673"/>
  <unicode hex="121F"/>
  <outline>
    <contour>
      <point x="1592.93" y="232.448" type="curve" smooth="yes"/>
      <point x="1592.93" y="203.417"/>
      <point x="1567.97" y="178.13"/>
      <point x="1537.84" y="178.176" type="curve" smooth="yes"/>
      <point x="737.28" y="179.405" type="line" smooth="yes"/>
      <point x="707.26" y="179.451"/>
      <point x="682.393" y="203.568"/>
      <point x="682.393" y="232.653" type="curve" smooth="yes"/>
      <point x="682.393" y="262.414"/>
      <point x="708.132" y="285.975"/>
      <point x="737.485" y="285.901" type="curve" smooth="yes"/>
      <point x="1060.86" y="285.081" type="line"/>
      <point x="1102.23" y="722.329" type="line"/>
      <point x="1066.79" y="695.06"/>
      <point x="1024.14" y="677.966"/>
      <point x="973.824" y="675.021" type="curve" smooth="yes"/>
      <point x="890.197" y="670.126"/>
      <point x="735.571" y="672.1"/>
      <point x="732.979" y="806.093" type="curve" smooth="yes"/>
      <point x="724.377" y="1250.71" type="line"/>
      <point x="670.31" y="1246.62" type="line"/>
      <point x="550.502" y="724.377" type="line" smooth="yes"/>
      <point x="535.594" y="659.39"/>
      <point x="413.522" y="628.593"/>
      <point x="321.741" y="629.964" type="curve" smooth="yes"/>
      <point x="190.886" y="631.92"/>
      <point x="29.9006" y="690.915"/>
      <point x="29.9006" y="854.63" type="curve" smooth="yes"/>
      <point x="29.9006" y="1338.35"/>
      <point x="513.108" y="1350.63"/>
      <point x="829.03" y="1359.05" type="curve" smooth="yes"/>
      <point x="870.616" y="1360.16"/>
      <point x="916.028" y="1363.97"/>
      <point x="960.717" y="1363.35" type="curve" smooth="yes"/>
      <point x="1006.06" y="1362.73"/>
      <point x="1052.28" y="1358.44"/>
      <point x="1093.84" y="1344.31" type="curve" smooth="yes"/>
      <point x="1180.37" y="1314.88"/>
      <point x="1252.92" y="1243.87"/>
      <point x="1240.88" y="1100.59" type="curve"/>
      <point x="1240.88" y="1100.59"/>
      <point x="1233.5" y="1011.73"/>
      <point x="1229.82" y="968.908" type="curve" smooth="yes"/>
      <point x="1171.05" y="284.876" type="line"/>
      <point x="1538.05" y="284.672" type="line" smooth="yes"/>
      <point x="1567.3" y="284.655"/>
      <point x="1592.93" y="262.26"/>
    </contour>
    <contour>
      <point x="1130.91" y="1100.8" type="curve" smooth="yes"/>
      <point x="1130.91" y="1201.01"/>
      <point x="1090.51" y="1233.32"/>
      <point x="1035.67" y="1246.41" type="curve" smooth="yes"/>
      <point x="1005.84" y="1253.54"/>
      <point x="970.869" y="1255.03"/>
      <point x="932.455" y="1255.22" type="curve" smooth="yes"/>
      <point x="900.844" y="1255.37"/>
      <point x="868.211" y="1254.82"/>
      <point x="836.608" y="1256.24" type="curve"/>
      <point x="841.933" y="795.239" type="line" smooth="yes"/>
      <point x="842.107" y="780.115"/>
      <point x="867.221" y="782.357"/>
      <point x="890.266" y="780.493" type="curve" smooth="yes"/>
      <point x="923.284" y="777.822"/>
      <point x="958.283" y="780.798"/>
      <point x="967.066" y="781.312" type="curve" smooth="yes"/>
      <point x="1085.93" y="788.268"/>
      <point x="1130.91" y="932.303"/>
    </contour>
    <contour>
      <point x="554.393" y="1240.88" type="line"/>
      <point x="303.925" y="1219.61"/>
      <point x="139.878" y="1107.36"/>
      <point x="139.878" y="852.992" type="curve" smooth="yes"/>
      <point x="139.878" y="787.476"/>
      <point x="208.356" y="733.32"/>
      <point x="327.065" y="736.871" type="curve" smooth="yes"/>
      <point x="368.496" y="738.11"/>
      <point x="440.393" y="736.15"/>
      <point x="448.512" y="772.096" type="curve" smooth="yes"/>
    </contour>
  </outline>
</glyph>
<glyph name="uni1220" format="2">
  <advance width="1362"/>
  <unicode hex="1220"/>
  <outline>
    <contour>
      <point x="1275.9" y="1137.66" type="curve" smooth="yes"/>
      <point x="1292.84" y="1004.9"/>
      <point x="1277.74" y="885.775"/>
      <point x="1210.57" y="764.928" type="curve" smooth="yes"/>
      <point x="1144.24" y="645.584"/>
      <point x="1016.37" y="625.929"/>
      <point x="893.543" y="616.653" type="curve" smooth="yes"/>
      <point x="797.918" y="609.431"/>
      <point x="739.436" y="651.976"/>
      <point x="703.488" y="711.68" type="curve"/>
      <point x="689.471" y="669.453"/>
      <point x="672.632" y="626.742"/>
      <point x="652.698" y="585.113" type="curve" smooth="yes"/>
      <point x="595.398" y="465.455"/>
      <point x="427.75" y="399.508"/>
      <point x="286.311" y="391.168" type="curve" smooth="yes"/>
      <point x="149.639" y="383.109"/>
      <point x="2.98706" y="430.744"/>
      <point x="33.9968" y="569.753" type="curve" smooth="yes"/>
      <point x="140.903" y="1048.99" type="line" smooth="yes"/>
      <point x="148.494" y="1083.02"/>
      <point x="180.279" y="1094.74"/>
      <point x="206.029" y="1089.54" type="curve" smooth="yes"/>
      <point x="231.787" y="1084.33"/>
      <point x="256.011" y="1061.32"/>
      <point x="248.423" y="1027.28" type="curve" smooth="yes"/>
      <point x="141.312" y="546.816" type="line" smooth="yes"/>
      <point x="129.402" y="493.392"/>
      <point x="213.836" y="487.087"/>
      <point x="304.743" y="498.483" type="curve" smooth="yes"/>
      <point x="409.561" y="511.623"/>
      <point x="519.209" y="558.903"/>
      <point x="552.551" y="628.531" type="curve" smooth="yes"/>
      <point x="589.353" y="705.386"/>
      <point x="637.847" y="901.153"/>
      <point x="646.554" y="1094.04" type="curve" smooth="yes"/>
      <point x="648.083" y="1127.92"/>
      <point x="675.975" y="1145.59"/>
      <point x="702.259" y="1145.65" type="curve" smooth="yes"/>
      <point x="728.771" y="1145.71"/>
      <point x="756.456" y="1127.78"/>
      <point x="756.531" y="1093.43" type="curve" smooth="yes"/>
      <point x="756.59" y="1066.65"/>
      <point x="753.94" y="1027.91"/>
      <point x="752.845" y="984.883" type="curve" smooth="yes"/>
      <point x="751.781" y="943.082"/>
      <point x="752.345" y="897.176"/>
      <point x="758.784" y="855.04" type="curve" smooth="yes"/>
      <point x="771.779" y="770"/>
      <point x="805.627" y="715.111"/>
      <point x="884.941" y="721.1" type="curve" smooth="yes"/>
      <point x="980.959" y="728.352"/>
      <point x="1074.07" y="741.594"/>
      <point x="1112.47" y="814.284" type="curve" smooth="yes"/>
      <point x="1173.42" y="929.657"/>
      <point x="1179.38" y="1026.16"/>
      <point x="1166.75" y="1125.17" type="curve" smooth="yes"/>
      <point x="1162.34" y="1159.69"/>
      <point x="1188.59" y="1180.32"/>
      <point x="1214.67" y="1183.33" type="curve" smooth="yes"/>
      <point x="1240.75" y="1186.35"/>
      <point x="1271.5" y="1172.18"/>
    </contour>
  </outline>
</glyph>
<glyph name="uni1221" format="2">
  <advance width="1746"/>
  <unicode hex="1221"/>
  <outline>
    <contour>
      <point x="1666.05" y="885.76" type="curve" smooth="yes"/>
      <point x="1666.05" y="855.809"/>
      <point x="1640.54" y="832.578"/>
      <point x="1610.96" y="832.512" type="curve" smooth="yes"/>
      <point x="1242.32" y="831.693" type="line"/>
      <point x="1234.03" y="810.392"/>
      <point x="1223.6" y="788.369"/>
      <point x="1210.57" y="764.928" type="curve" smooth="yes"/>
      <point x="1144.25" y="645.605"/>
      <point x="1016.37" y="625.93"/>
      <point x="893.542" y="616.653" type="curve" smooth="yes"/>
      <point x="797.925" y="609.431"/>
      <point x="739.436" y="651.976"/>
      <point x="703.488" y="711.68" type="curve"/>
      <point x="689.472" y="669.453"/>
      <point x="672.632" y="626.743"/>
      <point x="652.697" y="585.113" type="curve" smooth="yes"/>
      <point x="595.396" y="465.454"/>
      <point x="427.749" y="399.507"/>
      <point x="286.31" y="391.168" type="curve" smooth="yes"/>
      <point x="149.639" y="383.11"/>
      <point x="2.98697" y="430.744"/>
      <point x="33.9967" y="569.753" type="curve" smooth="yes"/>
      <point x="140.902" y="1048.99" type="line" smooth="yes"/>
      <point x="148.493" y="1083.01"/>
      <point x="180.291" y="1094.73"/>
      <point x="206.029" y="1089.54" type="curve" smooth="yes"/>
      <point x="231.77" y="1084.34"/>
      <point x="256.01" y="1061.31"/>
      <point x="248.422" y="1027.28" type="curve" smooth="yes"/>
      <point x="141.312" y="546.816" type="line" smooth="yes"/>
      <point x="129.402" y="493.392"/>
      <point x="213.836" y="487.087"/>
      <point x="304.742" y="498.483" type="curve" smooth="yes"/>
      <point x="409.561" y="511.623"/>
      <point x="519.209" y="558.905"/>
      <point x="552.55" y="628.531" type="curve" smooth="yes"/>
      <point x="589.373" y="705.427"/>
      <point x="641.649" y="921.866"/>
      <point x="646.553" y="1093.84" type="curve" smooth="yes"/>
      <point x="647.528" y="1128.03"/>
      <point x="675.767" y="1145.59"/>
      <point x="702.054" y="1145.65" type="curve" smooth="yes"/>
      <point x="728.483" y="1145.71"/>
      <point x="756.455" y="1127.93"/>
      <point x="756.531" y="1093.43" type="curve" smooth="yes"/>
      <point x="756.591" y="1066.65"/>
      <point x="753.94" y="1027.91"/>
      <point x="752.845" y="984.883" type="curve" smooth="yes"/>
      <point x="751.781" y="943.082"/>
      <point x="752.346" y="897.176"/>
      <point x="758.784" y="855.04" type="curve" smooth="yes"/>
      <point x="771.778" y="770"/>
      <point x="805.626" y="715.11"/>
      <point x="884.941" y="721.1" type="curve" smooth="yes"/>
      <point x="980.929" y="728.35"/>
      <point x="1074.07" y="741.594"/>
      <point x="1112.47" y="814.284" type="curve" smooth="yes"/>
      <point x="1173.42" y="929.648"/>
      <point x="1179.38" y="1026.17"/>
      <point x="1166.75" y="1125.17" type="curve" smooth="yes"/>
      <point x="1162.34" y="1159.69"/>
      <point x="1188.59" y="1180.32"/>
      <point x="1214.67" y="1183.33" type="curve" smooth="yes"/>
      <point x="1240.75" y="1186.35"/>
      <point x="1271.5" y="1172.19"/>
      <point x="1275.9" y="1137.66" type="curve" smooth="yes"/>
      <point x="1284.17" y="1072.86"/>
      <point x="1276.19" y="993.255"/>
      <point x="1268.33" y="937.164" type="curve"/>
      <point x="1610.96" y="937.164" type="line" smooth="yes"/>
      <point x="1640.24" y="937.164"/>
      <point x="1666.05" y="915.074"/>
    </contour>
  </outline>
</glyph>
<glyph name="uni1222" format="2">
  <advance width="1369"/>
  <unicode hex="1222"/>
  <outline>
    <contour>
      <point x="1289.22" y="52.224" type="curve" smooth="yes"/>
      <point x="1289.22" y="22.5095"/>
      <point x="1264.61" y="-2.12"/>
      <point x="1234.12" y="-2.048" type="curve" smooth="yes"/>
      <point x="801.177" y="-1.024" type="line" smooth="yes"/>
      <point x="772.324" y="-0.956001"/>
      <point x="745.062" y="21.125"/>
      <point x="745.062" y="54.6815" type="curve"/>
      <point x="917.504" y="732.979" type="line"/>
      <point x="876.995" y="727.406"/>
      <point x="802.612" y="718.153"/>
      <point x="741.581" y="715.571" type="curve" smooth="yes"/>
      <point x="647.622" y="711.596"/>
      <point x="589.831" y="746.956"/>
      <point x="553.779" y="805.273" type="curve"/>
      <point x="541.104" y="764.866"/>
      <point x="526.622" y="725.834"/>
      <point x="506.88" y="683.827" type="curve" smooth="yes"/>
      <point x="449.622" y="561.996"/>
      <point x="317.894" y="518.548"/>
      <point x="209.101" y="536.371" type="curve" smooth="yes"/>
      <point x="99.6994" y="554.294"/>
      <point x="5.8702" y="636.489"/>
      <point x="35.4304" y="768.409" type="curve" smooth="yes"/>
      <point x="126.157" y="1173.3" type="line" smooth="yes"/>
      <point x="133.913" y="1207.91"/>
      <point x="165.698" y="1219.98"/>
      <point x="191.488" y="1214.67" type="curve" smooth="yes"/>
      <point x="217.317" y="1209.35"/>
      <point x="241.443" y="1185.68"/>
      <point x="233.677" y="1150.98" type="curve" smooth="yes"/>
      <point x="142.745" y="744.653" type="line" smooth="yes"/>
      <point x="132.212" y="697.583"/>
      <point x="173.11" y="656.085"/>
      <point x="238.387" y="645.325" type="curve" smooth="yes"/>
      <point x="301.269" y="634.959"/>
      <point x="373.481" y="657.311"/>
      <point x="406.733" y="728.064" type="curve" smooth="yes"/>
      <point x="443.67" y="806.659"/>
      <point x="498.298" y="1012.89"/>
      <point x="500.736" y="1201.77" type="curve" smooth="yes"/>
      <point x="501.189" y="1236.92"/>
      <point x="529.527" y="1254.96"/>
      <point x="555.827" y="1255.01" type="curve" smooth="yes"/>
      <point x="582.187" y="1255.06"/>
      <point x="610.638" y="1237.06"/>
      <point x="610.713" y="1201.77" type="curve" smooth="yes"/>
      <point x="610.773" y="1173.66"/>
      <point x="607.98" y="1133.96"/>
      <point x="606.822" y="1090.56" type="curve" smooth="yes"/>
      <point x="605.699" y="1048.44"/>
      <point x="606.172" y="1002.53"/>
      <point x="612.557" y="960.307" type="curve" smooth="yes"/>
      <point x="625.357" y="875.649"/>
      <point x="659.266" y="819.288"/>
      <point x="739.942" y="822.272" type="curve" smooth="yes"/>
      <point x="845.336" y="826.17"/>
      <point x="919.521" y="840.497"/>
      <point x="946.585" y="846.438" type="curve"/>
      <point x="1050.83" y="1249.08" type="line" smooth="yes"/>
      <point x="1057.95" y="1276.59"/>
      <point x="1086.59" y="1294.91"/>
      <point x="1116.36" y="1288.6" type="curve" smooth="yes"/>
      <point x="1139.4" y="1283.72"/>
      <point x="1162.74" y="1260.45"/>
      <point x="1157.53" y="1239.86" type="curve" smooth="yes"/>
      <point x="870.605" y="106.496" type="line"/>
      <point x="1234.12" y="105.677" type="line" smooth="yes"/>
      <point x="1264.08" y="105.609"/>
      <point x="1289.22" y="81.4121"/>
    </contour>
  </outline>
</glyph>
<glyph name="uni1223" format="2">
  <advance width="1241"/>
  <unicode hex="1223"/>
  <outline>
    <contour>
      <point x="1159.58" y="1239.65" type="curve" smooth="yes"/>
      <point x="849.511" y="40.9601" type="line" smooth="yes"/>
      <point x="842.394" y="13.4463"/>
      <point x="813.74" y="-4.87267"/>
      <point x="783.975" y="1.43358" type="curve" smooth="yes"/>
      <point x="760.929" y="6.31608"/>
      <point x="737.545" y="29.5908"/>
      <point x="742.81" y="50.1761" type="curve" smooth="yes"/>
      <point x="917.504" y="733.184" type="line"/>
      <point x="876.978" y="727.611"/>
      <point x="802.564" y="718.152"/>
      <point x="741.581" y="715.571" type="curve" smooth="yes"/>
      <point x="647.631" y="711.596"/>
      <point x="589.832" y="746.96"/>
      <point x="553.779" y="805.274" type="curve"/>
      <point x="541.104" y="764.868"/>
      <point x="526.624" y="725.835"/>
      <point x="506.88" y="683.827" type="curve" smooth="yes"/>
      <point x="449.621" y="562.001"/>
      <point x="317.887" y="518.56"/>
      <point x="209.101" y="536.371" type="curve" smooth="yes"/>
      <point x="99.6913" y="554.285"/>
      <point x="5.86855" y="636.481"/>
      <point x="35.4305" y="768.41" type="curve" smooth="yes"/>
      <point x="126.157" y="1173.3" type="line" smooth="yes"/>
      <point x="133.913" y="1207.92"/>
      <point x="165.699" y="1219.98"/>
      <point x="191.488" y="1214.67" type="curve" smooth="yes"/>
      <point x="217.316" y="1209.35"/>
      <point x="241.443" y="1185.68"/>
      <point x="233.677" y="1150.98" type="curve" smooth="yes"/>
      <point x="142.746" y="744.653" type="line" smooth="yes"/>
      <point x="132.213" y="697.587"/>
      <point x="173.111" y="656.083"/>
      <point x="238.387" y="645.325" type="curve" smooth="yes"/>
      <point x="301.271" y="634.961"/>
      <point x="373.479" y="657.311"/>
      <point x="406.733" y="728.064" type="curve" smooth="yes"/>
      <point x="443.67" y="806.655"/>
      <point x="498.299" y="1012.91"/>
      <point x="500.736" y="1201.77" type="curve" smooth="yes"/>
      <point x="501.19" y="1236.91"/>
      <point x="529.529" y="1254.96"/>
      <point x="555.827" y="1255.01" type="curve" smooth="yes"/>
      <point x="582.188" y="1255.07"/>
      <point x="610.639" y="1236.85"/>
      <point x="610.714" y="1201.56" type="curve" smooth="yes"/>
      <point x="610.773" y="1173.45"/>
      <point x="607.979" y="1133.96"/>
      <point x="606.823" y="1090.56" type="curve" smooth="yes"/>
      <point x="605.7" y="1048.44"/>
      <point x="606.172" y="1002.53"/>
      <point x="612.557" y="960.307" type="curve" smooth="yes"/>
      <point x="625.36" y="875.648"/>
      <point x="659.273" y="819.288"/>
      <point x="739.943" y="822.272" type="curve" smooth="yes"/>
      <point x="845.41" y="826.174"/>
      <point x="919.774" y="840.506"/>
      <point x="946.791" y="846.438" type="curve"/>
      <point x="1052.67" y="1249.28" type="line" smooth="yes"/>
      <point x="1059.87" y="1276.66"/>
      <point x="1088.58" y="1294.92"/>
      <point x="1118.41" y="1288.6" type="curve" smooth="yes"/>
      <point x="1141.47" y="1283.72"/>
      <point x="1164.9" y="1260.24"/>
    </contour>
  </outline>
</glyph>
<glyph name="uni1224" format="2">
  <advance width="1267"/>
  <unicode hex="1224"/>
  <outline>
    <contour>
      <point x="1187.23" y="185.344" type="curve" smooth="yes"/>
      <point x="1187.23" y="82.452"/>
      <point x="1101.16" y="-1.024"/>
      <point x="995.123" y="-1.024" type="curve" smooth="yes"/>
      <point x="929.891" y="-1.024"/>
      <point x="871.339" y="30.8535"/>
      <point x="836.608" y="79.872" type="curve"/>
      <point x="791.361" y="126.698"/>
      <point x="799.268" y="227.008"/>
      <point x="803.225" y="256.819" type="curve" smooth="yes"/>
      <point x="803.638" y="259.928"/>
      <point x="803.784" y="263.21"/>
      <point x="804.659" y="266.649" type="curve" smooth="yes"/>
      <point x="924.467" y="737.28" type="line"/>
      <point x="881.957" y="730.261"/>
      <point x="803.164" y="718.382"/>
      <point x="741.581" y="715.776" type="curve" smooth="yes"/>
      <point x="647.629" y="711.799"/>
      <point x="589.832" y="747.349"/>
      <point x="553.779" y="805.683" type="curve"/>
      <point x="541.104" y="765.264"/>
      <point x="526.623" y="726.052"/>
      <point x="506.88" y="684.032" type="curve" smooth="yes"/>
      <point x="449.624" y="562.169"/>
      <point x="317.886" y="518.764"/>
      <point x="209.101" y="536.576" type="curve" smooth="yes"/>
      <point x="99.6923" y="554.49"/>
      <point x="5.86876" y="636.62"/>
      <point x="35.4305" y="768.614" type="curve" smooth="yes"/>
      <point x="126.157" y="1173.71" type="line" smooth="yes"/>
      <point x="133.912" y="1208.34"/>
      <point x="165.689" y="1220.4"/>
      <point x="191.488" y="1215.08" type="curve" smooth="yes"/>
      <point x="217.318" y="1209.75"/>
      <point x="241.441" y="1186.1"/>
      <point x="233.677" y="1151.39" type="curve" smooth="yes"/>
      <point x="142.746" y="744.857" type="line" smooth="yes"/>
      <point x="132.215" y="697.777"/>
      <point x="173.111" y="656.292"/>
      <point x="238.387" y="645.529" type="curve" smooth="yes"/>
      <point x="301.272" y="635.161"/>
      <point x="373.482" y="657.496"/>
      <point x="406.733" y="728.269" type="curve" smooth="yes"/>
      <point x="443.671" y="806.89"/>
      <point x="498.3" y="1013.29"/>
      <point x="500.736" y="1202.18" type="curve" smooth="yes"/>
      <point x="501.189" y="1237.33"/>
      <point x="529.531" y="1255.37"/>
      <point x="555.827" y="1255.42" type="curve" smooth="yes"/>
      <point x="582.188" y="1255.48"/>
      <point x="610.639" y="1237.28"/>
      <point x="610.714" y="1201.97" type="curve" smooth="yes"/>
      <point x="610.773" y="1173.85"/>
      <point x="607.979" y="1134.39"/>
      <point x="606.823" y="1090.97" type="curve" smooth="yes"/>
      <point x="605.7" y="1048.84"/>
      <point x="606.171" y="1002.96"/>
      <point x="612.557" y="960.717" type="curve" smooth="yes"/>
      <point x="625.36" y="876.03"/>
      <point x="659.271" y="819.492"/>
      <point x="739.942" y="822.477" type="curve" smooth="yes"/>
      <point x="845.612" y="826.387"/>
      <point x="920.094" y="840.726"/>
      <point x="946.995" y="846.643" type="curve"/>
      <point x="1061.07" y="1262.18" type="line" smooth="yes"/>
      <point x="1070.22" y="1295.52"/>
      <point x="1101.67" y="1307.54"/>
      <point x="1127.22" y="1302.94" type="curve" smooth="yes"/>
      <point x="1153.4" y="1298.22"/>
      <point x="1177.54" y="1274.94"/>
      <point x="1168.59" y="1240.06" type="curve" smooth="yes"/>
      <point x="943.923" y="364.953" type="line"/>
      <point x="960.22" y="369.358"/>
      <point x="977.393" y="371.507"/>
      <point x="995.123" y="371.507" type="curve" smooth="yes"/>
      <point x="1101.16" y="371.507"/>
      <point x="1187.23" y="288.236"/>
    </contour>
    <contour>
      <point x="1077.25" y="185.344" type="curve" smooth="yes"/>
      <point x="1077.25" y="229.808"/>
      <point x="1040.21" y="264.806"/>
      <point x="995.123" y="264.806" type="curve" smooth="yes"/>
      <point x="950.041" y="264.806"/>
      <point x="913.203" y="229.808"/>
      <point x="913.203" y="185.344" type="curve" smooth="yes"/>
      <point x="913.203" y="141.976"/>
      <point x="949.912" y="106.701"/>
      <point x="995.123" y="106.701" type="curve" smooth="yes"/>
      <point x="1040.34" y="106.701"/>
      <point x="1077.25" y="141.976"/>
    </contour>
  </outline>
</glyph>
<glyph name="uni1225" format="2">
  <advance width="1407"/>
  <unicode hex="1225"/>
  <outline>
    <contour>
      <point x="1320.76" y="1246.62" type="curve" smooth="yes"/>
      <point x="1337.69" y="1111.34"/>
      <point x="1322.59" y="989.822"/>
      <point x="1255.42" y="866.714" type="curve" smooth="yes"/>
      <point x="1189.13" y="745.199"/>
      <point x="1061.75" y="723.29"/>
      <point x="938.189" y="715.776" type="curve" smooth="yes"/>
      <point x="843.882" y="710.041"/>
      <point x="785.988" y="746.787"/>
      <point x="749.978" y="805.479" type="curve"/>
      <point x="737.31" y="765.113"/>
      <point x="722.805" y="725.797"/>
      <point x="703.079" y="683.827" type="curve" smooth="yes"/>
      <point x="622.35" y="512.066"/>
      <point x="391.13" y="493.675"/>
      <point x="282.829" y="592.691" type="curve"/>
      <point x="137.831" y="44.8513" type="line" smooth="yes"/>
      <point x="130.606" y="17.5525"/>
      <point x="101.951" y="-1"/>
      <point x="72.0895" y="5.32525" type="curve" smooth="yes"/>
      <point x="49.0238" y="10.211"/>
      <point x="25.565" y="33.6907"/>
      <point x="30.9248" y="54.2725" type="curve" smooth="yes"/>
      <point x="322.56" y="1174.12" type="line" smooth="yes"/>
      <point x="335.364" y="1223.29"/>
      <point x="391.015" y="1224.79"/>
      <point x="416.973" y="1199.1" type="curve" smooth="yes"/>
      <point x="422.395" y="1193.74"/>
      <point x="429.054" y="1185.89"/>
      <point x="430.08" y="1175.14" type="curve"/>
      <point x="431.798" y="1167.51"/>
      <point x="431.731" y="1159.47"/>
      <point x="429.875" y="1151.18" type="curve" smooth="yes"/>
      <point x="338.944" y="744.858" type="line" smooth="yes"/>
      <point x="328.411" y="697.792"/>
      <point x="369.312" y="656.289"/>
      <point x="434.585" y="645.53" type="curve" smooth="yes"/>
      <point x="497.467" y="635.166"/>
      <point x="569.679" y="657.518"/>
      <point x="602.931" y="728.269" type="curve" smooth="yes"/>
      <point x="639.869" y="806.862"/>
      <point x="694.499" y="1013"/>
      <point x="696.934" y="1201.77" type="curve" smooth="yes"/>
      <point x="697.388" y="1236.91"/>
      <point x="725.938" y="1254.96"/>
      <point x="752.23" y="1255.02" type="curve" smooth="yes"/>
      <point x="778.589" y="1255.07"/>
      <point x="806.837" y="1237.06"/>
      <point x="806.912" y="1201.77" type="curve" smooth="yes"/>
      <point x="806.971" y="1173.6"/>
      <point x="803.872" y="1133.85"/>
      <point x="802.202" y="1090.15" type="curve" smooth="yes"/>
      <point x="800.582" y="1047.79"/>
      <point x="800.369" y="1001.52"/>
      <point x="806.093" y="959.079" type="curve" smooth="yes"/>
      <point x="817.59" y="873.836"/>
      <point x="850.369" y="818.071"/>
      <point x="930.406" y="822.068" type="curve" smooth="yes"/>
      <point x="1025.53" y="826.819"/>
      <point x="1118.89" y="842.972"/>
      <point x="1157.32" y="917.095" type="curve" smooth="yes"/>
      <point x="1218.28" y="1034.64"/>
      <point x="1224.02" y="1132.85"/>
      <point x="1211.39" y="1233.72" type="curve" smooth="yes"/>
      <point x="1206.99" y="1268.89"/>
      <point x="1233.44" y="1290.03"/>
      <point x="1259.52" y="1293.11" type="curve" smooth="yes"/>
      <point x="1285.6" y="1296.18"/>
      <point x="1316.35" y="1281.79"/>
    </contour>
  </outline>
</glyph>
<glyph name="uni1226" format="2">
  <advance width="1211"/>
  <unicode hex="1226"/>
  <outline>
    <contour>
      <point x="1124.56" y="1246.62" type="curve" smooth="yes"/>
      <point x="1141.5" y="1111.33"/>
      <point x="1126.39" y="989.834"/>
      <point x="1059.23" y="866.714" type="curve" smooth="yes"/>
      <point x="992.93" y="745.181"/>
      <point x="865.586" y="723.293"/>
      <point x="741.991" y="715.776" type="curve" smooth="yes"/>
      <point x="649.127" y="710.129"/>
      <point x="591.54" y="745.517"/>
      <point x="555.418" y="802.611" type="curve"/>
      <point x="471.92" y="465.669"/>
      <point x="452.048" y="405.705"/>
      <point x="357.581" y="40.3456" type="curve" smooth="yes"/>
      <point x="348.694" y="5.97357"/>
      <point x="316.295" y="-4.56068"/>
      <point x="290.816" y="1.63857" type="curve" smooth="yes"/>
      <point x="265.34" y="7.83732"/>
      <point x="241.995" y="31.9921"/>
      <point x="250.88" y="66.3553" type="curve" smooth="yes"/>
      <point x="313.484" y="308.483"/>
      <point x="343.189" y="416.336"/>
      <point x="380.519" y="559.719" type="curve"/>
      <point x="223.881" y="489.532"/>
      <point x="-10.52" y="563.239"/>
      <point x="35.4305" y="768.41" type="curve" smooth="yes"/>
      <point x="126.157" y="1173.5" type="line" smooth="yes"/>
      <point x="133.911" y="1208.13"/>
      <point x="165.682" y="1219.99"/>
      <point x="191.488" y="1214.67" type="curve" smooth="yes"/>
      <point x="217.319" y="1209.34"/>
      <point x="241.439" y="1185.88"/>
      <point x="233.677" y="1151.18" type="curve" smooth="yes"/>
      <point x="142.746" y="744.653" type="line" smooth="yes"/>
      <point x="132.218" y="697.585"/>
      <point x="173.114" y="656.085"/>
      <point x="238.387" y="645.325" type="curve" smooth="yes"/>
      <point x="301.269" y="634.959"/>
      <point x="373.481" y="657.308"/>
      <point x="406.733" y="728.064" type="curve" smooth="yes"/>
      <point x="443.672" y="806.666"/>
      <point x="498.301" y="1012.97"/>
      <point x="500.736" y="1201.77" type="curve" smooth="yes"/>
      <point x="501.189" y="1236.91"/>
      <point x="529.535" y="1254.96"/>
      <point x="555.827" y="1255.01" type="curve" smooth="yes"/>
      <point x="582.186" y="1255.07"/>
      <point x="610.639" y="1237.07"/>
      <point x="610.714" y="1201.77" type="curve" smooth="yes"/>
      <point x="610.773" y="1173.6"/>
      <point x="607.674" y="1133.86"/>
      <point x="606.003" y="1090.15" type="curve" smooth="yes"/>
      <point x="604.384" y="1047.79"/>
      <point x="604.171" y="1001.52"/>
      <point x="609.894" y="959.079" type="curve" smooth="yes"/>
      <point x="621.391" y="873.832"/>
      <point x="653.966" y="818.07"/>
      <point x="734.003" y="822.067" type="curve" smooth="yes"/>
      <point x="829.126" y="826.819"/>
      <point x="922.694" y="842.968"/>
      <point x="961.126" y="917.095" type="curve" smooth="yes"/>
      <point x="1022.08" y="1034.66"/>
      <point x="1027.82" y="1132.84"/>
      <point x="1015.19" y="1233.72" type="curve" smooth="yes"/>
      <point x="1010.79" y="1268.89"/>
      <point x="1037.24" y="1290.03"/>
      <point x="1063.32" y="1293.11" type="curve" smooth="yes"/>
      <point x="1089.4" y="1296.18"/>
      <point x="1120.15" y="1281.79"/>
    </contour>
  </outline>
</glyph>
<glyph name="uni1227" format="2">
  <advance width="1410"/>
  <unicode hex="1227"/>
  <outline>
    <contour>
      <point x="1330.38" y="232.243" type="curve" smooth="yes"/>
      <point x="1330.38" y="203.272"/>
      <point x="1305.41" y="178.13"/>
      <point x="1275.29" y="178.176" type="curve" smooth="yes"/>
      <point x="474.726" y="179.405" type="line" smooth="yes"/>
      <point x="444.711" y="179.451"/>
      <point x="419.84" y="203.425"/>
      <point x="419.84" y="232.448" type="curve" smooth="yes"/>
      <point x="419.84" y="262.145"/>
      <point x="445.578" y="285.546"/>
      <point x="474.931" y="285.491" type="curve" smooth="yes"/>
      <point x="800.973" y="284.877" type="line"/>
      <point x="917.504" y="735.846" type="line"/>
      <point x="876.971" y="730.299"/>
      <point x="802.548" y="721.006"/>
      <point x="741.581" y="718.438" type="curve" smooth="yes"/>
      <point x="647.631" y="714.482"/>
      <point x="589.832" y="749.696"/>
      <point x="553.779" y="807.731" type="curve"/>
      <point x="541.104" y="767.52"/>
      <point x="526.623" y="728.499"/>
      <point x="506.88" y="686.694" type="curve" smooth="yes"/>
      <point x="449.624" y="565.457"/>
      <point x="317.881" y="522.146"/>
      <point x="209.101" y="539.853" type="curve" smooth="yes"/>
      <point x="99.7045" y="557.659"/>
      <point x="5.86026" y="639.503"/>
      <point x="35.4305" y="770.867" type="curve" smooth="yes"/>
      <point x="126.157" y="1173.91" type="line" smooth="yes"/>
      <point x="133.913" y="1208.37"/>
      <point x="165.687" y="1220.17"/>
      <point x="191.488" y="1214.87" type="curve" smooth="yes"/>
      <point x="217.318" y="1209.57"/>
      <point x="241.439" y="1186.32"/>
      <point x="233.677" y="1151.8" type="curve" smooth="yes"/>
      <point x="142.746" y="747.315" type="line" smooth="yes"/>
      <point x="132.216" y="700.478"/>
      <point x="173.111" y="659.104"/>
      <point x="238.387" y="648.397" type="curve" smooth="yes"/>
      <point x="301.272" y="638.082"/>
      <point x="373.486" y="660.324"/>
      <point x="406.733" y="730.726" type="curve" smooth="yes"/>
      <point x="443.668" y="808.938"/>
      <point x="498.3" y="1014.27"/>
      <point x="500.736" y="1202.18" type="curve" smooth="yes"/>
      <point x="501.189" y="1237.15"/>
      <point x="529.738" y="1254.96"/>
      <point x="556.032" y="1255.01" type="curve" smooth="yes"/>
      <point x="582.391" y="1255.07"/>
      <point x="610.639" y="1237.3"/>
      <point x="610.714" y="1202.18" type="curve" smooth="yes"/>
      <point x="610.773" y="1174.2"/>
      <point x="607.98" y="1134.78"/>
      <point x="606.823" y="1091.58" type="curve" smooth="yes"/>
      <point x="605.7" y="1049.67"/>
      <point x="606.171" y="1003.97"/>
      <point x="612.557" y="961.945" type="curve" smooth="yes"/>
      <point x="625.36" y="877.695"/>
      <point x="659.273" y="821.555"/>
      <point x="739.943" y="824.525" type="curve" smooth="yes"/>
      <point x="845.41" y="828.408"/>
      <point x="919.774" y="842.582"/>
      <point x="946.791" y="848.486" type="curve"/>
      <point x="1052.88" y="1249.48" type="line" smooth="yes"/>
      <point x="1060.09" y="1276.74"/>
      <point x="1088.59" y="1294.89"/>
      <point x="1118.41" y="1288.6" type="curve" smooth="yes"/>
      <point x="1141.47" y="1283.74"/>
      <point x="1164.88" y="1260.35"/>
      <point x="1159.58" y="1239.86" type="curve" smooth="yes"/>
      <point x="912.384" y="284.672" type="line"/>
      <point x="1275.49" y="284.467" type="line" smooth="yes"/>
      <point x="1304.74" y="284.451"/>
      <point x="1330.38" y="261.993"/>
    </contour>
  </outline>
</glyph>
<glyph name="uni1228" format="2">
  <advance width="965"/>
  <unicode hex="1228"/>
  <outline>
    <contour>
      <point x="830.259" y="0" type="curve" smooth="yes"/>
      <point x="377.242" y="0" type="line" smooth="yes"/>
      <point x="167.23" y="0"/>
      <point x="21.1383" y="109.149"/>
      <point x="30.3105" y="314.778" type="curve" smooth="yes"/>
      <point x="37.165" y="468.448"/>
      <point x="195.606" y="624.478"/>
      <point x="342.016" y="767.386" type="curve" smooth="yes"/>
      <point x="379.122" y="803.604"/>
      <point x="416.13" y="839.659"/>
      <point x="450.765" y="875.111" type="curve" smooth="yes"/>
      <point x="485.042" y="910.196"/>
      <point x="517.015" y="944.736"/>
      <point x="544.359" y="978.739" type="curve" smooth="yes"/>
      <point x="599.277" y="1047.03"/>
      <point x="632.423" y="1108.98"/>
      <point x="632.423" y="1164.7" type="curve" smooth="yes"/>
      <point x="632.423" y="1235.7"/>
      <point x="742.4" y="1235.7"/>
      <point x="742.4" y="1164.7" type="curve" smooth="yes"/>
      <point x="742.4" y="1010.67"/>
      <point x="586.734" y="854.438"/>
      <point x="440.32" y="711.27" type="curve" smooth="yes"/>
      <point x="403.182" y="674.956"/>
      <point x="366.02" y="638.946"/>
      <point x="330.957" y="603.341" type="curve" smooth="yes"/>
      <point x="296.237" y="568.085"/>
      <point x="263.688" y="533.131"/>
      <point x="235.52" y="498.893" type="curve" smooth="yes"/>
      <point x="178.95" y="430.131"/>
      <point x="143.147" y="367.322"/>
      <point x="140.288" y="310.477" type="curve" smooth="yes"/>
      <point x="133.589" y="177.257"/>
      <point x="215.809" y="106.496"/>
      <point x="377.242" y="106.496" type="curve" smooth="yes"/>
      <point x="830.259" y="106.496" type="line" smooth="yes"/>
      <point x="903.591" y="106.496"/>
      <point x="903.591" y="0"/>
    </contour>
  </outline>
</glyph>
<glyph name="uni1229" format="2">
  <advance width="890"/>
  <unicode hex="1229"/>
  <outline>
    <contour>
      <point x="754.688" y="428.441" type="curve" smooth="yes"/>
      <point x="468.378" y="428.441" type="line"/>
      <point x="461.005" y="53.0432" type="line" smooth="yes"/>
      <point x="460.444" y="24.4757"/>
      <point x="436.499" y="0"/>
      <point x="406.119" y="0" type="curve" smooth="yes"/>
      <point x="376.421" y="0"/>
      <point x="350.441" y="24.0583"/>
      <point x="351.027" y="53.8625" type="curve" smooth="yes"/>
      <point x="358.4" y="428.442" type="line"/>
      <point x="301.875" y="428.442" type="line" smooth="yes"/>
      <point x="84.3845" y="428.442"/>
      <point x="22.088" y="545.623"/>
      <point x="30.9247" y="744.448" type="curve" smooth="yes"/>
      <point x="37.8507" y="900.28"/>
      <point x="159.636" y="985.161"/>
      <point x="269.312" y="1059.43" type="curve" smooth="yes"/>
      <point x="296.819" y="1078.06"/>
      <point x="324.364" y="1096.38"/>
      <point x="350.003" y="1115.34" type="curve" smooth="yes"/>
      <point x="375.397" y="1134.12"/>
      <point x="398.445" y="1153.26"/>
      <point x="417.997" y="1173.5" type="curve" smooth="yes"/>
      <point x="456.829" y="1213.7"/>
      <point x="481.075" y="1258.15"/>
      <point x="481.075" y="1314.61" type="curve" smooth="yes"/>
      <point x="481.075" y="1385.86"/>
      <point x="591.053" y="1385.86"/>
      <point x="591.053" y="1314.61" type="curve" smooth="yes"/>
      <point x="591.053" y="1158.49"/>
      <point x="471.889" y="1073.23"/>
      <point x="362.086" y="998.605" type="curve" smooth="yes"/>
      <point x="334.538" y="979.883"/>
      <point x="307.061" y="961.397"/>
      <point x="280.985" y="942.285" type="curve" smooth="yes"/>
      <point x="255.155" y="923.352"/>
      <point x="231.346" y="904.232"/>
      <point x="210.944" y="883.712" type="curve" smooth="yes"/>
      <point x="170.351" y="842.886"/>
      <point x="143.575" y="797.576"/>
      <point x="140.697" y="740.147" type="curve" smooth="yes"/>
      <point x="133.457" y="595.652"/>
      <point x="150.527" y="535.347"/>
      <point x="301.875" y="535.347" type="curve" smooth="yes"/>
      <point x="754.688" y="535.347" type="line" smooth="yes"/>
      <point x="828.018" y="535.347"/>
      <point x="828.017" y="428.442"/>
    </contour>
  </outline>
</glyph>
<glyph name="uni122A" format="2">
  <advance width="822"/>
  <unicode hex="122A"/>
  <outline>
    <contour>
      <point x="742.4" y="1164.7" type="curve" smooth="yes"/>
      <point x="742.4" y="1010.64"/>
      <point x="586.725" y="854.258"/>
      <point x="440.32" y="711.066" type="curve" smooth="yes"/>
      <point x="403.184" y="674.744"/>
      <point x="366.023" y="638.752"/>
      <point x="330.957" y="603.136" type="curve" smooth="yes"/>
      <point x="296.238" y="567.872"/>
      <point x="263.484" y="533.142"/>
      <point x="235.315" y="498.893" type="curve" smooth="yes"/>
      <point x="178.743" y="430.111"/>
      <point x="143.147" y="367.14"/>
      <point x="140.288" y="310.272" type="curve" smooth="yes"/>
      <point x="133.288" y="171.022"/>
      <point x="226.459" y="65.9438"/>
      <point x="371.917" y="105.472" type="curve" smooth="yes"/>
      <point x="517.328" y="144.988"/>
      <point x="625.006" y="262.058"/>
      <point x="625.255" y="346.521" type="curve" smooth="yes"/>
      <point x="625.304" y="363.287"/>
      <point x="619.919" y="379.108"/>
      <point x="615.629" y="388.505" type="curve" smooth="yes"/>
      <point x="603.021" y="416.123"/>
      <point x="618.651" y="447.722"/>
      <point x="645.939" y="458.342" type="curve" smooth="yes"/>
      <point x="673.863" y="469.21"/>
      <point x="705.324" y="455.6"/>
      <point x="717.21" y="429.465" type="curve" smooth="yes"/>
      <point x="728.658" y="404.292"/>
      <point x="735.124" y="376.267"/>
      <point x="735.232" y="346.521" type="curve" smooth="yes"/>
      <point x="735.689" y="220.909"/>
      <point x="630.226" y="66.4705"/>
      <point x="382.567" y="0.409508" type="curve" smooth="yes"/>
      <point x="171.007" y="-56.0222"/>
      <point x="21.3726" y="114.102"/>
      <point x="30.3106" y="314.573" type="curve" smooth="yes"/>
      <point x="37.1636" y="468.279"/>
      <point x="195.607" y="624.444"/>
      <point x="342.016" y="767.386" type="curve" smooth="yes"/>
      <point x="379.122" y="803.613"/>
      <point x="416.13" y="839.446"/>
      <point x="450.765" y="874.906" type="curve" smooth="yes"/>
      <point x="485.043" y="910"/>
      <point x="517.012" y="944.723"/>
      <point x="544.359" y="978.739" type="curve" smooth="yes"/>
      <point x="599.281" y="1047.05"/>
      <point x="632.423" y="1108.97"/>
      <point x="632.423" y="1164.7" type="curve" smooth="yes"/>
      <point x="632.423" y="1235.71"/>
      <point x="742.4" y="1235.71"/>
    </contour>
  </outline>
</glyph>
<glyph name="uni122B" format="2">
  <advance width="1142"/>
  <unicode hex="122B"/>
  <outline>
    <contour>
      <point x="1061.89" y="436.839" type="curve" smooth="yes"/>
      <point x="1061.89" y="406.482"/>
      <point x="1036.81" y="386.208"/>
      <point x="1008.84" y="383.59" type="curve" smooth="yes"/>
      <point x="706.969" y="355.328" type="line"/>
      <point x="669.081" y="98.5087" type="line" smooth="yes"/>
      <point x="667.935" y="90.7345"/>
      <point x="663.319" y="70.1525"/>
      <point x="643.072" y="65.1265" type="curve" smooth="yes"/>
      <point x="382.361" y="0.409451" type="line" smooth="yes"/>
      <point x="169.87" y="-52.3378"/>
      <point x="21.373" y="114.103"/>
      <point x="30.3105" y="314.573" type="curve" smooth="yes"/>
      <point x="37.1632" y="468.286"/>
      <point x="195.606" y="624.441"/>
      <point x="342.016" y="767.385" type="curve" smooth="yes"/>
      <point x="379.123" y="803.614"/>
      <point x="416.13" y="839.446"/>
      <point x="450.765" y="874.905" type="curve" smooth="yes"/>
      <point x="485.043" y="910"/>
      <point x="517.012" y="944.724"/>
      <point x="544.358" y="978.739" type="curve" smooth="yes"/>
      <point x="599.279" y="1047.05"/>
      <point x="632.422" y="1108.97"/>
      <point x="632.422" y="1164.7" type="curve" smooth="yes"/>
      <point x="632.422" y="1235.71"/>
      <point x="742.4" y="1235.72"/>
      <point x="742.4" y="1164.7" type="curve" smooth="yes"/>
      <point x="742.4" y="1010.64"/>
      <point x="586.729" y="854.26"/>
      <point x="440.32" y="711.065" type="curve" smooth="yes"/>
      <point x="403.183" y="674.743"/>
      <point x="366.022" y="638.751"/>
      <point x="330.957" y="603.136" type="curve" smooth="yes"/>
      <point x="296.236" y="567.87"/>
      <point x="263.482" y="533.14"/>
      <point x="235.315" y="498.892" type="curve" smooth="yes"/>
      <point x="178.747" y="430.113"/>
      <point x="143.146" y="367.142"/>
      <point x="140.288" y="310.272" type="curve" smooth="yes"/>
      <point x="133.306" y="171.352"/>
      <point x="225.604" y="67.9235"/>
      <point x="372.122" y="105.676" type="curve" smooth="yes"/>
      <point x="572.416" y="157.286" type="line"/>
      <point x="604.57" y="414.105" type="line" smooth="yes"/>
      <point x="608.163" y="442.81"/>
      <point x="635.699" y="462.755"/>
      <point x="664.167" y="460.185" type="curve"/>
      <point x="1005.16" y="489.881" type="line" smooth="yes"/>
      <point x="1039.16" y="492.842"/>
      <point x="1061.89" y="465.154"/>
    </contour>
  </outline>
</glyph>
